<svg width="174" height="384" viewBox="0 0 174 384" fill="none" xmlns="http://www.w3.org/2000/svg">
<path d="M27.1135 330.305C26.5537 331.765 25.9937 333.215 25.4336 334.675C22.1858 332.489 19.3687 329.723 17.1235 326.515C17.9235 323.585 18.7036 320.795 19.4736 318.125C19.5558 319.726 19.9074 321.301 20.5136 322.785C20.8198 323.531 21.1877 324.25 21.6135 324.935C22.0274 325.636 22.5027 326.299 23.0336 326.915C24.1828 328.277 25.5641 329.425 27.1135 330.305V330.305Z" fill="#155BD5"/>
<path d="M45.5137 332.735C47.0835 332.425 48.6536 332.135 50.2036 331.785L45.8237 340.415C38.5785 340.817 31.4054 338.797 25.4336 334.675L27.2637 330.385C28.4999 331.09 29.8114 331.654 31.1736 332.065C32.7233 332.542 34.3132 332.877 35.9236 333.065C36.7236 333.175 37.5237 333.135 38.3335 333.185C39.1335 333.195 39.9436 333.275 40.7437 333.205C42.3335 333.045 43.9336 332.975 45.5137 332.735ZM115.034 337.145C115.244 339.625 115.434 342.115 115.634 344.595C108.674 344.905 102.604 344.635 102.604 344.635C102.604 344.005 102.074 341.185 101.194 336.945C104.103 337.335 107.039 337.495 109.974 337.425C111.664 337.405 113.354 337.305 115.034 337.145Z" fill="#155BD5"/>
<path d="M114.144 327.075C114.434 330.115 114.707 333.155 114.964 336.195C113.293 336.385 111.624 336.535 109.944 336.665C108.494 336.785 107.034 336.845 105.583 336.875C104.123 336.945 102.664 336.945 101.194 336.945C96.9836 316.615 84.7837 263.695 84.7837 263.695L50.2036 331.785C48.6135 331.915 47.0337 332.095 45.4636 332.255C43.8835 332.395 42.3037 332.365 40.7236 332.435C39.9436 332.455 39.1536 332.335 38.3735 332.305C37.5938 332.245 36.8037 332.255 36.0337 332.125C34.4874 331.921 32.9617 331.583 31.4736 331.115C30.1407 330.715 28.8536 330.175 27.6335 329.505L37.0737 307.325C40.9536 298.205 44.7935 289.075 48.7537 279.995C52.6335 270.885 56.6069 261.815 60.6736 252.785C62.7036 248.265 64.7737 243.765 66.9336 239.315C68.0237 237.095 69.1135 234.865 70.2837 232.695C70.8735 231.595 71.4736 230.525 72.1235 229.465C72.7391 228.394 73.4594 227.385 74.2737 226.455C73.4199 227.355 72.6562 228.337 71.9937 229.385C71.3135 230.425 70.6736 231.485 70.0537 232.565C68.8135 234.705 67.6536 236.905 66.4937 239.095C64.2337 243.505 62.0938 247.975 59.9737 252.455C55.7637 261.435 51.7935 270.515 47.8335 279.595C43.9536 288.715 40.1035 297.845 36.3635 307.025C33.3438 314.465 30.3771 321.929 27.4636 329.415C26.0291 328.617 24.727 327.602 23.6035 326.405C21.4611 324.099 20.0275 321.224 19.4736 318.125V318.105C34.8635 264.325 42.9836 261.285 46.5938 243.155C48.7778 232.446 50.3834 221.627 51.4036 210.745C52.5112 211.631 53.9232 212.044 55.3335 211.895C55.3335 211.895 54.5835 215.965 58.5037 215.965H64.2437C64.2437 215.965 63.4937 219.135 67.4136 218.985C69.8636 218.895 71.6035 217.745 73.6236 216.855C75.3783 216.084 76.8691 214.816 77.9122 213.208C78.9552 211.6 79.505 209.722 79.4937 207.805C79.4824 206.976 79.4289 206.149 79.3335 205.325L82.0738 204.795C85.5635 205.105 89.1236 205.275 92.6837 205.235C93.7927 216.971 95.4982 228.643 97.7935 240.205C98.9336 246.005 100.324 251.775 101.974 257.465C102.744 260.315 103.814 263.125 104.614 265.935C105.534 268.725 106.154 271.615 106.854 274.475C109.26 286.033 111.083 297.704 112.314 309.445C113.014 315.315 113.594 321.195 114.144 327.075Z" fill="#155BD5"/>
<path d="M134.693 329.565C134.083 329.975 133.483 330.385 132.883 330.805C132.273 331.196 131.639 331.547 130.983 331.855C130.663 332.025 130.353 332.215 130.033 332.375L129.023 332.785C128.37 333.088 127.698 333.352 127.013 333.575C126.323 333.795 125.633 334.015 124.953 334.245L122.853 334.795C122.153 334.995 121.443 335.115 120.733 335.265C120.023 335.415 119.313 335.575 118.593 335.665C117.473 335.865 116.343 336.025 115.213 336.165C114.713 327.215 113.983 318.285 113.083 309.365C111.96 297.576 110.204 285.856 107.823 274.255C107.113 271.375 106.473 268.475 105.523 265.655C104.683 262.785 103.633 260.065 102.844 257.205C101.163 251.555 99.7932 245.815 98.5432 240.045C97.3035 234.275 96.2234 228.465 95.2634 222.635C94.2834 216.855 93.4267 211.055 92.6934 205.235C96.8245 205.209 100.947 204.858 105.023 204.185C106.778 204.085 108.475 203.528 109.947 202.568C111.419 201.609 112.614 200.28 113.413 198.715C117.603 241.185 128.613 288.015 134.693 329.565Z" fill="#155BD5"/>
<path d="M115.634 344.595C115.524 342.105 115.4 339.612 115.264 337.115C116.434 336.995 117.604 336.855 118.764 336.655C121.683 336.19 124.541 335.398 127.284 334.295C130.034 333.209 132.55 331.603 134.694 329.565C135.104 332.295 135.483 335.005 135.833 337.695C136.484 342.605 125.224 344.155 115.634 344.595ZM79.9525 30.5142C79.9525 30.5142 95.0547 46.5225 97.471 46.5225C97.471 46.5225 93.5445 51.0531 93.5445 53.4695C93.5445 53.4695 78.1403 39.5755 75.4219 34.1387L79.9525 30.5142Z" fill="#155BD5"/>
<path d="M79.2346 204.411C81.3906 204.529 83.5376 204.677 85.6904 204.716C87.8423 204.757 89.9902 204.765 92.136 204.713C94.281 204.655 96.4204 204.524 98.5491 204.306C100.676 204.074 102.799 203.829 104.899 203.446L104.928 203.44L105.036 203.435C106.544 203.337 108.001 202.853 109.267 202.028C110.554 201.197 111.628 200.075 112.402 198.752C113.938 195.977 114.769 192.867 114.82 189.695C114.966 186.444 114.78 183.187 114.264 179.973C114.023 178.36 113.71 176.74 113.43 175.104L112.645 170.204C111.606 163.664 111.09 157.067 110.331 150.517C109.571 143.96 108.678 137.418 107.861 130.871C106.222 117.776 104.446 104.707 102.532 91.6635C101.571 85.1442 100.566 78.6304 99.3052 72.1704C98.699 68.9355 98.0081 65.7177 97.1634 62.5446C96.9607 61.7479 96.7417 60.9578 96.4998 60.1745C96.2813 59.3815 96.0061 58.6121 95.7329 57.8395C95.2414 56.2823 94.478 54.8245 93.4783 53.5333L93.6089 53.3972C94.7495 54.6279 95.645 56.0647 96.2476 57.6306C96.5767 58.3946 96.9085 59.1602 97.1817 59.9437C97.4759 60.7216 97.762 61.5026 98.0037 62.2958C99.0125 65.4581 99.865 68.6642 100.632 71.8855C102.118 78.3397 103.353 84.843 104.434 91.3665C106.581 104.418 108.066 117.556 109.39 130.699C110.054 137.271 110.543 143.86 111.097 150.44L111.966 160.304C112.276 163.584 112.746 166.848 113.341 170.088C113.906 173.346 114.719 176.504 115.394 179.777C116.086 183.059 116.424 186.406 116.4 189.76C116.437 193.223 115.549 196.633 113.829 199.638C112.909 201.179 111.622 202.468 110.084 203.392C108.546 204.316 106.803 204.846 105.011 204.935L105.148 204.925C102.998 205.274 100.831 205.514 98.656 205.642C96.4839 205.768 94.3093 205.804 92.1404 205.766C89.9717 205.735 87.8083 205.615 85.6501 205.406C83.4939 205.216 81.3471 204.933 79.2126 204.599L79.2346 204.411ZM53.8577 199.456C51.9609 199.015 50.0796 198.509 48.2061 197.972C46.3308 197.433 44.4687 196.874 42.6201 196.203L42.2109 196.055L42.3311 195.564C42.6798 193.872 42.9197 192.159 43.0493 190.436L43.5256 185.171L44.3979 174.617C44.9145 167.574 45.6106 160.542 46.3472 153.513C47.9233 139.46 48.8079 125.354 49.5786 111.236C49.9937 104.179 50.4893 97.1272 51.0654 90.0803C51.6289 83.0312 52.2185 75.984 53.1138 68.9497C53.335 67.191 53.5823 65.4314 53.8557 63.6708C54.1104 61.876 54.5257 60.1078 55.0967 58.3873C56.2681 54.9644 57.9384 51.7331 60.0535 48.798C64.2763 43.0432 69.457 38.0572 75.3694 34.0581L75.4781 34.2124C72.7377 36.4239 70.1564 38.8256 67.7534 41.3998C65.3388 43.9331 63.1576 46.6791 61.2366 49.6045C59.2991 52.4691 57.7943 55.6037 56.7708 58.9071C56.2834 60.559 55.9363 62.2492 55.7332 63.9595C55.4886 65.6936 55.2683 67.4359 55.0725 69.1865C54.2989 76.1866 53.6038 83.216 52.908 90.2431L50.8701 111.339C49.3891 125.397 48.148 139.477 47.5193 153.604C47.1494 160.664 46.7281 167.721 46.0283 174.758L44.9595 185.315C44.7725 187.075 44.5345 188.83 44.2849 190.586C44.0712 192.381 43.7341 194.158 43.2761 195.906L42.9873 195.267C44.7698 195.986 46.5891 196.681 48.4082 197.351C50.2327 198.012 52.0698 198.643 53.9097 199.274L53.8577 199.456Z" fill="#155BD5"/>
<path d="M73.0057 41.9917L79.3497 49.1457C81.4596 51.5266 83.5636 53.9084 85.7201 56.2382C87.8541 58.5889 90.036 60.8934 92.2889 63.1224C94.5161 65.3885 96.8929 67.5025 99.4034 69.45C96.5971 67.8925 93.9841 66.0096 91.6187 63.8402C90.3946 62.8013 89.2691 61.6628 88.1075 60.559C86.9918 59.4126 85.87 58.2697 84.7928 57.0881C82.6388 54.7237 80.5626 52.2918 78.598 49.7719C76.6204 47.2637 74.743 44.6752 73.0057 41.9917ZM64.2464 59.5103C65.89 58.7602 67.6204 58.217 69.3978 57.8933C71.1833 57.5348 73.0054 57.3913 74.825 57.4659C76.6689 57.5282 78.4881 57.909 80.202 58.5916C81.9066 59.292 83.3871 60.4453 84.4833 61.9266C83.1009 60.8539 81.5377 60.0371 79.8675 59.515C79.4476 59.4121 79.0316 59.3053 78.6202 59.1874C78.201 59.0942 77.7696 59.043 77.3468 58.9681C76.9222 58.8913 76.4936 58.8382 76.0631 58.8091C75.6334 58.7575 75.2012 58.7286 74.7684 58.7225C73.0224 58.646 71.2732 58.6927 69.5338 58.8622C67.7811 59.021 66.0238 59.2385 64.2464 59.5103ZM59.7157 177.307C61.6607 178.051 63.5992 178.744 65.5465 179.39C67.4991 180.016 69.4537 180.616 71.4405 181.064C73.4192 181.527 75.4273 181.854 77.4507 182.042C79.4945 182.186 81.5476 182.117 83.5772 181.838C81.6152 182.61 79.527 183.012 77.4185 183.024C75.3099 183.013 73.2091 182.767 71.1553 182.289C69.1164 181.801 67.1236 181.137 65.1995 180.305C63.2733 179.497 61.4356 178.492 59.7157 177.307V177.307ZM99.8875 106.063C100.132 106.054 100.364 105.951 100.534 105.775C100.704 105.599 100.799 105.364 100.799 105.119C100.799 104.874 100.704 104.639 100.534 104.463C100.364 104.287 100.132 104.183 99.8875 104.175C99.6428 104.183 99.4109 104.287 99.2408 104.463C99.0707 104.639 98.9757 104.874 98.9757 105.119C98.9757 105.364 99.0707 105.599 99.2408 105.775C99.4109 105.951 99.6428 106.054 99.8875 106.063V106.063ZM103.512 133.549C103.757 133.54 103.989 133.437 104.159 133.261C104.329 133.085 104.424 132.85 104.424 132.605C104.424 132.36 104.329 132.125 104.159 131.949C103.989 131.773 103.757 131.669 103.512 131.661C103.267 131.669 103.035 131.773 102.865 131.949C102.695 132.125 102.6 132.36 102.6 132.605C102.6 132.85 102.695 133.085 102.865 133.261C103.035 133.437 103.267 133.54 103.512 133.549ZM106.834 154.692C107.079 154.683 107.311 154.58 107.481 154.404C107.651 154.228 107.746 153.993 107.746 153.748C107.746 153.503 107.651 153.268 107.481 153.092C107.311 152.916 107.079 152.812 106.834 152.804C106.59 152.812 106.358 152.916 106.188 153.092C106.018 153.268 105.923 153.503 105.923 153.748C105.923 153.993 106.018 154.228 106.188 154.404C106.358 154.58 106.59 154.683 106.834 154.692ZM110.761 180.365C111.006 180.357 111.238 180.254 111.408 180.078C111.578 179.902 111.673 179.666 111.673 179.422C111.673 179.177 111.578 178.941 111.408 178.765C111.238 178.589 111.006 178.486 110.761 178.478C110.516 178.486 110.285 178.589 110.114 178.765C109.944 178.941 109.849 179.177 109.849 179.422C109.849 179.666 109.944 179.902 110.114 180.078C110.285 180.254 110.516 180.357 110.761 180.365V180.365ZM80.7655 190.744C81.0389 191.894 81.2484 193.058 81.3929 194.231C81.5558 195.415 81.6048 196.612 81.5391 197.806C81.5123 198.428 81.4034 199.044 81.2151 199.637C80.9974 200.262 80.7711 200.721 80.5897 201.287C80.1947 202.354 79.9073 203.458 79.7317 204.582L79.731 204.443C79.9317 205.55 79.9383 206.69 80.0455 207.816C80.0641 208.99 79.872 210.157 79.4781 211.263C78.6831 213.472 77.1384 215.332 75.1131 216.519C74.6164 216.801 74.1016 217.05 73.5721 217.264L72.0574 217.924C71.0391 218.407 69.9701 218.775 68.8702 219.021C67.7491 219.284 66.5774 219.238 65.4808 218.886C64.9105 218.668 64.4499 218.232 64.1995 217.675C63.97 217.118 63.9106 216.505 64.0286 215.914L64.2435 216.186C62.2779 216.185 60.3311 216.28 58.3502 216.301C57.7958 216.335 57.2416 216.232 56.7371 215.999C56.2325 215.767 55.7932 215.414 55.4583 214.971C54.8761 214.025 54.6566 212.9 54.8404 211.804L55.3465 212.397C54.6006 212.438 53.8524 212.378 53.1226 212.218C52.3462 212.053 51.6241 211.695 51.023 211.177C50.4221 210.63 49.9864 209.925 49.7652 209.144C49.545 208.382 49.486 207.583 49.5919 206.797L49.9666 207.48C49.261 207.2 48.5773 206.868 47.921 206.486C47.1649 206.079 46.5402 205.466 46.1202 204.717C45.8934 204.232 45.8613 203.678 46.0306 203.17C46.1954 202.725 46.4648 202.326 46.8162 202.006C47.4652 201.418 48.2875 201.055 49.16 200.973C50.4805 200.896 51.7461 200.418 52.7877 199.603C53.765 198.753 54.3719 197.556 54.4788 196.265L54.482 196.324L54.3934 194.431C54.4129 193.798 54.431 193.164 54.4722 192.533C54.5922 191.265 54.8807 190.018 55.3301 188.826C55.7743 187.63 56.4466 186.532 57.3096 185.592C58.1603 184.653 59.2358 183.945 60.4351 183.535L60.4722 183.655C59.3719 184.17 58.4109 184.941 57.6697 185.903C56.937 186.853 56.3806 187.926 56.0272 189.072C55.683 190.219 55.4836 191.405 55.4336 192.602C55.4188 193.203 55.4256 193.805 55.4297 194.405L55.5853 196.207L55.5889 196.249L55.5884 196.265C55.5662 197.076 55.3809 197.873 55.0435 198.61C54.7062 199.347 54.2238 200.009 53.6251 200.555C52.3968 201.57 50.887 202.183 49.2994 202.312C48.7183 202.365 48.1692 202.602 47.7322 202.988C47.5444 203.156 47.397 203.364 47.3011 203.597C47.269 203.689 47.2558 203.787 47.2622 203.885C47.2685 203.982 47.2944 204.078 47.3382 204.165C47.6439 204.678 48.0803 205.101 48.6028 205.39C49.1916 205.748 49.8058 206.062 50.4405 206.331L50.8892 206.531L50.8155 207.014C50.729 207.616 50.7633 208.229 50.9166 208.817C51.0631 209.391 51.3674 209.913 51.795 210.323C52.7952 211.108 54.0529 211.49 55.3206 211.394L55.9236 211.388L55.827 211.986C55.661 212.839 55.7855 213.723 56.1805 214.497C56.4246 214.849 56.7526 215.136 57.1349 215.33C57.5173 215.524 57.9419 215.62 58.3707 215.61C59.3301 215.654 60.326 215.665 61.3018 215.694C62.2823 215.724 63.263 215.739 64.2435 215.744L64.5115 215.745L64.4588 216.016C64.353 216.516 64.3942 217.036 64.5774 217.513C64.6766 217.744 64.8204 217.953 65.0007 218.129C65.1811 218.305 65.3943 218.443 65.6282 218.535C66.6526 218.851 67.745 218.872 68.7808 218.597C69.8357 218.327 70.8507 217.92 71.7996 217.386C72.7679 216.849 73.8209 216.418 74.6841 215.837C76.4326 214.638 77.7445 212.904 78.4224 210.895C78.7556 209.906 78.9306 208.871 78.941 207.827C78.8607 206.75 78.886 205.665 78.7164 204.588L78.7046 204.513L78.7156 204.448C78.9276 203.253 79.261 202.082 79.7105 200.954C79.9188 200.41 80.2378 199.822 80.4307 199.347C80.6272 198.829 80.7546 198.287 80.8096 197.735C80.9273 196.584 80.9608 195.426 80.9097 194.27C80.8685 193.103 80.7671 191.933 80.6419 190.767L80.7655 190.744Z" fill="#155BD5"/>
<path d="M50.2012 206.593L52.8882 206.672C53.7613 206.761 54.6435 206.682 55.4868 206.439C56.3266 206.167 57.0919 205.704 57.7229 205.087L59.7156 203.283L57.8318 205.201C57.2132 205.878 56.4463 206.403 55.5911 206.736C54.7241 207.042 53.8069 207.18 52.8882 207.144L50.2012 207.222V206.593ZM55.3359 211.577L58.1567 211.646C59.0733 211.619 59.9684 211.362 60.76 210.899C61.5447 210.394 62.2367 209.758 62.8057 209.018L64.6992 206.908L62.9255 209.12C62.3818 209.912 61.7056 210.604 60.9265 211.166C60.1062 211.708 59.1631 212.035 58.1836 212.118L55.336 212.206L55.3359 211.577ZM64.1724 215.663C65.0137 215.472 65.9197 215.33 66.7078 215.098C67.5136 214.832 68.2472 214.384 68.8517 213.789C69.4344 213.15 69.927 212.435 70.3161 211.663L71.6462 209.4L70.454 211.739C70.1017 212.554 69.6393 213.317 69.0798 214.006C68.4705 214.681 67.7137 215.207 66.8681 215.542C65.9931 215.854 65.1711 216.026 64.32 216.275L64.1724 215.663ZM72.0994 185.802C72.3441 185.794 72.5759 185.691 72.746 185.515C72.9161 185.339 73.0112 185.103 73.0112 184.858C73.0112 184.614 72.9161 184.378 72.746 184.202C72.5759 184.026 72.3441 183.923 72.0994 183.915C71.8547 183.923 71.6229 184.026 71.4528 184.202C71.2827 184.378 71.1876 184.614 71.1876 184.858C71.1876 185.103 71.2827 185.339 71.4528 185.515C71.6229 185.691 71.8547 185.794 72.0994 185.802V185.802ZM88.3672 149.76C90.1634 149.384 91.9333 148.891 93.6658 148.285C94.4976 147.977 95.2989 147.592 96.0591 147.135C96.7551 146.774 97.2804 146.153 97.521 145.407L98.4629 140.438L98.6401 145.506C98.7707 149.247 98.3838 152.996 98.4561 156.737C98.4875 160.478 98.855 164.216 98.9373 167.96L99.0278 173.581L99.0117 174.988C99.018 175.481 98.9966 175.974 98.9477 176.464C98.7976 177.52 98.3454 178.51 97.6457 179.315C96.9439 180.103 96.0264 180.668 95.0068 180.941C94.0658 181.169 93.1055 181.31 92.1384 181.36C91.1676 181.426 90.1923 181.348 89.2446 181.127C88.7643 181.021 88.3107 180.818 87.9116 180.531C87.5124 180.244 87.1762 179.878 86.9236 179.456L87.0298 179.388C87.6186 180.076 88.4555 180.504 89.3584 180.579C90.2553 180.685 91.163 180.659 92.0525 180.502C92.9463 180.363 93.8299 180.166 94.6974 179.909C95.4728 179.638 96.157 179.156 96.6726 178.516C97.1883 177.877 97.515 177.106 97.6159 176.29C97.6603 175.915 97.6581 175.43 97.6689 174.965L97.6919 173.567L97.8079 167.964C97.8648 164.226 98.1489 160.482 98.0769 156.742C98.0437 153.001 97.5305 149.268 97.5102 145.529L98.6291 145.628C98.4747 146.146 98.2156 146.626 97.868 147.038C97.5203 147.451 97.0915 147.789 96.6081 148.029C95.7625 148.494 94.8636 148.855 93.9311 149.103C92.1204 149.594 90.2556 149.857 88.3799 149.886L88.3672 149.76ZM106.457 112.656C107.3 110.613 108.752 108.88 110.614 107.691C111.568 107.273 112.491 106.787 113.376 106.238C114.22 105.645 115.026 104.999 115.789 104.305C116.594 103.628 117.377 102.932 118.138 102.215C118.523 101.862 118.897 101.499 119.258 101.127L119.787 100.562C119.949 100.38 120.132 100.179 120.361 99.9528C120.798 99.5432 121.33 99.2479 121.909 99.0932C122.487 98.9384 123.095 98.929 123.679 99.0658C124.226 99.1939 124.732 99.4601 125.147 99.839C125.563 100.218 125.874 100.697 126.052 101.23C125.793 100.792 125.434 100.422 125.003 100.152C124.572 99.8808 124.083 99.7172 123.576 99.6743C123.11 99.6295 122.64 99.6937 122.203 99.862C121.766 100.03 121.374 100.298 121.059 100.644C120.924 100.805 120.765 101.01 120.595 101.242C120.425 101.456 120.25 101.667 120.071 101.871C119.714 102.282 119.348 102.681 118.971 103.067C118.211 103.834 117.414 104.555 116.606 105.26C115.788 105.984 114.919 106.648 114.005 107.246C113.061 107.779 112.07 108.223 111.043 108.571C110.128 109.005 109.294 109.593 108.577 110.308C107.806 111.03 107.097 111.816 106.457 112.656V112.656Z" fill="#155BD5"/>
<path d="M122.312 99.4072C122.528 101.414 122.823 103.402 123.166 105.373C123.501 107.335 123.941 109.279 124.482 111.195C124.995 113.08 125.759 114.888 126.755 116.57C127.184 117.387 127.785 118.101 128.518 118.663C129.25 119.225 130.096 119.62 130.997 119.822L131.03 119.827L131.076 119.839C131.447 119.947 131.836 119.975 132.217 119.919C132.599 119.864 132.964 119.728 133.289 119.519C133.9 118.959 134.29 118.197 134.388 117.374C134.511 116.471 134.532 115.558 134.452 114.651C134.4 113.725 134.215 112.811 134.094 111.877C134.411 112.765 134.666 113.673 134.858 114.595C135.075 115.535 135.161 116.499 135.113 117.462C135.083 118.52 134.643 119.525 133.885 120.263C133.457 120.62 132.943 120.858 132.394 120.952C131.854 121.045 131.302 121.029 130.769 120.905L130.848 120.922C129.738 120.788 128.688 120.348 127.813 119.652C126.977 118.973 126.261 118.157 125.696 117.24C124.631 115.456 123.851 113.518 123.382 111.495C122.895 109.516 122.569 107.502 122.406 105.472C122.229 103.455 122.198 101.428 122.312 99.4072V99.4072ZM117.832 103.329C117.835 105.568 117.945 107.798 118.163 110.017C118.363 112.231 118.727 114.427 119.252 116.588C119.74 118.747 120.522 120.829 121.577 122.775C122.622 124.742 124.165 126.4 126.052 127.582C124.004 126.582 122.301 124.994 121.16 123.02C120.013 121.063 119.164 118.945 118.641 116.738C118.132 114.541 117.811 112.305 117.683 110.054C117.544 107.812 117.594 105.562 117.832 103.329Z" fill="#155BD5"/>
<path d="M121.408 113.274C121.653 113.265 121.885 113.162 122.055 112.986C122.225 112.81 122.32 112.575 122.32 112.33C122.32 112.085 122.225 111.85 122.055 111.674C121.885 111.498 121.653 111.394 121.408 111.386C121.163 111.394 120.932 111.498 120.761 111.674C120.591 111.85 120.496 112.085 120.496 112.33C120.496 112.575 120.591 112.81 120.761 112.986C120.932 113.162 121.163 113.265 121.408 113.274V113.274ZM109.897 142.466C111.308 139.844 113.101 137.447 115.218 135.352C117.315 133.193 119.753 131.393 122.434 130.025C123.108 129.687 123.799 129.384 124.504 129.116L125.562 128.725L126.054 128.537L126.546 128.328C127.868 127.751 129.142 127.074 130.36 126.302C132.833 124.858 134.88 122.786 136.292 120.294L136.308 120.262C136.65 119.544 136.886 118.779 137.007 117.993C137.135 117.176 137.204 116.351 137.213 115.524C137.225 114.687 137.184 113.85 137.089 113.018C136.989 112.184 136.855 111.351 136.699 110.518L137.084 111.73C137.19 112.141 137.296 112.553 137.387 112.969C137.568 113.806 137.696 114.653 137.768 115.506C137.842 116.368 137.831 117.235 137.738 118.095C137.656 118.989 137.438 119.866 137.09 120.694L137.105 120.662C135.773 123.431 133.658 125.748 131.021 127.327C129.759 128.154 128.428 128.873 127.044 129.476L126.516 129.693L125.973 129.895L124.951 130.26C124.275 130.509 123.612 130.792 122.964 131.107C122.306 131.4 121.687 131.775 121.046 132.104C120.433 132.487 119.81 132.856 119.215 133.268C118.01 134.081 116.861 134.974 115.775 135.941C113.583 137.894 111.612 140.083 109.897 142.466V142.466Z" fill="#155BD5"/>
<path d="M122.686 105.101C122.93 104.26 123.297 103.46 123.775 102.725C124.253 101.97 124.89 101.329 125.642 100.847C126.421 100.356 127.338 100.13 128.255 100.204C129.16 100.274 130.041 100.523 130.849 100.934L130.852 100.936L130.896 100.964C131.007 101.037 131.135 101.083 131.268 101.096C131.317 101.099 131.365 101.09 131.409 101.069C131.452 101.048 131.49 101.016 131.518 100.977C131.69 100.706 131.787 100.394 131.796 100.074C131.834 99.3044 131.805 98.5332 131.71 97.7688C131.576 96.1638 131.572 94.5506 131.698 92.945C131.756 92.1154 131.902 91.2944 132.135 90.496C132.206 90.2713 132.302 90.0551 132.421 89.8512C132.502 89.6962 132.617 89.5616 132.757 89.4574C132.898 89.3532 133.06 89.2822 133.232 89.2496C133.428 89.2311 133.625 89.2702 133.798 89.3621C133.91 89.4157 134.016 89.4778 134.118 89.548C134.311 89.6791 134.49 89.8307 134.651 90.0001C135.774 91.3162 136.407 92.9804 136.442 94.7102C136.473 96.3165 136.497 97.8887 136.677 99.3964C136.699 99.565 136.732 99.732 136.776 99.8963C136.779 99.9441 136.858 100.042 136.75 99.9149C136.727 99.8925 136.699 99.8742 136.67 99.8609C136.615 99.8295 136.555 99.811 136.492 99.8067C136.394 99.7985 136.296 99.8221 136.212 99.8739C136.127 99.937 136.145 99.9309 136.145 99.9309C136.305 99.6098 136.449 99.2804 136.574 98.9441C136.848 98.2212 137.081 97.4839 137.274 96.7355C137.697 95.2767 137.847 93.7523 137.717 92.239C137.577 91.4126 137.562 90.5696 137.674 89.7388C137.761 88.8839 138.03 88.0575 138.462 87.3148L138.677 87.0325C138.769 86.9439 138.871 86.8591 138.97 86.7774C139.095 86.7046 139.226 86.6444 139.363 86.5978C139.513 86.5768 139.666 86.5732 139.817 86.5869C140.288 86.7368 140.69 87.0512 140.948 87.4726C141.418 88.1467 141.803 88.8753 142.096 89.6425C142.383 90.4121 142.559 91.2189 142.618 92.0382C142.649 92.4448 142.649 92.8517 142.648 93.2501C142.635 93.6609 142.586 94.0698 142.502 94.4721C142.225 96.0357 141.774 97.598 141.579 99.1096C141.577 99.1443 141.578 99.1792 141.58 99.2138C141.564 99.2031 141.62 99.2112 141.485 99.1225C141.434 99.1082 141.465 99.11 141.451 99.1118C141.525 99.0894 141.596 99.0595 141.664 99.0224C141.827 98.931 141.982 98.8266 142.128 98.7102C142.429 98.4725 142.704 98.2042 142.949 97.9095C143.435 97.31 143.81 96.6291 144.057 95.8985C144.432 94.3778 144.598 92.8129 144.549 91.2474C144.533 89.6494 144.608 88.0517 144.772 86.4621C144.843 85.5969 145.22 84.7854 145.835 84.1732C146.153 83.8508 146.541 83.6076 146.97 83.463C147.399 83.3184 147.856 83.2766 148.303 83.3408C148.775 83.4454 149.196 83.7124 149.491 84.0952C149.759 84.4493 149.958 84.8508 150.076 85.2786C150.3 86.0717 150.434 86.8873 150.477 87.7103C150.576 89.3156 150.563 90.926 150.438 92.5295C150.376 93.3297 150.3 94.1278 150.185 94.9314C150.131 95.3536 150.048 95.7715 149.936 96.1821L149.903 96.3201C149.905 96.3094 149.904 96.2981 149.9 96.288C149.893 96.289 149.892 96.2669 149.868 96.1993C149.817 96.1113 149.735 96.0447 149.639 96.0117C149.507 95.9882 149.554 96.0115 149.599 95.9807C149.658 95.954 149.716 95.9235 149.771 95.8894C150.338 95.4781 150.804 94.9437 151.134 94.3264C151.457 93.6834 151.641 92.98 151.676 92.2614C151.823 90.7321 151.821 89.1495 151.83 87.5668C151.839 86.7643 151.822 85.9975 151.889 85.1284L151.91 84.95L151.922 84.8609L151.964 84.7037C152.004 84.5753 152.058 84.4518 152.126 84.3359C152.217 84.1602 152.321 83.9664 152.437 83.7781C152.683 83.3512 153.018 82.982 153.419 82.6955C153.673 82.5296 153.965 82.4291 154.268 82.4029C154.571 82.3767 154.875 82.4255 155.155 82.5451C155.626 82.7508 156.035 83.0771 156.34 83.491C156.837 84.2398 157.157 85.0926 157.273 85.9839C157.52 87.5917 157.628 89.2179 157.595 90.8442L157.593 92.0314L157.603 92.5828C157.622 92.7504 157.652 92.9165 157.695 93.0798C157.879 93.9073 157.958 94.7547 157.931 95.602C157.902 96.4841 157.694 97.3512 157.322 98.1516C156.941 98.9642 156.351 99.6614 155.613 100.172C154.239 101.138 152.863 101.88 151.473 102.672L143.129 107.258C140.345 108.775 137.559 110.287 134.825 111.884C133.463 112.69 132.097 113.488 130.763 114.339C130.113 114.785 129.44 115.206 128.814 115.685L127.88 116.41L127.045 117.239L126.945 117.163L127.753 116.27L128.658 115.487C129.265 114.968 129.916 114.511 130.549 114.026C131.848 113.107 133.162 112.209 134.506 111.36C137.193 109.66 139.922 108.034 142.659 106.427L150.889 101.659C152.241 100.858 153.63 100.032 154.846 99.1689C155.413 98.7523 155.872 98.2066 156.185 97.5772C156.498 96.9478 156.656 96.2527 156.647 95.5497C156.666 94.8098 156.591 94.0705 156.426 93.3489C156.369 93.1282 156.33 92.9035 156.307 92.6768C156.294 92.4423 156.291 92.2413 156.29 92.0394L156.287 90.8476C156.311 89.3009 156.203 87.7549 155.964 86.2266C155.871 85.5416 155.64 84.8826 155.285 84.2892C155.122 84.0597 154.903 83.8747 154.65 83.7512C154.567 83.7077 154.474 83.6876 154.38 83.693C154.286 83.6984 154.196 83.7292 154.119 83.782C153.876 83.9633 153.673 84.1919 153.521 84.454C153.427 84.6021 153.341 84.7561 153.248 84.9315C153.208 85.0022 153.113 85.1789 153.166 85.103L153.166 85.0885L153.159 85.147L153.144 85.2637C153.08 85.9753 153.08 86.7971 153.063 87.5798C153.033 89.1675 153.018 90.7623 152.842 92.39C152.78 93.2594 152.54 94.1066 152.135 94.8783C151.705 95.6609 151.09 96.3264 150.344 96.8167C150.229 96.8847 150.109 96.9431 149.985 96.9913C149.792 97.0757 149.576 97.0967 149.37 97.0513C149.273 97.0297 149.181 96.9861 149.103 96.9237C149.025 96.8614 148.962 96.782 148.919 96.6915C148.876 96.6233 148.851 96.5455 148.846 96.4652C148.84 96.4052 148.837 96.3449 148.838 96.2845C148.84 96.1986 148.854 96.1135 148.881 96.0319L148.933 95.8447C149.036 95.4917 149.116 95.1325 149.173 94.7693C149.304 94.006 149.399 93.2264 149.481 92.4473C149.645 90.8909 149.701 89.325 149.648 87.7609C149.63 86.9978 149.528 86.239 149.343 85.4984C149.296 85.1683 149.161 84.857 148.952 84.5975C148.742 84.3381 148.467 84.1402 148.154 84.025C147.814 83.976 147.467 84.0054 147.14 84.1109C146.813 84.2165 146.515 84.3953 146.268 84.6339C145.733 85.1383 145.4 85.8189 145.328 86.5502C145.113 88.1102 145.004 89.683 145.002 91.2578C145.035 92.8665 144.845 94.472 144.438 96.0287C144.168 96.8014 143.762 97.5198 143.24 98.1504C142.982 98.4689 142.691 98.76 142.373 99.0191C142.211 99.1521 142.038 99.2715 141.856 99.3761C141.751 99.4366 141.638 99.4825 141.521 99.5126C141.461 99.524 141.399 99.5211 141.341 99.5042C141.158 99.3914 141.21 99.3434 141.178 99.2872C141.169 99.2235 141.165 99.159 141.168 99.0946C141.354 97.4561 141.778 95.9525 142.03 94.3894C142.103 94.0141 142.144 93.6332 142.151 93.2509C142.152 92.8619 142.132 92.4732 142.09 92.0864C142.008 91.3235 141.817 90.5763 141.523 89.8674C141.223 89.1617 140.839 88.4949 140.379 87.8816C140.159 87.6248 139.895 87.3346 139.685 87.3192C139.515 87.2844 139.296 87.4447 139.121 87.7444C138.784 88.3939 138.586 89.1061 138.538 89.8361C138.463 90.5834 138.502 91.3378 138.655 92.0733C138.879 93.7202 138.759 95.3957 138.304 96.9942C138.11 97.7842 137.872 98.563 137.593 99.3271C137.448 99.7362 137.275 100.135 137.075 100.52C137.008 100.63 136.919 100.725 136.813 100.799C136.689 100.88 136.542 100.918 136.395 100.906C136.308 100.897 136.224 100.872 136.146 100.833C136.096 100.804 136.05 100.77 136.007 100.732C135.868 100.592 135.768 100.417 135.718 100.225C135.655 100.007 135.607 99.7856 135.574 99.5613C135.393 97.9639 135.319 96.3561 135.353 94.7488C135.343 93.278 134.835 91.8541 133.911 90.7096C133.801 90.5892 133.679 90.4813 133.545 90.3877C133.485 90.3438 133.42 90.3049 133.353 90.2714C133.278 90.2299 133.331 90.2666 133.351 90.2507C133.429 90.2282 133.342 90.2472 133.272 90.3759C133.191 90.5148 133.124 90.6619 133.074 90.8147C132.856 91.5384 132.715 92.283 132.653 93.0361C132.507 94.5924 132.467 96.1569 132.534 97.7186C132.607 98.5318 132.608 99.3498 132.537 100.163C132.503 100.638 132.327 101.09 132.031 101.463C131.929 101.574 131.804 101.66 131.664 101.715C131.523 101.77 131.373 101.793 131.223 101.781C130.959 101.754 130.708 101.655 130.496 101.497L130.542 101.526C130.163 101.365 129.794 101.163 129.406 101.032C129.019 100.901 128.619 100.814 128.213 100.771C127.4 100.66 126.572 100.818 125.858 101.222C125.13 101.639 124.503 102.21 124.019 102.894C123.512 103.582 123.104 104.337 122.806 105.137L122.686 105.101Z" fill="#155BD5"/>
<path d="M128.865 100.8L123.248 92.985L153.487 74.2271L164.301 83.063L156.994 87.877L156.647 87.3521L163.239 83.008L153.437 74.998L124.153 93.165L129.376 100.433L128.865 100.8Z" fill="#155BD5"/>
<path d="M130.649 88.7648C131.048 87.4676 131.578 86.2144 132.23 85.0245C132.869 83.8104 133.638 82.6698 134.525 81.6233C134.998 81.0694 135.549 80.5871 136.161 80.1918C136.527 79.9594 136.945 79.8243 137.378 79.7993C137.632 79.7931 137.884 79.8479 138.113 79.9592C138.311 80.0657 138.487 80.2087 138.632 80.3808C138.918 80.6463 139.143 80.9698 139.293 81.3297C139.443 81.6897 139.514 82.0776 139.502 82.4673C139.442 82.8318 139.288 83.1742 139.054 83.4604C138.821 83.7466 138.516 83.9666 138.171 84.0983C138.404 83.8937 138.589 83.6403 138.712 83.3561C138.835 83.0718 138.894 82.7639 138.884 82.4543C138.758 81.8985 138.426 81.4114 137.955 81.0917C137.89 81.0203 137.809 80.9656 137.719 80.9323C137.628 80.899 137.531 80.8881 137.436 80.9006C137.201 80.9483 136.981 81.0516 136.794 81.2017C136.299 81.5602 135.853 81.9817 135.468 82.4554C134.617 83.41 133.849 84.4843 133.059 85.5457C132.277 86.6172 131.498 87.7007 130.649 88.7648ZM84.4822 263.776C84.3689 263.367 73.1423 222.905 71.3499 217.899L71.9426 217.686C73.7424 222.715 84.9753 263.199 85.0886 263.608L84.4822 263.776ZM17.9456 327.654C17.6631 328.904 17.2983 330.128 16.9124 331.345C16.5266 332.563 16.0764 333.758 15.6328 334.956C15.1423 336.136 14.6572 337.321 14.0754 338.465C13.7808 339.035 13.4724 339.599 13.1289 340.145C12.9505 340.415 12.7581 340.676 12.5525 340.926C12.3669 341.198 12.0865 341.392 11.7661 341.468C12.3401 341.198 12.5718 340.533 12.8606 339.993C13.1426 339.428 13.3982 338.849 13.636 338.262C14.1199 337.091 14.6057 335.918 15.0479 334.726L16.4592 331.181C16.9387 330.002 17.4172 328.821 17.9456 327.654ZM33.1829 338.622C32.9279 339.696 32.5784 340.745 32.1384 341.757C31.9228 342.259 31.7041 342.759 31.47 343.251C31.2517 343.752 30.9722 344.22 30.795 344.748C30.7609 344.184 30.8337 343.618 31.0093 343.081C31.1599 342.548 31.3433 342.024 31.5584 341.514C31.9767 340.486 32.5225 339.514 33.1829 338.622V338.622Z" fill="#155BD5"/>
<path d="M68.5237 375.515C67.4766 373.478 65.6809 371.926 63.5137 371.185C51.4437 366.805 37.1236 348.275 33.1837 344.745C29.0037 341.005 24.9037 347.815 19.4737 349.165C14.0537 350.525 14.7137 342.605 10.4036 341.685C6.10359 340.765 3.38358 358.235 3.38358 358.235L0.663574 363.665C3.61357 365.935 11.7637 368.875 11.7637 368.875L14.8535 367.065C36.9736 381.795 62.9636 383.605 62.9636 383.605C69.8438 381.695 69.8438 378.205 68.5237 375.515ZM12.0635 363.955C11.1805 363.646 10.3216 363.271 9.49371 362.835C7.84331 361.971 6.32187 360.881 4.97369 359.595C6.68492 360.276 8.35157 361.065 9.96371 361.955L12.3636 363.235C13.1563 363.684 13.9902 364.055 14.8536 364.345C13.9057 364.443 12.9484 364.309 12.0635 363.955V363.955ZM45.2935 362.625C44.7037 362.965 44.1236 363.225 43.5538 363.505C42.9837 363.785 42.4236 364.065 41.8736 364.355C40.7537 364.915 39.6837 365.535 38.4937 366.155C38.8172 365.561 39.2478 365.032 39.7637 364.595C40.2628 364.149 40.8174 363.769 41.4136 363.465C42.6003 362.821 43.9465 362.53 45.2935 362.625H45.2935ZM41.8936 358.235C40.3654 358.766 38.892 359.442 37.4937 360.255C36.0738 361.035 34.7037 361.885 33.1837 362.625C33.6911 361.953 34.2788 361.345 34.9337 360.815C35.5815 360.276 36.2778 359.797 37.0137 359.385C37.7525 358.97 38.5379 358.645 39.3536 358.415C40.1762 358.166 41.0441 358.105 41.8936 358.235V358.235ZM32.1636 354.805C33.1566 354.363 34.1875 354.012 35.2437 353.755C36.3032 353.449 37.4253 353.432 38.4937 353.705C37.4503 353.824 36.4297 354.093 35.4637 354.505C34.4937 354.885 33.5338 355.285 32.5738 355.725C30.6436 356.565 28.7437 357.475 26.7137 358.235C28.3536 356.833 30.1896 355.677 32.1636 354.805V354.805ZM60.2137 378.435C59.2935 378.365 58.3636 378.325 57.4537 378.195C55.6336 377.955 53.8038 377.735 51.9937 377.355C44.7254 375.994 37.6902 373.596 31.1035 370.235C29.4536 369.405 27.8438 368.495 26.2637 367.545C24.6955 366.582 23.1831 365.53 21.7337 364.395C24.8548 366.316 28.0946 368.036 31.4337 369.545C38.0863 372.587 45.0279 374.952 52.1537 376.605C55.7037 377.475 59.3239 378.025 62.9637 378.595C62.0435 378.555 61.1236 378.495 60.2137 378.435V378.435ZM106.448 344.734C106.933 346.563 107.303 348.421 107.556 350.296C107.838 352.167 108 354.054 108.043 355.946C107.556 354.117 107.186 352.26 106.934 350.384C106.654 348.513 106.492 346.626 106.448 344.734ZM123.862 343.904C124.28 345.602 124.556 347.304 124.863 348.998C125.008 349.846 125.165 350.689 125.342 351.525C125.43 351.94 125.539 352.35 125.668 352.754C125.728 352.955 125.81 353.148 125.912 353.33C125.953 353.424 126.02 353.506 126.105 353.564C126.189 353.622 126.289 353.656 126.392 353.661C126.279 353.688 126.16 353.682 126.051 353.641C125.942 353.6 125.848 353.528 125.781 353.433C125.629 353.264 125.497 353.079 125.387 352.88C125.179 352.488 125.005 352.079 124.869 351.656C124.6 350.822 124.391 349.971 124.243 349.108C123.934 347.391 123.807 345.647 123.862 343.904V343.904Z" fill="#155BD5"/>
<path d="M154.033 364.395C152.094 363.915 150.283 363.435 148.603 362.955C147.19 364.891 145.264 366.394 143.043 367.295C143.722 366.313 144.556 365.448 145.513 364.735C146.443 363.983 147.486 363.383 148.603 362.955C146.233 362.285 144.123 361.625 142.233 360.985C141.421 362.102 140.455 363.099 139.363 363.945C138.298 364.828 137.117 365.562 135.853 366.125C136.678 365.018 137.646 364.026 138.733 363.175C139.793 362.287 140.971 361.55 142.233 360.985C130.683 357.065 127.353 353.815 126.393 353.665C126.393 353.665 121.623 363.645 108.043 355.945C109.063 354.745 102.094 359.315 104.153 366.155C105.371 370.066 105.371 374.254 104.153 378.165H115.643C115.643 378.165 117.033 369.785 123.863 373.635L129.563 378.165C129.563 378.165 158.284 380.215 169.504 375.385C166.237 376.155 162.889 376.527 159.534 376.495C156.183 376.555 152.833 376.435 149.494 376.265C146.153 376.055 142.824 375.805 139.504 375.425C136.173 375.065 132.863 374.655 129.563 374.085C132.903 374.245 136.234 374.465 139.563 374.665L149.554 375.265C152.883 375.455 156.203 375.605 159.534 375.725C161.194 375.765 162.863 375.795 164.524 375.745C166.19 375.745 167.854 375.625 169.504 375.385C171.003 374.849 172.316 373.89 173.284 372.625C173.284 372.625 175.324 369.645 154.033 364.395ZM111.853 373.135C111.083 373.144 110.314 373.087 109.553 372.965C108.032 372.742 106.554 372.283 105.173 371.605C106.695 371.591 108.214 371.715 109.713 371.975C110.453 372.095 111.183 372.215 111.923 372.365C112.663 372.495 113.383 372.645 114.163 372.725C113.431 373.024 112.644 373.164 111.853 373.135V373.135ZM131.973 360.855C130.962 361.608 129.842 362.205 128.653 362.625C129.432 361.636 130.351 360.766 131.383 360.045C132.395 359.298 133.51 358.702 134.693 358.275C133.924 359.269 133.007 360.14 131.973 360.855V360.855ZM79.9521 30.514C80.2923 29.4816 80.6887 28.4686 81.1396 27.4795L81.7671 26.0072C81.9853 25.5184 82.1368 25.0024 82.2175 24.4731C82.3799 25.0191 82.3867 25.5996 82.2371 26.1491C82.1126 26.691 81.9383 27.2202 81.7166 27.7301C81.2821 28.747 80.6863 29.6871 79.9521 30.514V30.514Z" fill="#155BD5"/>
<path d="M92.3364 20.8489C92.3364 20.8489 83.852 27.0839 81.8267 26.6093C81.8267 26.6093 79.9525 15.7141 82.2426 11.4855C83.6624 8.86368 86.2954 -1.20028 101.549 0.611906C116.802 2.4241 117.859 17.2244 117.859 17.2244C116.469 17.4427 115.007 17.6237 113.479 17.753C109.254 18.1088 105.003 18.0329 100.793 17.5264C100.793 17.5264 97.32 12.3917 93.5444 16.6203C92.7559 17.8899 92.3375 19.3544 92.3364 20.8489V20.8489Z" fill="#155BD5"/>
<path d="M117.859 17.2241C117.548 19.2485 117.165 21.2649 116.938 23.2839C116.857 23.7449 116.838 24.2145 116.881 24.6805C117.037 25.1306 117.249 25.5593 117.512 25.9565C118.035 26.8088 118.639 27.6309 119.203 28.51C119.519 28.9701 119.778 29.4672 119.974 29.9902C120.037 30.179 120.063 30.3785 120.049 30.5772C120.018 30.7987 119.932 31.0088 119.799 31.1884C119.565 31.4623 119.26 31.666 118.917 31.7767C118.639 31.8791 118.379 31.9436 118.153 32.0137C117.943 32.0616 117.699 32.2087 117.792 32.1499C117.813 32.1176 117.827 32.0811 117.833 32.0429C117.831 31.988 117.825 32.0968 117.818 32.139L117.794 32.3051C117.757 32.4567 117.724 32.5927 117.684 32.7251C117.607 32.9849 117.523 33.2383 117.434 33.4853C116.708 35.454 115.751 37.3294 114.582 39.0721C113.422 40.8989 111.825 42.4076 109.935 43.4615C108.918 43.9107 107.808 44.1138 106.698 44.0544C105.587 43.995 104.506 43.6747 103.542 43.1195C103.076 42.8541 102.641 42.5359 102.248 42.1713L101.064 41.1552L100.474 40.6481C100.243 40.4648 100.145 40.3374 99.9833 40.2955C99.5683 40.2082 99.1356 40.2892 98.7802 40.5208C97.9168 41.0087 97.1599 41.6646 96.5541 42.4498C95.9156 43.2422 95.3697 44.1049 94.9269 45.0211C95.2486 44.0388 95.7061 43.1064 96.2863 42.251C96.8563 41.3549 97.6017 40.5835 98.4777 39.9831C98.7234 39.8074 99.0028 39.6844 99.2983 39.6218C99.5939 39.5592 99.8992 39.5584 100.195 39.6195C100.362 39.6623 100.518 39.7403 100.653 39.8484C100.805 39.9539 100.868 40.0096 100.98 40.0927L101.581 40.552L102.78 41.469C103.693 42.2287 104.8 42.7169 105.976 42.8781C107.153 43.0393 108.35 42.8669 109.434 42.3806C111.106 41.3895 112.516 40.0109 113.544 38.3611C114.668 36.7098 115.599 34.9354 116.32 33.0724C116.411 32.8408 116.494 32.6108 116.57 32.3825L116.665 32.0634L116.67 32.0402C116.675 32.0194 116.677 32.0649 116.688 31.9472C116.7 31.7806 116.76 31.6211 116.86 31.487C117.001 31.3032 117.19 31.1625 117.407 31.0806C117.548 31.0231 117.692 30.9749 117.84 30.9364C118.104 30.864 118.343 30.8102 118.547 30.7414C118.696 30.7014 118.833 30.6276 118.949 30.5257C118.968 30.4985 118.982 30.4685 118.991 30.4367C118.986 30.38 118.976 30.3238 118.962 30.2687C118.815 29.8272 118.619 29.4038 118.377 29.0064C117.885 28.1333 117.322 27.271 116.825 26.3501C116.549 25.8765 116.337 25.3687 116.194 24.8396C116.15 24.2856 116.197 23.7282 116.332 23.1894C116.769 21.1709 117.271 19.1903 117.859 17.2241ZM92.3361 20.8486C92.4768 21.7712 92.8723 22.6361 93.4779 23.3461C93.7856 23.6654 94.1603 23.9124 94.5751 24.0692C95.0257 24.2399 95.4891 24.375 95.9609 24.4731C95.7133 24.5323 95.4622 24.5757 95.2091 24.603C94.9491 24.6131 94.6887 24.5918 94.4338 24.5396C93.8977 24.4397 93.4061 24.1757 93.0268 23.7841C92.668 23.3961 92.4158 22.9218 92.2947 22.4073C92.1737 21.8929 92.1879 21.3559 92.3361 20.8486Z" fill="#155BD5"/>
<path d="M100.793 17.5264C102.161 17.8309 103.508 18.2012 104.852 18.5814C106.196 18.9601 107.522 19.3927 108.858 19.7958C110.179 20.2473 111.508 20.673 112.82 21.1488C114.133 21.6251 115.442 22.1108 116.73 22.6633C115.362 22.3597 114.016 21.9892 112.672 21.6095C111.328 21.2291 110.001 20.7986 108.666 20.394C107.345 19.9409 106.016 19.5173 104.704 19.0399C103.391 18.564 102.082 18.078 100.793 17.5264ZM111.063 25.1152C111.308 25.1067 111.539 25.0036 111.71 24.8275C111.88 24.6514 111.975 24.4162 111.975 24.1714C111.975 23.9266 111.88 23.6913 111.71 23.5152C111.539 23.3391 111.308 23.236 111.063 23.2275C110.818 23.236 110.587 23.3391 110.417 23.5152C110.246 23.6913 110.151 23.9266 110.151 24.1714C110.151 24.4162 110.246 24.6514 110.417 24.8275C110.587 25.0036 110.818 25.1067 111.063 25.1152V25.1152Z" fill="#155BD5"/>
<path d="M115.295 20.58L112.875 28.7344L114.685 29.2716L117.105 21.1172L115.295 20.58Z" fill="#155BD5"/>
<path d="M97.9619 36.5548C96.5105 35.4044 95.5146 33.7762 95.1516 31.9601C94.958 31.0543 94.9351 30.1203 95.0842 29.2061C95.2232 28.3042 95.52 27.4338 95.9609 26.6348C95.7566 27.4958 95.6267 28.3728 95.5724 29.2561C95.5196 30.1196 95.5851 30.9863 95.7673 31.832C95.9381 32.6821 96.2148 33.5075 96.5908 34.2888C96.9703 35.0884 97.4297 35.8476 97.9619 36.5548V36.5548ZM95.0107 19.4919C95.2445 19.6016 95.4455 19.7706 95.5937 19.9822C95.6711 20.1306 95.7297 20.2765 95.593 20.3973C95.4538 20.5179 95.1354 20.6153 95.0615 20.7442C94.977 20.8718 95.0615 21.0211 95.2195 21.1799C95.3653 21.3005 95.4758 21.4581 95.5393 21.6363C95.6068 21.7665 95.6287 21.9155 95.6015 22.0596C95.4778 22.3206 95.2282 22.5653 94.5903 22.76L94.403 22.7359C93.8352 22.3861 93.6557 22.0861 93.6021 21.8024C93.6123 21.6561 93.6712 21.5174 93.7695 21.4086C93.876 21.2523 94.0228 21.1277 94.1943 21.048C94.3874 20.9344 94.5068 20.8113 94.4575 20.6665C94.4187 20.5231 94.1353 20.3483 94.0312 20.1964C93.9294 20.0449 94.0229 19.9184 94.1355 19.7945C94.3324 19.6274 94.5695 19.5147 94.8235 19.4678L95.0107 19.4919Z" fill="#155BD5"/>
<path d="M94.5492 21.1486C93.4563 23.8171 92.9044 26.6761 92.9257 29.5596C92.947 32.4432 93.541 35.2938 94.6732 37.9458C95.9481 40.5931 97.5562 43.0737 99.0257 45.6032C99.7735 46.8599 100.513 48.1199 101.327 49.3082C101.717 49.8951 102.138 50.4611 102.588 51.004C102.796 51.2513 103.023 51.4826 103.266 51.6958C103.421 51.8378 103.607 51.9407 103.809 51.9958L103.421 52.1598C103.921 51.6328 104.328 51.0242 104.623 50.3604C104.936 49.6515 105.161 48.9073 105.295 48.1441C105.444 47.3631 105.516 46.5694 105.511 45.7744C105.514 45.373 105.493 44.9696 105.486 44.5628L105.381 43.3431L105.503 43.3154C105.769 44.1031 105.967 44.9116 106.098 45.7325C106.214 46.5695 106.249 47.4159 106.201 48.2596C106.135 49.1209 105.955 49.9697 105.665 50.7836C105.376 51.651 104.905 52.4466 104.283 53.1171L104.127 53.2773L103.894 53.2811C103.364 53.2757 102.852 53.0853 102.448 52.7428C102.123 52.4897 101.828 52.201 101.569 51.8821C101.075 51.2977 100.629 50.6754 100.233 50.0211C99.4505 48.7411 98.7349 47.4453 98.0735 46.1236C96.7339 43.4898 95.689 40.7244 94.326 38.1198C93.0137 35.4997 91.7806 32.633 91.7996 29.5637C91.79 28.0474 92.0083 26.5384 92.4473 25.0871C92.8575 23.6384 93.5348 22.279 94.4444 21.0791L94.5492 21.1486Z" fill="#155BD5"/>
<path d="M103.914 52.6389C104.37 57.8795 104.736 63.0986 104.926 68.3344C104.99 70.9537 105.002 73.5821 105.226 76.1945C105.31 77.503 105.516 78.7998 105.654 80.1025C105.838 81.4005 106.054 82.6941 106.267 83.9864C106.756 86.5414 107.154 89.1948 107.7 91.6564C108.003 92.8444 108.547 93.9574 109.298 94.9267C110.049 95.8959 110.991 96.7007 112.066 97.2913C114.322 98.434 116.83 98.9867 119.358 98.8976C121.953 98.78 124.527 98.3697 127.031 97.6743L127.068 97.7945C124.632 98.8707 122.046 99.5702 119.4 99.869C116.665 100.142 113.908 99.6536 111.433 98.4581C110.184 97.7991 109.094 96.874 108.242 95.7483C107.422 94.6122 106.838 93.3241 106.522 91.9594C106.216 90.5906 106.103 89.3296 105.918 88.0107C105.746 86.7058 105.632 85.394 105.511 84.0843C105.307 81.4603 105.091 78.8437 104.832 76.2311C104.566 73.6196 104.18 71.0156 103.909 68.3989C103.648 65.7819 103.559 63.1529 103.531 60.5248C103.524 57.8958 103.56 55.2655 103.789 52.6387L103.914 52.6389ZM115.451 36.8773C114.146 36.9261 112.851 36.6374 111.69 36.0392C111.087 35.7428 110.559 35.3127 110.147 34.7817C109.731 34.2504 109.534 33.5796 109.598 32.9077C109.789 33.4823 110.101 34.0094 110.512 34.4536C110.924 34.8977 111.425 35.2487 111.984 35.4829C113.105 36.0289 114.263 36.4949 115.451 36.8773V36.8773ZM86.232 67.911C86.4672 68.1457 86.6452 68.4315 86.752 68.7462C86.8841 69.0369 86.9931 69.3375 87.0779 69.6454C87.2744 70.2501 87.4358 70.8657 87.5613 71.489C87.8719 72.7237 88.011 73.9848 88.2439 75.2337L88.71 79.0084L89.0445 82.7948C89.2681 85.3204 89.3455 87.8516 89.5032 90.3809L89.7644 97.9739C89.8343 103.037 89.9124 108.102 89.8523 113.163L89.7989 120.757L89.6019 128.348C89.5247 130.877 89.4849 133.409 89.377 135.937L89.0362 143.521C88.8265 148.578 88.5479 153.631 88.2601 158.683L86.6763 189.002L86.6693 189.139L86.5508 189.194C84.0397 190.342 81.3547 191.064 78.6063 191.329C75.8474 191.61 73.0602 191.344 70.4041 190.547C69.7325 190.375 69.0781 190.142 68.4493 189.85C67.7979 189.613 67.1678 189.32 66.5657 188.976L64.7647 187.933C64.1979 187.537 63.6622 187.095 63.1095 186.677L62.2862 186.041C62.0238 185.816 61.7923 185.558 61.5438 185.317L60.0772 183.846C59.1561 182.818 58.358 181.685 57.4925 180.607L57.4132 180.508L57.4068 180.343C57.0267 170.601 56.8458 160.857 56.6881 151.112C56.5282 141.366 56.5614 131.618 56.6566 121.87C56.7811 112.122 57.1288 102.378 57.6998 92.6386C58.0094 87.7719 58.3802 82.9066 58.9652 78.0601C59.2674 75.6385 59.6429 73.2232 60.1444 70.8312C60.387 69.6323 60.6929 68.447 61.0609 67.2803C61.3846 66.0905 61.9379 64.9754 62.6898 63.998L62.7818 64.0837C62.0782 65.066 61.5725 66.1759 61.2928 67.3514C60.9649 68.5194 60.6993 69.704 60.4969 70.9002C60.0699 73.291 59.7886 75.7071 59.5433 78.1254C59.043 82.9623 58.7562 87.8223 58.5301 92.6829C58.0882 102.407 58.0059 112.146 57.9273 121.882C57.8309 131.619 57.9219 141.358 57.9769 151.097C58.0418 160.836 58.2198 170.577 58.3995 180.312L58.3138 180.048C59.136 181.103 59.8929 182.219 60.7681 183.229L62.1621 184.673C62.3982 184.909 62.6179 185.165 62.8677 185.386L63.6509 186.01C64.1768 186.42 64.6861 186.857 65.2261 187.248L66.9429 188.279C67.5167 188.62 68.1187 188.912 68.7425 189.15C69.3435 189.442 69.9706 189.677 70.6154 189.852C73.1782 190.668 75.8764 190.971 78.5562 190.745C81.2439 190.539 83.8768 189.876 86.3413 188.783L86.216 188.975C86.7939 178.874 87.3764 168.772 87.698 158.659C87.8764 153.603 88.0442 148.547 88.1496 143.49L88.5126 128.321C88.7475 118.21 88.9176 108.099 88.8339 97.9889L88.726 90.4084C88.6196 87.8856 88.5932 85.3553 88.4211 82.8365L88.1987 79.0545L87.8627 75.2824C87.6737 74.0381 87.5776 72.7719 87.3117 71.5414C87.2086 70.9207 87.0698 70.3065 86.896 69.7017C86.8232 69.397 86.7266 69.0985 86.6069 68.809L86.4272 68.3773C86.3553 68.2515 86.2712 68.1332 86.1762 68.0239L86.232 67.911Z" fill="#155BD5"/>
</svg>
