<svg width="1876" height="1079" viewBox="0 0 1876 1079" fill="none" xmlns="http://www.w3.org/2000/svg">
<path d="M1715.69 622.38C1713.36 619.34 1711.33 616.13 1709.29 612.88C1670.04 551.175 1498.54 580.42 1498.54 580.42C1479.15 729.18 1445.4 711.65 1439.15 702.3C1432.9 692.94 1421.62 601.06 1414.15 588.56C1392.58 586.67 1348.51 586.99 1348.51 586.99C1305.97 587.99 1265.97 625.41 1226.62 686.37C1187.26 747.29 1117.87 798.85 1117.87 798.85C1117.87 798.85 1138.47 800.75 1145.97 845.74C1150.58 847.17 1164.4 841.06 1174.47 836.13C1183.46 831.74 1193.48 829.9 1203.44 830.81C1219.65 832.31 1242.97 837.49 1261.62 855.13C1263.91 857.27 1266.34 859.25 1268.9 861.06C1271.26 859.74 1272.58 858.84 1272.58 858.84C1311.01 842.92 1333.51 787.61 1333.51 787.61C1330.39 780.65 1328.58 773.18 1328.15 765.57C1327.54 758 1327.65 750.38 1328.47 742.83C1329.29 735.43 1329.87 728.11 1330.08 720.76C1330.45 713.34 1330.13 705.9 1329.12 698.55C1332.18 705.53 1333.92 713.03 1334.26 720.65C1334.78 728.22 1334.63 735.82 1333.79 743.36C1332.97 750.72 1332.51 758.04 1332.33 765.43C1332.07 772.84 1332.46 780.26 1333.51 787.61C1335.66 807.34 1340.33 826.72 1347.4 845.28C1357.55 848.64 1368.03 850.95 1378.65 852.17C1383.88 852.76 1389.15 852.93 1394.4 852.67C1399.78 852.37 1405.15 851.8 1410.47 850.95C1405.67 853.83 1400.38 855.82 1394.87 856.81C1392.11 857.34 1389.31 857.68 1386.51 857.81C1383.7 857.85 1380.88 857.74 1378.08 857.49C1372.51 856.88 1367.03 855.56 1361.79 853.56C1356.57 851.62 1351.71 848.82 1347.4 845.28C1350.41 853.53 1354.4 861.4 1359.29 868.7C1385.78 870.23 1411.75 876.73 1435.83 887.88C1441.94 890.7 1447.54 894.48 1453.19 897.27C1458.93 900.13 1464.95 902.42 1471.15 904.09C1483.64 907.49 1496.5 909.31 1509.44 909.52C1516.01 909.73 1522.26 909.37 1529.04 909.16C1535.71 909.08 1542.38 909.41 1549.01 910.12C1562.15 911.48 1575.26 912.98 1588.26 915.27C1593.22 916.12 1598.15 917.05 1603.08 918.01C1600.8 914.91 1598.83 911.59 1597.22 908.09C1594.71 902.81 1592.83 897.27 1591.62 891.55C1590.37 885.85 1589.61 880.04 1589.37 874.2C1589.04 868.31 1589.27 862.41 1590.04 856.56L1590.08 856.38L1590.15 856.13C1592.11 849.79 1593.32 843.25 1593.76 836.63C1594.31 829.92 1594.38 823.18 1593.97 816.46C1593.51 809.73 1592.69 803.03 1591.51 796.39C1590.22 789.85 1588.51 783.03 1587.58 776.14C1585.71 762.41 1585.28 748.51 1586.29 734.68C1586.65 727.79 1587.37 720.9 1588.4 714.12C1589.35 707.31 1590.65 700.55 1592.29 693.87C1590.6 707.45 1589.67 721.11 1589.51 734.79C1589.31 748.37 1590.3 761.95 1592.47 775.36C1592.94 778.71 1593.76 782 1594.44 785.28L1596.65 795.43C1597.97 802.28 1598.84 809.21 1599.26 816.17C1600.31 830.13 1598.7 844.17 1594.51 857.52C1593.62 863.01 1593.17 868.57 1593.15 874.13C1593.11 879.79 1593.55 885.44 1594.47 891.02C1595.37 896.62 1596.81 902.12 1598.76 907.45C1600.13 911.19 1601.87 914.79 1603.94 918.19C1611.69 919.76 1619.37 921.55 1626.97 923.66C1639.76 927 1652.06 932.01 1663.54 938.55C1651.68 932.96 1639.18 928.82 1626.33 926.19C1619.72 924.66 1613.07 923.32 1606.37 922.19C1606.35 922.17 1606.32 922.16 1606.29 922.16C1600.12 921.09 1593.9 920.16 1587.65 919.34C1574.65 917.66 1561.62 916.19 1548.58 915.16C1542.12 914.55 1535.64 914.3 1529.15 914.41C1522.83 914.62 1515.9 915.09 1509.33 914.87C1495.94 914.6 1482.64 912.61 1469.76 908.94C1463.29 907.05 1457.03 904.54 1451.04 901.45C1448.04 899.98 1445.12 898.02 1442.37 896.41C1439.62 894.73 1436.87 892.98 1433.97 891.55C1422.42 885.49 1410.26 880.68 1397.69 877.2C1385.11 873.43 1372.28 870.59 1359.29 868.7L1329.76 871.52C1330.67 872.78 1331.34 874.2 1331.72 875.7C1339.33 900.3 1328.37 996.68 1328.37 996.68C1370.54 1027.61 1604.01 1075.42 1604.01 1075.42C1754.51 1100.74 1755.9 967.11 1755.9 967.11C1782.83 727.33 1729.9 640.8 1715.69 622.38ZM1527.37 866.81C1524.61 867.34 1521.81 867.67 1519.01 867.81C1516.2 867.84 1513.38 867.74 1510.58 867.49C1505.01 866.88 1499.53 865.56 1494.29 863.56C1489.07 861.61 1484.21 858.81 1479.9 855.27C1490.05 858.64 1500.53 860.95 1511.15 862.17C1516.38 862.76 1521.65 862.93 1526.9 862.67C1532.28 862.37 1537.65 861.79 1542.97 860.95C1538.17 863.83 1532.88 865.81 1527.37 866.81Z" fill="#155BD5"/>
<path d="M1413.84 588.73C1412.81 587.18 1411.67 585.71 1410.42 584.33C1409.17 582.98 1407.8 581.74 1406.33 580.63C1404.87 579.55 1403.29 578.64 1401.63 577.91C1400.02 577.19 1398.32 576.73 1396.57 576.54L1397.13 576.43C1393.54 578.16 1389.75 579.42 1385.85 580.2C1381.89 581.05 1377.81 581.19 1373.8 580.59C1369.63 579.98 1365.71 578.26 1362.43 575.63C1359.41 572.93 1356.76 569.84 1354.56 566.45C1350.25 559.91 1346.41 553.078 1343.09 545.993C1339.73 538.957 1336.72 531.844 1333.91 524.536L1336.79 526.442C1333.47 526.78 1330.11 526.27 1327.03 524.959C1325.24 524.118 1323.73 522.778 1322.68 521.1C1321.71 519.479 1321.13 517.654 1320.99 515.771C1320.82 512.543 1321.28 509.312 1322.34 506.259C1323.27 503.345 1324.5 500.535 1326.01 497.873C1328.83 493.743 1330.15 488.772 1329.76 483.785C1329.54 481.358 1328.87 478.992 1327.79 476.805L1325.84 473.161C1325.17 471.869 1324.52 470.555 1323.91 469.211C1322.64 466.522 1321.64 463.721 1320.9 460.843C1320.09 458.041 1319.44 455.197 1318.95 452.324C1318.33 449.474 1318.13 446.552 1317.77 443.664C1317.66 440.749 1317.48 437.84 1317.64 434.928C1317.88 423.218 1320.75 411.712 1326.03 401.256C1326.21 400.904 1326.49 400.611 1326.83 400.412C1327.18 400.213 1327.57 400.115 1327.96 400.13C1328.36 400.145 1328.75 400.273 1329.07 400.498C1329.4 400.723 1329.65 401.036 1329.81 401.401L1329.84 401.48C1334.2 411.544 1339.77 421.042 1346.41 429.766C1353.03 438.575 1360.98 446.301 1369.97 452.665C1378.94 459.045 1389.19 463.407 1400 465.449C1410.8 467.44 1421.9 467.143 1432.58 464.577L1432.65 464.559C1432.9 464.502 1433.17 464.518 1433.41 464.605C1433.65 464.691 1433.86 464.845 1434.02 465.049C1438.33 470.978 1441.33 477.755 1442.83 484.93C1444.42 491.939 1445.23 499.103 1445.25 506.29C1445.29 513.444 1444.78 520.589 1443.73 527.665C1442.47 534.382 1442 541.223 1442.32 548.049C1442.64 554.647 1444.42 561.09 1447.54 566.91C1450.65 572.52 1455.41 577.05 1461.16 579.87C1467.03 582.61 1473.52 583.76 1479.97 583.22C1486.59 582.68 1493.06 581.02 1499.11 578.29C1499.69 578.04 1500.33 577.95 1500.96 578.02C1501.59 578.09 1502.19 578.33 1502.7 578.71C1503.21 579.09 1503.61 579.6 1503.86 580.18C1504.11 580.76 1504.21 581.4 1504.13 582.03L1504.12 582.08C1501.5 604.84 1497.42 627.41 1491.92 649.65C1489.06 660.87 1485.31 671.85 1480.7 682.47C1478.33 687.9 1475.42 693.07 1472.02 697.92C1470.24 700.41 1468.21 702.73 1465.98 704.84C1463.67 707.11 1460.94 708.92 1457.96 710.18C1454.76 711.56 1451.22 711.95 1447.8 711.3C1444.41 710.61 1441.3 708.95 1438.83 706.52C1437.52 705.27 1436.47 703.77 1435.74 702.11C1435.17 700.67 1434.68 699.2 1434.28 697.71C1433.48 694.85 1432.87 692.04 1432.27 689.22C1429.91 677.98 1428.29 666.72 1426.5 655.48L1421.21 621.78C1420.3 616.18 1419.35 610.58 1418.25 605.01C1417.36 599.44 1415.88 593.99 1413.84 588.73L1413.81 588.68C1413.78 588.6 1413.77 588.5 1413.8 588.41C1413.83 588.33 1413.9 588.26 1413.98 588.21C1414.06 588.17 1414.16 588.17 1414.24 588.19C1414.33 588.22 1414.41 588.28 1414.45 588.36C1416.94 593.54 1418.81 599 1420.03 604.61C1421.44 610.14 1422.71 615.7 1423.94 621.26C1426.41 632.39 1428.5 643.58 1430.73 654.73C1432.93 665.88 1435.21 677.03 1437.71 688.01C1438.37 690.74 1439.03 693.48 1439.84 696.08C1440.2 697.32 1440.64 698.54 1441.14 699.74C1441.58 700.68 1442.21 701.51 1442.99 702.2C1444.61 703.77 1446.68 704.81 1448.9 705.17C1451.13 705.54 1453.42 705.22 1455.46 704.26C1459.96 701.86 1463.74 698.3 1466.41 693.96C1469.41 689.4 1471.99 684.57 1474.11 679.54C1478.44 669.24 1481.93 658.6 1484.56 647.74C1489.87 625.78 1494.01 603.55 1496.95 581.15L1501.97 584.93C1495.13 587.89 1487.82 589.66 1480.38 590.14C1472.74 590.66 1465.1 589.18 1458.21 585.83C1451.29 582.34 1445.63 576.79 1442.01 569.94C1438.61 563.24 1436.74 555.879 1436.53 548.375C1436.35 541.14 1437.02 533.909 1438.55 526.833C1439.82 520.041 1440.57 513.162 1440.79 506.255C1441.05 499.374 1440.52 492.486 1439.22 485.725C1438.04 479.054 1435.51 472.697 1431.77 467.048L1433.22 467.519C1422.12 469.818 1410.68 469.914 1399.55 467.802C1394 466.72 1388.6 465.006 1383.45 462.694C1378.28 460.447 1373.34 457.708 1368.7 454.514C1359.46 448.079 1351.18 440.351 1344.14 431.567C1336.93 422.861 1330.81 413.307 1325.92 403.117L1329.73 403.341C1325.25 413.284 1323.03 424.095 1323.22 434.998C1323.24 440.439 1323.81 445.863 1324.92 451.189C1325.43 453.857 1326.1 456.494 1326.9 459.089C1327.62 461.656 1328.55 464.159 1329.68 466.571C1330.24 467.789 1330.84 468.996 1331.48 470.198C1332.11 471.431 1332.76 472.484 1333.52 473.998C1334.95 476.871 1335.84 479.981 1336.15 483.174C1336.64 489.524 1334.95 495.85 1331.37 501.117C1328.74 505.374 1327.25 510.245 1327.07 515.25C1327.06 516.152 1327.3 517.04 1327.76 517.812C1328.23 518.584 1328.91 519.208 1329.71 519.614C1331.85 520.503 1334.17 520.859 1336.47 520.653L1336.51 520.651C1337.13 520.624 1337.74 520.795 1338.25 521.138C1338.76 521.482 1339.15 521.98 1339.36 522.561C1341.91 529.693 1344.8 536.823 1347.88 543.788C1350.84 550.774 1354.3 557.537 1358.23 564.03C1360.11 567.17 1362.39 570.06 1365.02 572.62C1367.7 574.93 1370.95 576.48 1374.42 577.12C1381.78 578.29 1389.31 577.35 1396.15 574.41L1396.3 574.35C1396.43 574.3 1396.57 574.28 1396.71 574.3C1398.71 574.61 1400.64 575.24 1402.43 576.18C1404.17 577.06 1405.81 578.14 1407.31 579.4C1408.77 580.66 1410.11 582.06 1411.29 583.59C1412.47 585.1 1413.52 586.69 1414.45 588.36C1414.47 588.4 1414.49 588.45 1414.49 588.5C1414.5 588.54 1414.5 588.59 1414.49 588.63C1414.47 588.68 1414.45 588.72 1414.42 588.76C1414.39 588.8 1414.36 588.83 1414.32 588.85C1414.24 588.89 1414.14 588.9 1414.05 588.88C1413.97 588.86 1413.89 588.81 1413.84 588.73Z" fill="#155BD5"/>
<path d="M1329.31 522.704C1328.58 528.384 1327.82 534.018 1327.22 539.66C1326.67 545.304 1326.12 550.935 1325.95 556.565C1325.67 562.16 1325.91 567.77 1326.64 573.33C1327.01 576.08 1327.75 578.77 1328.84 581.32C1329.87 583.94 1331.57 586.24 1333.78 587.97C1331.17 586.63 1329.01 584.54 1327.58 581.96C1326.16 579.39 1325.12 576.63 1324.46 573.76C1323.24 568.08 1322.77 562.26 1323.06 556.462C1323.3 550.714 1323.96 544.991 1325.03 539.34C1326.04 533.696 1327.47 528.135 1329.31 522.704ZM1327.59 402.505C1326.85 401.222 1326.39 399.803 1326.22 398.334C1326.05 396.865 1326.18 395.378 1326.61 393.962L1327.2 391.836L1328.12 389.866C1328.44 389.215 1328.73 388.536 1329.08 387.902L1330.29 386.115C1331.91 383.73 1333.73 381.498 1335.75 379.447C1337.79 377.462 1339.97 375.632 1342.11 373.731C1351.11 366.921 1360.76 361 1370.91 356.053C1375.98 353.65 1381.1 351.351 1386.21 349.065C1391.39 346.94 1396.6 344.889 1401.82 342.873C1407.05 340.957 1412.36 339.303 1417.65 337.549C1420.32 336.745 1422.9 335.833 1425.75 335.043C1428.52 334.299 1431.33 333.702 1434.16 333.254C1445.41 331.403 1456.92 331.872 1467.98 334.631C1479 337.407 1489.19 342.802 1497.67 350.358C1506.05 358.029 1512.94 367.167 1518.03 377.32C1523.13 387.431 1527.03 398.106 1529.65 409.126L1529.71 409.422C1532.46 424.546 1537.32 439.211 1544.13 452.995C1547.49 459.873 1551.38 466.478 1555.76 472.751C1560.08 479.037 1564.95 484.922 1570.32 490.337L1578.81 498.203C1581.86 500.875 1584.74 503.751 1587.41 506.81C1592.87 512.844 1597.37 519.678 1600.77 527.076C1607.8 541.692 1609.56 558.292 1605.75 574.06C1605.72 574.15 1605.67 574.22 1605.59 574.27C1605.51 574.32 1605.42 574.33 1605.33 574.32C1605.24 574.3 1605.16 574.25 1605.11 574.17C1605.06 574.1 1605.04 574.01 1605.05 573.92V573.88C1606.06 566.18 1605.75 558.368 1604.14 550.774C1602.68 543.252 1600.03 536.01 1596.29 529.32C1594.46 525.994 1592.42 522.787 1590.18 519.717C1587.89 516.691 1585.4 513.816 1582.73 511.113C1580.12 508.346 1577.33 505.76 1574.37 503.372L1565.3 495.517C1553.65 484.262 1544.18 470.939 1537.4 456.227C1534.02 448.942 1531.16 441.428 1528.84 433.739C1526.44 426.046 1524.69 418.163 1523.61 410.175L1523.66 410.47C1521.53 399.749 1518.34 389.264 1514.15 379.169C1509.95 369.058 1503.78 359.88 1496.01 352.166C1492.02 348.436 1487.57 345.221 1482.77 342.598C1477.94 340.034 1472.77 338.155 1467.42 337.016C1456.71 334.881 1445.66 335.144 1435.06 337.787C1432.43 338.394 1429.84 339.139 1427.29 340.019C1424.84 340.881 1422.24 342.004 1419.65 342.988L1404.05 348.824C1398.93 350.887 1393.8 352.914 1388.63 354.869L1373.45 361.394C1363.45 365.879 1353.81 371.125 1344.61 377.085C1342.47 378.721 1340.24 380.305 1338.16 382.028C1336.11 383.771 1334.21 385.671 1332.46 387.711L1331.15 389.247C1330.77 389.789 1330.45 390.365 1330.1 390.926L1329.06 392.631L1328.34 394.463C1327.31 396.891 1327.25 399.622 1328.17 402.092L1328.21 402.167C1328.24 402.248 1328.25 402.34 1328.22 402.425C1328.19 402.51 1328.13 402.58 1328.05 402.623C1327.98 402.666 1327.88 402.677 1327.8 402.655C1327.71 402.633 1327.64 402.579 1327.59 402.504V402.505ZM1336.42 471.499C1341.36 467.948 1346.75 465.068 1352.45 462.936C1355.3 461.841 1358.23 460.963 1361.21 460.309C1364.21 459.549 1367.33 459.405 1370.39 459.886C1367.47 460.517 1364.6 461.384 1361.83 462.478L1353.48 465.634C1347.9 467.731 1342.33 469.892 1336.42 471.499ZM1352.05 491.459C1353.17 491.42 1354.24 490.946 1355.02 490.137C1355.8 489.329 1356.24 488.248 1356.24 487.124C1356.24 485.999 1355.8 484.919 1355.02 484.11C1354.24 483.301 1353.17 482.828 1352.05 482.789C1350.93 482.828 1349.86 483.301 1349.08 484.11C1348.3 484.919 1347.86 485.999 1347.86 487.124C1347.86 488.248 1348.3 489.329 1349.08 490.137C1349.86 490.946 1350.93 491.42 1352.05 491.459ZM1345.06 543.976C1347.23 544.043 1349.41 543.983 1351.57 543.795C1353.69 543.602 1355.77 543.347 1357.84 542.953C1359.9 542.551 1361.96 542.09 1364.03 541.524C1366.1 540.966 1368.18 540.351 1370.39 539.798C1368.74 541.358 1366.87 542.652 1364.82 543.635C1362.77 544.633 1360.6 545.359 1358.36 545.793C1353.85 546.766 1349.14 546.122 1345.06 543.976ZM1328.97 983.88C1318.23 979.92 1307.19 976.85 1295.96 974.67C1284.9 972.42 1273.54 972.06 1262.36 973.6L1258.24 974.29L1254.22 975.39C1251.55 976.13 1248.93 977.03 1246.37 978.09C1241.25 980.29 1236.35 982.96 1231.71 986.05C1226.99 989.15 1222.51 992.69 1217.23 995.75C1211.95 998.72 1206.27 1000.9 1200.36 1002.23C1194.5 1003.62 1188.47 1004.23 1182.45 1004.04C1176.14 1004.04 1169.91 1002.53 1164.31 999.64C1162.76 998.69 1161.38 997.5 1160.23 996.1C1159.19 994.83 1158.55 993.9 1157.65 992.86C1155.94 990.9 1153.98 989.2 1151.8 987.79C1147.01 985.01 1141.95 982.71 1136.7 980.94C1131.04 979.14 1125.61 976.68 1120.52 973.6C1117.95 971.86 1115.68 969.7 1113.83 967.21C1112.91 966.03 1112.1 964.91 1111.22 963.87C1110.79 963.33 1110.33 962.87 1109.87 962.35C1109.37 961.75 1108.79 961.15 1108.36 960.55C1104.95 955.82 1101.82 950.9 1098.98 945.8C1096.11 940.79 1093.26 935.8 1090.52 930.72L1091.36 931.33L1084 929.73C1081.46 929.29 1078.97 928.61 1076.56 927.69C1071.73 925.67 1067.49 922.47 1064.23 918.37C1062.45 916.32 1061.23 913.84 1060.68 911.18C1060.47 909.78 1060.56 908.35 1060.94 906.98C1061.33 905.62 1061.99 904.35 1062.9 903.26C1064.63 901.21 1066.76 899.53 1069.15 898.31C1071.54 897.09 1074.15 896.35 1076.83 896.15C1079.41 896 1082.01 896.1 1084.57 896.46L1092.06 897C1097.05 897.32 1102.05 897.55 1107.05 897.71C1117.04 898.01 1127.04 897.94 1136.97 897.32C1146.83 896.81 1156.63 895.44 1166.25 893.22C1170.9 892.11 1175.41 890.46 1179.67 888.3C1181.67 887.26 1183.54 885.97 1185.21 884.46C1186.9 882.92 1188.43 881.21 1189.78 879.37C1190.92 878.09 1191.62 876.49 1191.8 874.79C1191.74 874.42 1191.69 874.28 1191.21 873.87C1190.51 873.43 1189.75 873.08 1188.94 872.87C1184.48 871.96 1179.88 871.9 1175.39 872.68C1173.1 873 1170.83 873.5 1168.61 874.17C1167.71 874.44 1166.84 874.81 1166.01 875.27L1165.24 875.77C1164.91 876 1164.57 876.19 1164.23 876.38C1163.56 876.75 1162.88 877.08 1162.17 877.37C1159.56 878.42 1156.82 879.13 1154.02 879.49C1152.68 879.68 1151.34 879.82 1150.01 879.91C1148.47 880.05 1146.91 879.99 1145.39 879.74C1142.15 879.19 1139.16 877.68 1136.8 875.4C1134.56 873.15 1132.93 870.36 1132.07 867.3C1130.58 861.43 1131.37 855.21 1134.28 849.89C1135.73 846.93 1138.02 844.46 1140.86 842.8C1141.8 842.29 1142.83 841.96 1143.89 841.81C1144.51 841.73 1145.14 841.73 1145.76 841.8C1146.09 841.83 1146.41 841.89 1146.72 841.97L1147.13 842.08L1147.17 842.07C1147.9 842.14 1148.64 842.1 1149.35 841.93C1153.95 840.88 1158.43 839.37 1162.72 837.44C1164.98 836.48 1167.23 835.47 1169.48 834.42L1172.83 832.83C1174.04 832.26 1175.26 831.72 1176.51 831.21C1181.48 829.21 1186.72 827.93 1192.05 827.38C1197.32 826.91 1202.64 827.09 1207.86 827.93C1212.98 828.63 1218.04 829.66 1223.02 831C1233.05 833.64 1242.59 837.89 1251.26 843.58C1255.56 846.46 1259.59 849.73 1263.29 853.36C1266.87 856.64 1270.69 859.65 1274.73 862.35C1291.94 872.39 1311.82 876.92 1331.69 875.34H1331.72C1331.81 875.33 1331.9 875.36 1331.97 875.42C1332.04 875.48 1332.09 875.57 1332.1 875.66C1332.11 875.75 1332.08 875.84 1332.02 875.92C1331.96 875.99 1331.88 876.04 1331.79 876.05C1311.48 879.17 1290.7 875.62 1272.57 865.95C1268.14 863.27 1263.92 860.24 1259.96 856.89C1249 847.16 1235.75 840.35 1221.45 837.09C1216.7 835.95 1211.89 835.11 1207.04 834.58C1202.32 833.94 1197.55 833.9 1192.83 834.46C1188.17 835 1183.61 836.19 1179.27 837.99C1178.19 838.44 1177.13 838.93 1176.08 839.45L1172.65 841.12C1170.36 842.22 1168.04 843.29 1165.7 844.33C1160.87 846.6 1155.81 848.32 1150.61 849.48C1148.86 849.84 1147.06 849.85 1145.32 849.48L1144.9 849.39C1144.76 849.35 1144.87 849.39 1144.85 849.38H1144.88C1144.9 849.39 1144.91 849.38 1144.88 849.38C1144.7 849.42 1144.52 849.49 1144.36 849.58C1142.91 850.56 1141.75 851.91 1141 853.5C1139.01 857.08 1138.44 861.26 1139.38 865.24C1139.87 867.04 1140.79 868.7 1142.06 870.06C1143.33 871.31 1144.94 872.15 1146.68 872.47C1147.63 872.64 1148.6 872.69 1149.56 872.6C1150.73 872.54 1151.9 872.44 1153.04 872.29C1155.23 872.05 1157.39 871.53 1159.45 870.76C1159.91 870.58 1160.36 870.38 1160.79 870.14C1161 870.03 1161.2 869.92 1161.4 869.79L1162.21 869.28C1163.57 868.49 1165.02 867.88 1166.53 867.45C1169.12 866.7 1171.77 866.16 1174.46 865.83C1179.9 864.97 1185.46 865.18 1190.82 866.44C1192.43 866.91 1193.95 867.66 1195.3 868.65C1196.15 869.31 1196.85 870.12 1197.38 871.06C1197.9 871.99 1198.23 873.02 1198.34 874.08C1198.48 875.91 1198.13 877.75 1197.31 879.39C1196.68 880.75 1195.91 882.02 1194.99 883.19C1193.34 885.37 1191.46 887.37 1189.38 889.15C1187.28 890.95 1184.96 892.48 1182.47 893.7C1177.72 895.96 1172.72 897.65 1167.56 898.74C1157.56 900.8 1147.38 901.87 1137.16 901.94C1127.03 902.15 1116.94 901.81 1106.88 901.17C1101.85 900.84 1096.83 900.42 1091.82 899.92L1084.31 899.12C1081.91 898.75 1079.48 898.61 1077.05 898.71C1074.71 898.86 1072.41 899.46 1070.31 900.5C1068.2 901.53 1066.31 902.97 1064.76 904.73C1064.04 905.56 1063.5 906.54 1063.19 907.59C1062.87 908.64 1062.79 909.75 1062.93 910.84C1063.4 913.12 1064.43 915.24 1065.94 917.01C1068.94 920.83 1072.89 923.79 1077.39 925.6C1079.69 926.45 1082.05 927.07 1084.47 927.45L1091.86 928.89C1092.03 928.93 1092.19 928.99 1092.33 929.09C1092.47 929.19 1092.59 929.32 1092.67 929.47L1092.7 929.51C1098.23 939.48 1104.44 949.05 1111.29 958.17C1111.72 958.72 1112.18 959.13 1112.61 959.62C1113.13 960.15 1113.71 960.69 1114.2 961.26C1115.22 962.37 1116.15 963.53 1117.05 964.59C1118.72 966.66 1120.73 968.42 1122.99 969.81C1127.88 972.46 1133.06 974.53 1138.44 975.98C1144.17 977.63 1149.71 979.9 1154.95 982.76C1157.65 984.41 1160.1 986.44 1162.23 988.78C1163.24 989.87 1164.29 991.28 1165.1 992.21C1165.82 992.99 1166.65 993.67 1167.56 994.21C1172.26 996.51 1177.43 997.68 1182.66 997.63C1188.14 997.8 1193.62 997.29 1198.98 996.11C1204.32 994.97 1209.46 993.06 1214.25 990.44C1218.95 987.77 1223.65 984.35 1228.6 981.23C1233.61 978.05 1238.89 975.34 1244.4 973.13C1247.2 972.11 1250.05 971.25 1252.95 970.57L1257.3 969.58L1261.71 969.02C1273.4 967.82 1285.21 968.71 1296.6 971.62C1307.82 974.46 1318.75 978.34 1329.25 983.22C1329.33 983.25 1329.4 983.32 1329.43 983.41C1329.47 983.49 1329.47 983.59 1329.44 983.67C1329.4 983.76 1329.34 983.83 1329.26 983.87C1329.17 983.91 1329.08 983.91 1328.99 983.88H1328.97Z" fill="#155BD5"/>
<path d="M1091.6 930.11C1098.55 929.51 1105.51 929.23 1112.46 929C1119.42 928.74 1126.37 928.7 1133.33 928.66L1143.76 928.74C1147.34 928.74 1150.91 929.23 1154.36 930.2C1160.97 932.55 1167.41 935.34 1173.64 938.55C1170.28 937.58 1166.99 936.45 1163.67 935.41C1160.46 934.17 1157.17 933.16 1153.83 932.36C1150.52 931.68 1147.14 931.38 1143.76 931.48L1133.33 931.55C1126.37 931.52 1119.42 931.48 1112.46 931.22C1105.51 930.98 1098.55 930.7 1091.6 930.11ZM1095.13 936.33C1099.81 939.93 1104.28 943.78 1108.71 947.66C1111.01 949.52 1113.05 951.72 1115.28 953.28C1117.54 954.9 1120.07 956.11 1122.75 956.84C1125.33 957.61 1128.32 957.73 1131.26 958.28C1134.2 958.76 1137.11 959.4 1139.98 960.18C1145.85 961.41 1151.31 964.13 1155.83 968.08C1153.4 966.46 1150.73 965.23 1147.92 964.44C1145.15 963.55 1142.33 962.86 1139.47 962.35C1136.61 961.85 1133.75 961.34 1130.85 960.98C1127.87 960.7 1124.9 960.24 1121.97 959.62C1118.97 958.76 1116.15 957.36 1113.67 955.47C1111.38 953.54 1109.21 951.46 1107.18 949.25C1103.07 945.05 1099 940.81 1095.13 936.33ZM1029.41 843.88C1027.1 839.21 1024.29 834.81 1021.01 830.76L1021.56 831.12C1016.09 830.26 1010.98 827.81 1006.88 824.08C1004.74 821.92 1003.42 819.08 1003.16 816.05C1003.02 814.55 1003.09 813.03 1003.36 811.55C1003.72 810.13 1004.16 808.74 1004.68 807.37C1007.18 802.05 1011.59 797.85 1017.03 795.61C1019.75 794.31 1022.71 793.6 1025.72 793.53C1028.97 793.51 1032.14 794.5 1034.79 796.37L1030.09 797.87C1030.81 795.93 1031.79 794.09 1033.01 792.41C1034.17 790.77 1035.52 789.28 1037.04 787.97C1040.12 785.34 1043.76 783.47 1047.69 782.52C1051.49 781.61 1055.41 781.41 1059.28 781.92L1062.04 782.27C1063.12 782.43 1064.18 782.69 1065.2 783.06C1067.11 783.71 1068.94 784.57 1070.65 785.63C1077.13 789.81 1082.3 795.72 1085.6 802.68C1088.83 809.27 1091.19 816.26 1092.61 823.47L1085.87 823.88C1086.45 819.3 1087.83 814.85 1089.95 810.74C1092.05 806.5 1095.2 802.87 1099.08 800.17C1103.05 797.57 1107.67 796.14 1112.41 796.04C1113.54 795.99 1114.68 796.02 1115.8 796.14L1117.49 796.24C1118.15 796.27 1118.81 796.38 1119.44 796.56C1121.72 797.24 1123.88 798.29 1125.81 799.67C1132.77 805.13 1137.91 812.57 1140.57 821.01C1143.37 829 1145.19 837.3 1145.98 845.72C1144.12 837.6 1141.46 829.68 1138.04 822.08C1134.92 814.67 1129.78 808.28 1123.22 803.65C1121.67 802.69 1119.98 801.98 1118.22 801.52C1117.84 801.43 1117.45 801.39 1117.07 801.41L1115.61 801.4C1110.96 801.17 1106.36 802.48 1102.53 805.14C1099.66 807.52 1097.31 810.46 1095.62 813.78C1093.92 817.1 1092.92 820.73 1092.67 824.45L1092.66 824.47C1092.58 825.28 1092.21 826.03 1091.62 826.58C1091.03 827.14 1090.27 827.47 1089.46 827.52C1088.65 827.57 1087.85 827.33 1087.21 826.84C1086.56 826.35 1086.11 825.65 1085.93 824.86C1084.56 818.29 1082.35 811.93 1079.35 805.93C1076.55 800.16 1072.28 795.23 1066.98 791.62C1065.72 790.82 1064.37 790.16 1062.96 789.66C1062.33 789.42 1061.69 789.25 1061.03 789.14L1058.57 788.8C1055.47 788.35 1052.31 788.45 1049.24 789.1C1046.3 789.72 1043.55 791.01 1041.2 792.89C1038.91 794.75 1037.09 797.13 1035.89 799.83L1035.75 800.17C1035.44 800.89 1034.86 801.46 1034.13 801.75C1033.41 802.04 1032.59 802.04 1031.87 801.73C1031.63 801.63 1031.4 801.49 1031.19 801.33C1029.44 800.13 1027.39 799.43 1025.27 799.3C1023.15 799.17 1021.04 799.61 1019.14 800.57C1014.73 802.13 1011.04 805.23 1008.74 809.3C1007.55 811.21 1006.97 813.44 1007.09 815.68C1007.2 817.93 1008 820.09 1009.37 821.87C1012.76 825.51 1017.11 828.11 1021.93 829.35L1022.05 829.39C1022.23 829.44 1022.38 829.55 1022.48 829.71C1025.43 834.09 1027.76 838.86 1029.41 843.88ZM1005.31 841.45C1003.39 837.51 1000 834.48 995.86 833.04C991.84 831.89 987.54 832.21 983.74 833.95C981.9 834.52 980.26 835.56 978.98 836.99C977.69 838.41 976.81 840.15 976.43 842.02C976.26 845.95 977.33 849.84 979.49 853.12C981.67 856.75 984.26 860.12 987.21 863.16C987.93 863.94 988.68 864.66 989.43 865.39L991.85 867.51C993.58 869 995.24 870.53 996.9 872.06C1003.52 878.19 1009.72 884.63 1015.89 891.16C1016.35 891.65 1016.66 892.26 1016.77 892.93L1016.8 893.16C1017.21 895.23 1017.89 897.25 1018.82 899.15C1020.77 903.23 1023.56 906.86 1026.98 909.81C1028.73 911.39 1030.47 912.44 1032.8 914.23C1037.07 917.58 1040.67 921.7 1043.41 926.38C1046.18 930.98 1048.23 935.97 1049.49 941.18L1049.33 940.67C1050.96 945.18 1054.01 949.03 1058.03 951.64C1062.32 954.14 1067.2 955.48 1072.17 955.52C1077.38 955.64 1082.58 955.1 1087.66 953.92C1092.86 952.79 1097.95 951.24 1102.9 949.29C1098.26 952.02 1093.35 954.27 1088.25 956.01C1083.07 957.83 1077.67 958.93 1072.19 959.29C1066.44 959.71 1060.68 958.56 1055.52 955.98C1052.91 954.53 1050.57 952.65 1048.59 950.42C1046.68 948.17 1045.09 945.66 1043.86 942.98L1043.79 942.82L1043.69 942.47C1042.37 938 1040.42 933.74 1037.9 929.82C1035.4 925.94 1032.26 922.52 1028.6 919.71C1026.96 918.45 1024.42 916.87 1022.43 915.1C1020.33 913.34 1018.42 911.37 1016.74 909.21C1015.02 907.04 1013.55 904.69 1012.37 902.18C1011.12 899.57 1010.26 896.79 1009.81 893.94L1010.72 895.93C1004.74 889.43 998.57 883.02 992.38 876.76C990.82 875.21 989.25 873.67 987.65 872.19L985.12 869.82C984.31 868.96 983.48 868.11 982.72 867.22C979.64 863.69 976.98 859.8 974.82 855.64C972.3 851.26 971.34 846.16 972.11 841.18C972.39 839.87 972.89 838.61 973.58 837.46C974.31 836.37 975.15 835.36 976.08 834.42L979.18 832.29L982.51 830.92C987.07 829.31 992.06 829.45 996.51 831.33C998.6 832.32 1000.45 833.73 1001.97 835.47C1003.48 837.21 1004.62 839.25 1005.31 841.45Z" fill="#155BD5"/>
<path d="M1013.3 893.55C1012.22 889.59 1012.29 885.41 1013.52 881.5C1014.11 879.46 1015.16 877.58 1016.59 876.01C1017.29 875.2 1018.15 874.55 1019.12 874.1C1020.09 873.65 1021.14 873.41 1022.21 873.39C1020.63 874.38 1019.31 875.75 1018.38 877.38C1017.48 878.95 1016.77 880.63 1016.28 882.37C1015.13 885.91 1014.44 889.65 1013.3 893.55ZM1021.74 830.24C1024.2 829.64 1026.2 829.22 1028.33 828.8C1030.56 828.3 1032.83 828.01 1035.1 827.92C1033.56 829.88 1031.34 831.2 1028.88 831.64C1027.66 831.92 1026.39 831.95 1025.16 831.71C1023.93 831.47 1022.77 830.97 1021.74 830.24ZM1034.78 798.84C1034.74 801.95 1035.15 805.04 1035.99 808.02C1036.74 811 1038.33 813.7 1040.57 815.8C1041.76 816.8 1043.13 817.55 1044.62 818C1046.1 818.45 1047.66 818.59 1049.2 818.41C1050.8 818.28 1052.39 818.02 1053.95 817.63L1058.55 815.97L1054.09 818.05C1052.53 818.6 1050.92 819.02 1049.29 819.3C1047.6 819.63 1045.86 819.62 1044.17 819.26C1042.48 818.91 1040.88 818.21 1039.48 817.21C1036.71 815.08 1034.62 812.19 1033.46 808.89C1032.22 805.68 1031.46 802.31 1031.21 798.87C1031.19 798.64 1031.21 798.4 1031.28 798.17C1031.36 797.95 1031.47 797.74 1031.62 797.56C1031.78 797.38 1031.96 797.23 1032.18 797.12C1032.39 797.01 1032.62 796.95 1032.85 796.93C1033.09 796.91 1033.33 796.94 1033.55 797.01C1033.78 797.09 1033.98 797.2 1034.16 797.36C1034.34 797.52 1034.49 797.7 1034.59 797.92C1034.7 798.13 1034.76 798.36 1034.78 798.6C1034.78 798.65 1034.78 798.71 1034.78 798.76V798.84Z" fill="#155BD5"/>
<path d="M1049.17 819.02C1051.65 822.79 1053.84 826.75 1055.72 830.85C1057.83 834.99 1059.27 839.42 1059.99 844.01C1060.19 844.86 1060.6 845.65 1061.17 846.31C1061.75 846.97 1062.47 847.48 1063.29 847.8C1065.16 848.74 1067.16 849.38 1069.23 849.7C1071.34 850.09 1073.5 850.11 1075.62 849.76C1077.8 849.57 1079.83 848.55 1081.28 846.91C1080.74 847.94 1079.98 848.85 1079.07 849.58C1078.15 850.31 1077.09 850.84 1075.96 851.13C1073.7 851.8 1071.34 852.07 1068.99 851.91C1066.6 851.81 1064.24 851.24 1062.05 850.24C1060.78 849.74 1059.66 848.93 1058.79 847.87C1057.92 846.81 1057.34 845.54 1057.11 844.2C1056.39 839.92 1055.24 835.73 1053.67 831.69L1049.17 819.02ZM1092.78 823.59C1093.57 829.17 1095.34 834.56 1098.01 839.52C1098.68 840.71 1099.44 841.84 1100.28 842.91C1101.35 844.19 1102.3 845.57 1103.12 847.04C1103.93 848.52 1104.59 850.09 1105.07 851.71C1105.56 853.42 1105.79 854.84 1106.13 856.25C1106.3 857.51 1106.65 858.74 1107.16 859.91C1107.85 860.96 1108.73 861.88 1109.76 862.62C1110.76 863.41 1111.92 863.99 1113.15 864.33C1114.39 864.67 1115.68 864.76 1116.95 864.6C1119.62 864.04 1122.03 862.59 1123.77 860.48C1125.72 858.31 1127.39 855.9 1128.72 853.3L1128.65 853.53C1129.54 849.32 1130.13 845.06 1130.42 840.78C1130.81 836.47 1130.52 832.14 1129.57 827.92C1130.84 832.1 1131.44 836.44 1131.36 840.8C1131.38 845.18 1131.1 849.54 1130.5 853.88C1130.49 853.94 1130.47 854.01 1130.44 854.07L1130.42 854.11C1129.2 856.99 1127.6 859.69 1125.68 862.16C1123.69 864.88 1120.84 866.85 1117.59 867.73C1115.88 868.09 1114.11 868.1 1112.39 867.77C1110.68 867.44 1109.04 866.77 1107.59 865.81C1106.09 864.87 1104.77 863.67 1103.7 862.27C1103.11 861.49 1102.69 860.6 1102.44 859.66L1101.77 857.43C1101.17 854.69 1100.12 852.07 1098.67 849.68C1097.93 848.55 1097.08 847.49 1096.14 846.52C1095.01 845.3 1093.99 843.99 1093.06 842.61C1089.56 837.15 1087.08 831.1 1085.73 824.75C1085.62 824.29 1085.61 823.82 1085.69 823.36C1085.77 822.89 1085.93 822.45 1086.18 822.05C1086.43 821.65 1086.76 821.31 1087.14 821.04C1087.52 820.76 1087.96 820.57 1088.41 820.46C1088.87 820.36 1089.34 820.35 1089.81 820.42C1090.27 820.5 1090.71 820.67 1091.11 820.92C1091.51 821.17 1091.86 821.49 1092.13 821.88C1092.4 822.26 1092.59 822.69 1092.7 823.15C1092.72 823.23 1092.74 823.32 1092.75 823.4L1092.78 823.59ZM1086.19 886.16C1086.33 886.16 1086.44 886.2 1086.58 886.2L1086.9 886.41L1086.19 886.16Z" fill="#155BD5"/>
<path d="M1158.65 881.34C1097.29 872.02 1039.47 848.24 1025.12 842.06C1022.63 840.97 1019.97 840.33 1017.26 840.17C1004.19 839.49 999.69 843.74 998.47 848.13C997.93 850.25 998.08 852.49 998.91 854.52C999.74 856.55 1001.2 858.25 1003.08 859.38L1066.9 899.52L1066.94 899.48C1070.15 895.62 1073.88 892.21 1078.01 889.34C1076.5 892.51 1074.64 895.51 1072.47 898.27C1078.41 896.64 1084.69 896.66 1090.62 898.34C1164.51 905.34 1183.08 889.91 1183.08 889.91C1175.15 882.52 1158.65 881.34 1158.65 881.34ZM1104.76 875.24L1119.76 886.16L1085.37 881.02L1054.4 860.27L1104.76 875.24ZM1124.04 893.77C1111.26 892.59 1098.51 891.13 1085.76 889.7C1085.51 889.65 1085.27 889.57 1085.04 889.45C1073.26 882.34 1061.51 875.16 1049.87 867.81L1032.4 856.7C1026.69 852.88 1020.86 849.2 1015.19 845.28C1021.29 848.49 1027.29 851.88 1033.33 855.17L1051.29 865.42C1063.15 872.16 1074.87 879.16 1086.58 886.2C1099.15 887.73 1111.79 889.3 1124.36 891.09C1137.04 892.88 1149.76 894.73 1162.4 896.95C1149.58 896.16 1136.79 894.98 1124.04 893.77Z" fill="#155BD5"/>
<path d="M1086.9 886.41L1086.19 886.16C1086.33 886.16 1086.44 886.2 1086.58 886.2L1086.9 886.41Z" fill="white"/>
<path d="M651.826 374.164C651.826 374.164 642.656 368.662 634.097 378.443C634.097 378.443 618.812 356.729 554.007 375.533C554.007 375.533 562.566 391.891 568.68 391.891C574.794 391.891 557.064 420.01 540.557 418.788C540.557 418.788 512.434 459.743 533.832 499.477C554.922 538.638 570.073 551.078 590.992 525.676C591.634 524.888 592.35 524.164 593.13 523.512C599.146 518.552 625.78 497.927 635.219 513.306C637.23 516.723 637.805 520.797 636.819 524.636C632.511 542.679 612.363 609.13 554.007 582.61C554.007 582.61 486.001 557.112 502.041 496.706C503.756 490.562 506.244 484.66 509.444 479.142C512.529 473.505 514.431 467.297 515.032 460.899C515.633 454.502 514.921 448.048 512.939 441.935C510.481 433.221 504.935 425.698 497.337 420.771C489.97 416.177 480.259 414.123 472.903 426.97C469.859 432.314 468.254 438.357 468.245 444.508C468.231 450.137 469.279 457.042 473.918 460.355L468.245 471.358C465.16 465.082 461.216 459.266 456.524 454.08C448.669 446.124 443.622 435.825 442.151 424.743C440.074 407.162 442.574 380.914 463.524 350.324C463.524 350.324 491.647 294.086 544.225 295.309C596.803 296.531 642.045 310.591 651.826 374.164Z" fill="#155BD5"/>
<path d="M563.789 447.517C572.922 445.429 582.306 444.656 591.657 445.222C596.367 445.456 601.042 446.165 605.61 447.338C610.271 448.338 614.603 450.503 618.201 453.63C614.048 451.702 609.611 450.452 605.061 449.931C600.567 449.285 596.032 448.815 591.457 448.61C582.315 448.043 573.125 448 563.789 447.517ZM651.827 446.645C648.482 447.661 645.387 449.366 642.741 451.65C641.487 452.684 640.466 453.972 639.743 455.428C639.02 456.884 638.612 458.477 638.547 460.101C638.793 463.434 639.667 466.69 641.122 469.698L645.12 479.525C648.102 486.174 649.835 493.315 650.232 500.592C650.226 502.509 649.874 504.409 649.194 506.201C648.462 508.015 647.266 509.605 645.725 510.81C642.596 512.781 638.901 513.659 635.22 513.306C638.671 513.012 641.957 511.698 644.659 509.531C645.769 508.348 646.605 506.937 647.11 505.396C647.615 503.855 647.776 502.223 647.582 500.613C647.318 497.209 646.627 493.852 645.525 490.621C644.498 487.312 643.269 484.033 641.96 480.766C640.704 477.474 639.345 474.202 638.122 470.831C637.537 469.129 636.943 467.433 636.483 465.639C635.912 463.784 635.718 461.833 635.914 459.902C636.119 457.982 636.744 456.13 637.747 454.48C638.749 452.829 640.104 451.42 641.714 450.353C644.741 448.329 648.208 447.057 651.827 446.645Z" fill="#155BD5"/>
<path d="M651.827 374.164C652.972 381.015 653.824 387.904 654.381 394.83C655.018 401.744 655.412 408.679 655.562 415.635C655.67 422.589 655.566 429.556 655.023 436.529C654.704 443.637 653.117 450.63 650.335 457.178C650.294 457.259 650.243 457.334 650.181 457.401C648.035 459.711 646.021 462.14 644.149 464.676C643.219 465.946 642.392 467.288 641.676 468.69C640.879 470.055 640.56 471.646 640.77 473.212C640.279 471.636 640.368 469.937 641.02 468.421C641.582 466.892 642.266 465.41 643.065 463.99C644.662 461.159 646.507 458.476 648.58 455.973L648.427 456.195C649.612 453.068 650.401 449.805 650.776 446.482C651.306 443.129 651.52 439.706 651.773 436.295C652.177 429.447 652.247 422.557 652.287 415.665C652.286 401.869 651.983 388.047 651.827 374.164ZM615.144 493.975C614.499 495.302 613.978 496.686 613.587 498.108C613.189 499.422 613.102 500.811 613.332 502.165C613.522 503.506 614.109 504.76 615.016 505.766C615.976 506.877 617.043 507.891 618.201 508.793C617.461 508.574 616.733 508.313 616.021 508.012C615.329 507.631 614.676 507.181 614.073 506.67C612.812 505.578 611.961 504.088 611.66 502.447C611.445 500.822 611.688 499.168 612.361 497.673C612.99 496.241 613.942 494.975 615.144 493.975ZM473.917 460.355C476.034 463.01 477.722 465.98 478.921 469.156C479.564 470.778 480.029 472.464 480.308 474.186C480.459 475.088 480.518 476.004 480.487 476.918L480.469 477.621L480.51 478.003C480.495 478.252 480.549 478.5 480.667 478.719C481.192 479.837 482.118 480.717 483.262 481.184C484.62 481.877 486.05 482.419 487.527 482.799C490.668 483.646 493.898 484.114 497.15 484.195C493.938 485.453 490.457 485.869 487.039 485.404C485.255 485.222 483.509 484.775 481.857 484.076C480.886 483.699 479.998 483.134 479.246 482.413C478.494 481.691 477.892 480.828 477.475 479.873C477.256 479.335 477.149 478.758 477.16 478.178L477.148 477.32L477.174 476.785C477.212 476.045 477.195 475.304 477.124 474.567C476.989 473.001 476.744 471.446 476.392 469.914C475.699 466.773 474.786 463.615 473.917 460.355ZM468.245 471.358C466.881 476.302 464.957 481.075 462.511 485.583C460.117 490.158 457.227 494.456 453.893 498.399C450.557 502.416 446.601 505.874 442.173 508.643C437.735 511.395 432.654 512.94 427.435 513.125C432.212 511.69 436.7 509.429 440.695 506.444C444.605 503.436 448.165 500 451.308 496.198C454.536 492.402 457.521 488.405 460.243 484.231C462.984 480.038 465.706 475.787 468.245 471.358ZM513.045 614.4C516.909 612.7 520.561 610.57 523.93 608.03C527.273 605.53 530.444 602.81 533.422 599.89C536.493 597.06 539.246 593.89 542.105 590.79L546.268 585.98C547.624 584.34 548.976 582.69 550.467 581.1C549.616 583.09 548.626 585 547.639 586.93C546.521 588.77 545.421 590.64 544.192 592.42C541.713 595.99 538.895 599.31 535.776 602.34C532.642 605.39 529.145 608.05 525.364 610.24C521.614 612.52 517.408 613.94 513.045 614.4Z" fill="#155BD5"/>
<path d="M451.882 497.297C448.839 492.789 445.076 488.812 440.743 485.525C439.841 484.729 438.748 484.178 437.571 483.929C436.393 483.679 435.171 483.738 434.024 484.1C431.996 485.478 430.54 487.548 429.93 489.922C429.095 492.453 428.493 495.056 428.132 497.697C427.951 499.01 427.789 500.377 427.671 501.641C427.678 502.844 427.783 504.257 427.904 505.572C428.43 510.962 429.429 516.296 430.891 521.512C433.582 532.124 437.762 542.301 443.307 551.742C448.925 561.18 455.645 569.91 463.327 577.76C467.179 581.66 471.182 585.41 475.245 589.06C479.465 592.54 483.496 596.28 487.889 599.48C490.008 601.19 492.344 602.58 494.557 604.14C496.899 605.49 499.148 607.02 501.588 608.16C506.303 610.73 511.319 612.69 516.519 614.01C526.904 616.77 537.94 615.61 547.527 610.76C557.162 605.62 565.254 598.01 570.974 588.7C570.995 588.66 571.031 588.63 571.074 588.62C571.117 588.61 571.163 588.61 571.203 588.63C571.241 588.65 571.268 588.69 571.282 588.73C571.295 588.77 571.293 588.82 571.277 588.86C566.301 598.96 558.482 607.39 548.781 613.1C543.812 615.92 538.346 617.75 532.683 618.5C527.002 619.17 521.246 618.8 515.695 617.42C510.185 616.11 504.88 614.05 499.932 611.29C497.406 610.04 495.112 608.41 492.715 606.96C490.466 605.3 488.085 603.81 485.951 602.02C481.477 598.66 477.56 594.73 473.42 591.05C471.309 589.25 469.519 587.11 467.581 585.13C465.713 583.08 463.691 581.19 461.957 579.02C454.718 570.65 448.146 561.74 442.298 552.346C436.343 542.958 431.6 532.854 428.183 522.275C426.514 516.923 425.425 511.407 424.933 505.823C424.84 504.392 424.755 503.057 424.786 501.506C424.949 500.035 425.147 498.667 425.373 497.259C425.823 494.451 426.531 491.691 427.488 489.013C427.919 487.535 428.64 486.158 429.609 484.961C430.577 483.765 431.775 482.773 433.131 482.044C434.655 481.447 436.343 481.412 437.891 481.948C439.298 482.429 440.612 483.149 441.776 484.075C446.048 487.714 449.578 492.144 452.172 497.12C452.183 497.14 452.191 497.161 452.193 497.183C452.196 497.205 452.194 497.228 452.189 497.249C452.183 497.271 452.172 497.291 452.159 497.308C452.145 497.326 452.128 497.34 452.109 497.351C452.071 497.371 452.027 497.376 451.985 497.366C451.943 497.356 451.907 497.331 451.882 497.297Z" fill="#155BD5"/>
<path d="M462.21 482.901C456.752 479.541 450.663 477.333 444.319 476.413C438.069 475.272 431.617 476.427 426.152 479.667C423.575 481.457 421.408 483.775 419.795 486.466L414.249 494.432C410.578 499.845 406.467 504.948 401.958 509.687C401.853 509.79 401.727 509.871 401.589 509.923C401.451 509.975 401.303 509.998 401.156 509.99L401.073 509.985C378.226 508.632 355.3 508.09 332.435 508.244C321 508.339 309.577 508.797 298.22 509.689C286.95 510.313 275.791 512.249 264.971 515.46L264.779 515.512L264.518 515.568C258.529 517.101 252.824 519.583 247.621 522.922C244.915 524.561 242.311 526.363 239.823 528.318L236.053 531.219C234.837 532.238 233.69 533.348 232.505 534.408C223.065 543.034 214.678 552.746 207.519 563.34C193.15 584.71 181.405 607.73 172.539 631.91C170.347 637.97 167.947 643.96 165.925 650.09L160.138 668.57C158.18 674.65 156.429 681.1 154.148 687.26C151.93 693.49 149.335 699.5 146.85 705.48L139.202 723.43L135.219 732.38C133.862 735.47 132.349 738.5 130.686 741.44C130.348 741.99 129.965 742.51 129.54 742.99C129.782 743 129.803 742.45 129.817 742.67C129.778 743.02 129.793 743.37 129.86 743.71C130.115 744.98 130.551 746.2 131.154 747.34C132.489 749.89 134.271 752.17 136.415 754.09C140.794 758.03 146.271 760.53 152.112 761.27L149.816 766.84C146.213 764.03 142.804 760.97 139.609 757.7C137.859 755.94 136.333 753.97 135.065 751.83C134.683 751.14 134.38 750.4 134.161 749.64C134.045 749.14 133.968 748.63 133.927 748.11C133.927 747.44 134.042 746.77 134.267 746.14C134.523 745.46 134.935 744.84 135.469 744.35C135.717 744.12 135.978 743.9 136.251 743.7C136.488 743.56 136.718 743.45 136.958 743.34C137.762 742.97 138.62 742.73 139.499 742.63C142.012 742.45 144.538 742.63 147 743.16C149.301 743.58 151.504 744.14 153.698 744.71L160.239 746.79L166.565 749.33C183.091 756.78 197.748 766.68 213.005 775.39C228.163 784.24 243.841 792.17 259.952 799.14C276.116 806.02 292.637 812.04 309.444 817.15L309.464 817.16C309.925 817.3 310.323 817.6 310.593 818C310.863 818.4 310.988 818.88 310.949 819.36C309.493 835.78 308.904 852.26 309.182 868.74C309.296 876.94 309.997 885.12 311.278 893.21C311.888 897.16 313.023 901.01 314.653 904.66C315.412 906.31 316.548 907.75 317.968 908.87C318.332 909.03 318.684 909.2 319.036 909.38C319.408 909.5 319.804 909.49 320.183 909.58C321.037 909.68 322.203 909.62 323.198 909.65L422.553 909.92C455.671 910.08 488.788 909.9 521.905 909.86L621.258 909.53L620.113 910.03C626.878 902.91 634.282 896.42 642.232 890.65C650.166 884.79 658.783 879.92 667.894 876.15C677.103 872.28 686.995 870.29 696.99 870.31C702.06 870.4 707.09 871.13 711.98 872.49L725.74 877.1C730.34 878.59 734.96 880.05 739.58 881.39C744.02 882.89 748.62 883.88 753.29 884.35C758.47 884.94 763.48 886.56 768.02 889.13C770.41 890.41 772.57 892.07 774.4 894.06C775.43 895.16 776.23 896.46 776.74 897.87C777.26 899.28 777.49 900.78 777.41 902.29C777.54 904.85 777.45 907.41 777.15 909.96C776.83 912.91 775.58 915.69 773.58 917.89C771.43 920.02 768.59 921.31 765.57 921.55C762.92 921.83 760.23 921.75 757.6 921.3C755.09 920.9 752.61 920.34 750.18 919.61L743.23 917.51C741.01 916.87 738.75 916.38 736.47 916.03C734.58 915.64 732.63 915.66 730.74 916.09L731.43 911.36C740.62 917.8 751.41 921.56 762.61 922.24C768.27 922.54 773.95 922.21 779.54 921.27C785.31 920.48 791.04 919.51 796.85 918.54C799.78 918.08 802.69 917.57 805.91 917.36C807.67 917.22 809.45 917.32 811.18 917.67C813.28 918.12 815.17 919.24 816.58 920.85C817.79 922.29 818.72 923.95 819.31 925.73C821.02 930.51 821.27 935.7 820.04 940.63C819.18 943.9 817.64 946.96 815.52 949.6C813.41 952.24 810.76 954.41 807.76 955.98C802.13 958.87 796 960.66 789.7 961.27L792.45 959.2C790.98 962.56 789.15 965.75 787.01 968.72C784.87 971.71 782.39 974.44 779.6 976.85C776.68 979.3 773.35 981.23 769.77 982.54C766.08 983.78 762.19 984.27 758.31 983.99L761.25 982.79C755.28 989.74 749.42 996.56 742.7 1003.14C741.84 1003.95 740.94 1004.78 739.93 1005.59C738.89 1006.38 737.8 1007.11 736.67 1007.76C734.55 1008.95 732.34 1010 730.07 1010.88C725.64 1012.6 721.07 1013.91 716.4 1014.79C707.16 1016.52 697.72 1016.95 688.36 1016.09C686.023 1015.92 683.716 1015.54 681.395 1015.28L674.517 1014.08L668.07 1013.02L661.508 1012.34C643.646 1011.42 625.738 1012 607.972 1014.07C590.082 1015.88 572.244 1018.58 554.493 1021.72C545.686 1023.28 536.963 1025.36 528.078 1027.31C519.229 1029.28 510.351 1031.19 501.449 1032.99C483.636 1036.55 465.745 1039.79 447.749 1042.36C411.764 1047.7 375.455 1050.58 339.078 1050.96C334.531 1050.97 329.986 1051.14 325.44 1051.04L311.802 1050.73C302.707 1050.67 293.631 1050.02 284.554 1049.48C275.465 1049.09 266.425 1048.04 257.375 1047.16C252.829 1046.66 248.377 1046.38 243.742 1045.66C239.151 1044.95 234.607 1043.97 230.132 1042.72C212.058 1037.85 195.663 1028.12 182.724 1014.59C169.768 1000.99 161.575 983.55 159.376 964.9C155.394 928.74 153.794 892.53 152.888 856.31C152.097 820.09 151.998 783.87 152.59 747.65C152.591 747.56 152.63 747.47 152.697 747.4C152.765 747.34 152.856 747.3 152.951 747.3C153.046 747.3 153.136 747.34 153.202 747.41C153.269 747.47 153.306 747.57 153.305 747.66C153.456 783.86 154.29 820.04 155.806 856.21C157.408 892.34 159.385 928.54 163.876 964.31C166.183 981.9 174.142 998.26 186.557 1010.93C198.927 1023.61 214.523 1032.67 231.665 1037.14C235.923 1038.29 240.246 1039.18 244.61 1039.82C248.929 1040.46 253.526 1040.72 257.982 1041.17C266.959 1041.97 275.92 1042.93 284.934 1043.24C293.934 1043.7 302.929 1044.26 311.947 1044.25L325.464 1044.44C329.97 1044.5 334.477 1044.29 338.982 1044.24L352.498 1043.96L366 1043.27C375.008 1042.91 383.989 1042.12 392.974 1041.4C401.97 1040.81 410.914 1039.61 419.885 1038.74C428.83 1037.63 437.781 1036.52 446.698 1035.19C464.546 1032.6 482.295 1029.35 499.983 1025.79C508.826 1023.98 517.644 1022.07 526.467 1020.09C535.258 1018.14 544.157 1016.01 553.177 1014.39C571.074 1011.18 589.061 1008.43 607.199 1006.55C625.417 1004.39 643.792 1003.85 662.106 1004.94L669.046 1005.7L675.994 1006.87L682.485 1008.04C684.66 1008.29 686.826 1008.66 689.01 1008.82C697.7 1009.67 706.46 1009.32 715.05 1007.76C719.29 1006.98 723.44 1005.81 727.47 1004.28C729.42 1003.53 731.32 1002.65 733.15 1001.63C733.98 1001.16 734.78 1000.63 735.55 1000.06C736.31 999.46 737.08 998.77 737.87 998.03C744.13 991.97 750.13 985.08 755.98 978.33C756.32 977.93 756.75 977.62 757.22 977.41C757.7 977.2 758.22 977.1 758.74 977.11L758.92 977.12C761.83 977.33 764.75 976.97 767.52 976.07C770.33 975.04 772.93 973.54 775.23 971.64C777.6 969.6 779.71 967.3 781.53 964.77C783.37 962.24 784.95 959.53 786.24 956.68L786.25 956.66C786.49 956.11 786.87 955.63 787.35 955.27C787.83 954.91 788.39 954.68 788.99 954.6C794.39 954.11 799.66 952.62 804.52 950.2C806.76 949.09 808.73 947.52 810.31 945.59C811.9 943.66 813.05 941.42 813.71 939.01C814.35 936.58 814.49 934.05 814.1 931.56C813.87 929.26 813.06 927.06 811.76 925.15C811.25 924.51 810.52 924.08 809.72 923.93C808.57 923.71 807.4 923.65 806.24 923.74C803.6 923.88 800.71 924.33 797.84 924.76C792.07 925.66 786.21 926.59 780.35 927.33C774.34 928.27 768.25 928.55 762.19 928.16C749.82 927.29 737.95 922.97 727.92 915.68L727.86 915.64C727.47 915.35 727.16 914.95 726.98 914.5C726.79 914.05 726.74 913.55 726.81 913.07C726.89 912.59 727.1 912.13 727.41 911.76C727.73 911.38 728.14 911.11 728.6 910.95C731.42 910.11 734.4 909.99 737.28 910.6C739.79 911.01 742.27 911.58 744.71 912.3L751.68 914.48C753.88 915.17 756.13 915.71 758.41 916.1C762.8 916.85 767.58 916.77 769.93 914.32C772.41 911.9 772.56 907.12 772.45 902.35C772.47 901.81 772.45 901.27 772.38 900.73C772.38 900.33 772.29 899.94 772.13 899.58C771.81 898.72 771.33 897.94 770.71 897.26C769.25 895.68 767.54 894.34 765.65 893.32C761.74 891.06 757.42 889.59 752.94 889C747.95 888.46 743.04 887.36 738.3 885.71C733.62 884.3 728.99 882.78 724.38 881.23L710.59 876.45C706.12 875.2 701.52 874.5 696.89 874.36C687.427 874.26 678.04 876.05 669.281 879.62C651.585 887.11 635.625 898.17 622.402 912.11L622.353 912.16C622.21 912.31 622.039 912.42 621.85 912.5C621.662 912.58 621.46 912.62 621.256 912.62L521.912 912.28C488.798 912.25 455.682 912.07 422.568 912.23L323.227 912.5C322.155 912.48 321.241 912.56 320.039 912.47C319.397 912.41 318.761 912.31 318.135 912.16L316.394 911.35C314.501 909.97 312.978 908.14 311.959 906.03C310.14 902.15 308.855 898.03 308.139 893.8C306.713 885.55 305.881 877.22 305.649 868.86C305.137 852.23 305.503 835.59 306.745 819L308.249 821.2C291.207 816.26 274.444 810.41 258.031 803.68C241.637 796.84 225.669 789.03 210.214 780.28C194.691 771.75 179.915 761.85 164.17 754.86L158.201 752.49L152.117 750.58C150.041 750.05 147.96 749.53 145.916 749.17C144.058 748.77 142.156 748.62 140.259 748.72C140.005 748.78 139.562 748.84 139.624 748.87L139.582 748.86C139.646 748.85 139.703 748.81 139.746 748.76C139.776 748.66 139.984 748.52 140.02 748.31C140.128 747.46 140.016 748.26 140.488 748.9C141.509 750.55 142.716 752.06 144.087 753.43C147.079 756.46 150.268 759.28 153.633 761.89L153.662 761.92C154.199 762.34 154.583 762.92 154.754 763.59C154.926 764.25 154.876 764.95 154.612 765.58C154.348 766.21 153.885 766.73 153.293 767.07C152.702 767.41 152.014 767.55 151.337 767.47C144.202 766.59 137.505 763.56 132.146 758.77C129.435 756.35 127.18 753.47 125.489 750.25C124.568 748.52 123.914 746.66 123.55 744.74C123.313 743.48 123.346 742.2 123.647 740.96C123.894 740.04 124.354 739.19 124.99 738.48C125.061 738.28 125.014 738.46 125.243 738.05C126.646 735.63 128.068 732.56 129.409 729.7L133.391 720.88L141.096 703.05C143.625 697.06 146.202 691.17 148.373 685.17C150.63 679.16 152.309 673.08 154.355 666.82L160.301 648.18C162.378 641.99 164.84 635.93 167.092 629.81C176.249 605.25 188.332 581.88 203.08 560.21C206.838 554.813 210.868 549.607 215.154 544.616C219.521 539.661 224.195 534.985 229.149 530.617C230.396 529.53 231.601 528.397 232.883 527.351L236.866 524.363C239.509 522.343 242.272 520.484 245.139 518.797C250.92 515.181 257.267 512.56 263.916 511.044L263.464 511.152C274.684 507.948 286.243 506.078 297.902 505.579C309.414 504.822 320.923 504.511 332.419 504.562C355.415 504.61 378.351 505.775 401.254 507.602L400.371 507.899C404.853 503.361 408.961 498.468 412.656 493.269L418.348 485.46C420.14 482.636 422.507 480.222 425.294 478.374C428.112 476.557 431.32 475.434 434.656 475.098C437.925 474.71 441.231 474.775 444.481 475.292C450.941 476.367 457.111 478.756 462.611 482.311C462.69 482.361 462.746 482.441 462.767 482.533C462.788 482.624 462.771 482.72 462.722 482.8C462.672 482.88 462.593 482.937 462.501 482.958C462.41 482.98 462.313 482.965 462.233 482.916L462.21 482.901Z" fill="#155BD5"/>
<path d="M294.491 543.489C298.944 544.752 302.984 547.167 306.205 550.491C309.523 553.762 312.177 557.644 314.02 561.92C315.867 566.18 316.906 570.74 317.082 575.38C317.171 577.66 317.054 579.94 316.733 582.2C316.344 584.44 315.751 586.65 314.961 588.78C314.169 586.57 313.811 584.44 313.229 582.36C312.604 580.29 312.23 578.23 311.535 576.26C310.428 572.34 309.07 568.51 307.47 564.77C305.865 561.05 303.988 557.455 301.855 554.013C299.621 550.356 297.161 546.841 294.491 543.489ZM310.07 629.07C311.446 644.92 312.118 660.77 312.541 676.61C313.009 692.46 313.059 708.3 313.028 724.15C312.864 739.99 312.61 755.83 311.94 771.67C311.315 787.51 310.436 803.34 308.847 819.18C307.463 803.32 306.787 787.48 306.366 771.63C305.9 755.79 305.85 739.94 305.89 724.1C306.063 708.26 306.316 692.42 306.988 676.58C307.615 660.74 308.49 644.9 310.07 629.07ZM637.03 524.347C650.109 532.53 662.949 541.052 675.549 549.915C681.856 554.34 688.11 558.846 694.31 563.43L703.55 570.48C705.16 571.69 706.69 573.03 708.11 574.47L710.3 576.76L712.15 579.1C716.93 585.27 721.3 591.76 725.21 598.51C729.16 605.17 733 611.87 736.73 618.61C744.11 632.16 751.71 645.55 759.53 658.8C763.44 665.42 767.42 672.01 771.48 678.55L777.56 688.35C779.36 691.56 781.49 694.56 783.94 697.31C786.52 699.85 789.6 702.36 792.29 705.52C795.46 708.83 797.37 713.15 797.69 717.72C797.45 722.41 795.4 726.83 791.98 730.05C790.52 731.52 788.99 732.92 787.38 734.24C785.94 735.4 784.55 736.62 783.18 737.87C780.43 740.39 777.9 743.05 775.33 745.9C772.71 748.79 770 751.6 767.25 754.37C761.7 759.92 755.8 765.11 749.6 769.91C743.27 774.81 736.38 778.94 729.08 782.21C725.25 783.83 721.23 784.94 717.11 785.52C712.78 786.16 708.37 785.78 704.22 784.4C703.56 784.2 702.99 783.76 702.64 783.17L702.61 783.13C699.93 778.69 697 774.26 694.03 769.93C691.06 765.58 687.957 761.33 684.711 757.18C681.452 753.07 677.969 749.14 674.278 745.41C670.724 741.58 666.372 738.57 661.527 736.59L661.501 736.58C661.416 736.55 661.346 736.49 661.304 736.41C661.262 736.33 661.252 736.24 661.276 736.15C661.3 736.07 661.356 735.99 661.433 735.95C661.509 735.9 661.601 735.88 661.69 735.9C666.982 737.26 671.876 739.86 675.97 743.49C680.168 746.88 684.102 750.59 687.737 754.58C695.04 762.49 701.76 770.93 707.82 779.83L706.22 778.56C713.02 779.95 720.09 778.92 726.22 775.66C732.9 772.47 739.19 768.5 744.94 763.84C750.9 759.21 756.6 754.26 762.01 749C764.75 746.38 767.46 743.73 770.08 740.98C772.73 738.19 775.59 735.34 778.59 732.74C780.09 731.43 781.63 730.16 783.22 728.95C784.66 727.74 786.03 726.72 787.24 725.49C789.58 723.48 791.11 720.68 791.54 717.62C791.35 714.45 790.09 711.44 787.96 709.09C785.77 706.27 783.01 703.72 780.32 700.66C779.62 699.86 778.95 699.02 778.34 698.15L776.79 695.53L774.01 690.42L768.56 680.22C764.97 673.41 761.3 666.65 757.55 659.93C750.04 646.51 742.12 633.31 733.54 620.55C725.03 607.8 716.4 594.89 707.19 583.12L705.45 580.94L703.63 579.08C702.38 577.75 701.03 576.52 699.59 575.41L690.61 568.27L672.48 554.041C660.368 544.563 648.411 534.858 636.61 524.925C636.54 524.867 636.496 524.784 636.484 524.694C636.473 524.604 636.497 524.514 636.55 524.44C636.603 524.367 636.683 524.316 636.772 524.299C636.861 524.282 636.953 524.299 637.03 524.347Z" fill="#155BD5"/>
<path d="M684.84 639.66C678.588 663.16 672.685 686.7 667.754 710.35C665.217 722.06 663.446 733.94 662.451 745.88C662.113 751.63 662.079 757.97 661.574 764.12C661.083 770.39 660.034 776.61 658.439 782.69C654.686 794.71 648.672 805.91 640.72 815.68C637.046 820.58 633.153 825.32 629.507 830.08C627.754 832.45 625.975 834.79 624.401 837.32C622.712 839.76 621.186 842.33 619.667 844.9C613.686 855.35 608.338 866.15 603.653 877.25C598.71 888.3 594.447 899.65 590.282 911.07C595.586 887.19 603.819 864.06 614.794 842.2C617.628 836.67 620.874 831.36 624.504 826.32C628.105 821.34 631.795 816.59 635.271 811.68C642.585 802.49 648.11 792 651.562 780.77C653.094 775.12 654.121 769.34 654.629 763.51C655.198 757.56 655.179 751.75 655.726 745.38C657.002 733.15 659.212 721.03 662.337 709.13C668.333 685.51 675.849 662.31 684.84 639.66ZM789.34 728.1C797.2 734.2 804.65 740.7 812.21 746.75C814.12 748.23 816.03 749.68 817.9 750.95L821.01 752.8C822.16 753.53 823.25 754.29 824.29 755.08C828.3 758.31 831.99 761.92 835.3 765.86C841.89 773.66 847.07 782.55 850.62 792.12C854.32 801.6 855.37 811.92 853.65 821.96C852.6 812.32 849.85 802.94 845.51 794.27C841.29 785.72 836.03 777.72 829.85 770.46C826.88 766.81 823.58 763.44 820.01 760.37C819.14 759.6 818.25 758.9 817.36 758.24L814.26 756.09C812.23 754.52 810.3 752.81 808.49 750.98C801.42 743.96 795.01 736.3 789.34 728.1ZM710.49 782.55C717.52 791.97 722.32 802.85 724.53 814.39C724.78 815.86 724.99 817.35 725.19 818.84C725.33 820.28 725.34 821.98 725.52 823.22C725.8 825.74 726.4 828.22 727.31 830.59C729.31 835.65 731.86 840.48 734.93 844.97C737.96 849.62 741.31 854.07 744.93 858.28C746.68 860.45 748.61 862.46 750.47 864.55C752.49 866.47 754.33 868.6 756.41 870.46C764.33 878.51 773.82 884.84 784.29 889.07C778.46 888.47 772.79 886.82 767.55 884.19C762.32 881.52 757.37 878.34 752.77 874.69C743.52 867.39 735.48 858.68 728.95 848.88C725.64 843.86 722.95 838.45 720.94 832.79C719.97 829.75 719.41 826.59 719.29 823.41C719.19 821.8 719.23 820.64 719.23 819.22L719.03 815.13C717.75 803.92 714.87 792.95 710.49 782.55ZM789.34 874.19C790.06 869.59 791.65 865.17 794.04 861.18C796.39 857.14 799.23 853.41 802.52 850.09C805.84 846.82 809.52 843.95 813.5 841.52C815.47 840.32 817.51 839.23 819.61 838.25C821.75 837.37 823.89 836.52 826.07 835.81C822.28 838.43 818.54 840.96 815 843.71C811.46 846.42 808.09 849.35 804.92 852.48C801.79 855.64 798.89 859.02 796.26 862.6C793.58 866.23 791.26 870.11 789.34 874.19Z" fill="#155BD5"/>
<path d="M802.24 882.34C810.17 869.66 818.86 857.46 828.27 845.83C832.97 839.99 837.85 834.3 842.92 828.73C848.08 823.2 853.55 817.96 859.29 813.04C865.14 807.9 871.73 803.66 878.83 800.47C882.67 798.85 886.81 798.06 890.98 798.14C895.25 798.25 899.42 799.44 903.1 801.61C909.96 806.03 915.21 812.54 918.06 820.18C919.55 823.81 920.63 827.6 921.27 831.48C922.07 835.49 921.98 839.62 921.03 843.6L919.89 841.1C927.92 845.19 935.66 849.63 943.33 854.25C950.99 858.87 958.55 863.67 965.83 868.88C973.27 873.95 980.17 879.78 986.4 886.27C989.56 889.62 992.23 893.39 994.36 897.48C996.69 901.83 997.24 906.91 995.9 911.66L995.94 911.53C994.92 915.46 992.75 918.99 989.7 921.67C988.04 923 986.11 923.95 984.04 924.45C981.98 924.95 979.83 925 977.74 924.58C973.87 923.79 970.2 922.26 966.91 920.07C963.76 918 960.78 915.69 958.01 913.14L962.8 911.07C962.66 915.97 961.62 920.8 959.71 925.31C957.84 929.87 955.04 933.98 951.49 937.39C947.93 940.76 943.76 943.41 939.21 945.2C937.29 946.04 935.41 946.98 933.59 948.03C932.75 948.51 931.95 949.04 931.18 949.62C930.9 949.84 930.63 950.09 930.38 950.35C930.19 950.52 930.24 950.71 930.41 950.07L929.2 946.66C931.42 948.59 933.26 950.92 934.62 953.54C936.07 956.22 936.83 959.23 936.83 962.28C936.83 965.33 936.07 968.33 934.62 971.02C933.31 973.57 931.57 975.88 929.49 977.86C925.31 981.79 920.01 984.32 914.32 985.08C911.68 985.4 909.02 985.52 906.36 985.45C903.5 985.45 900.66 984.99 897.94 984.11L900.46 984.12C892.15 986.69 883.6 988.45 874.94 989.38C866.3 990.26 857.59 990.21 848.97 989.24C844.47 988.81 840.06 987.77 835.86 986.14C833.52 985.24 831.4 983.84 829.65 982.05C827.9 980.25 826.56 978.1 825.72 975.74C824.48 971.01 825.05 965.99 827.32 961.66C828.33 959.56 829.64 957.62 831.2 955.89C832.87 953.81 835.27 952.44 837.91 952.05L837.61 952.08C838.86 951.89 840.11 951.79 841.37 951.77C842.61 951.74 843.85 951.78 845.08 951.9C847.6 952.11 850.06 952.76 852.35 953.84L850.51 955.99C849.37 953.98 848.49 951.83 847.87 949.61C847.23 947.39 846.94 945.08 847.02 942.78C847.1 940.45 847.76 938.18 848.93 936.16C850.13 934.22 851.75 932.58 853.68 931.36C853.75 931.31 853.85 931.29 853.94 931.31C854.04 931.33 854.12 931.38 854.17 931.46C854.22 931.54 854.24 931.63 854.22 931.72C854.21 931.81 854.16 931.89 854.09 931.94C852.42 933.24 851.07 934.91 850.13 936.81C849.25 938.68 848.84 940.73 848.92 942.8C849.02 944.88 849.44 946.92 850.18 948.87C850.89 950.81 851.83 952.66 852.98 954.38C853.15 954.64 853.24 954.94 853.23 955.26C853.22 955.57 853.11 955.86 852.92 956.11C852.73 956.35 852.46 956.53 852.16 956.61C851.86 956.7 851.55 956.69 851.25 956.58L851.14 956.53C849.12 955.79 846.99 955.39 844.84 955.33C843.75 955.29 842.65 955.31 841.56 955.4C840.48 955.48 839.42 955.63 838.37 955.85L838.22 955.87L838.07 955.88C836.57 956.4 835.27 957.38 834.36 958.67C833.18 960.15 832.21 961.79 831.49 963.54C829.96 966.84 829.71 970.58 830.76 974.06C831.43 975.65 832.43 977.07 833.7 978.24C834.96 979.4 836.46 980.28 838.1 980.82C841.82 982.07 845.7 982.82 849.62 983.04C857.79 983.66 866 983.41 874.11 982.29C882.21 981.29 890.2 979.51 897.96 976.99C898.75 976.73 899.6 976.72 900.4 976.97L900.49 977C904.68 977.92 909.01 978.1 913.27 977.52C917.38 976.99 921.22 975.19 924.25 972.36C927.23 969.77 929.09 966.14 929.46 962.21C929.48 960.33 929.04 958.48 928.18 956.81C927.3 955.05 926.12 953.45 924.69 952.1L924.43 951.87C924 951.47 923.69 950.97 923.52 950.41C923.35 949.85 923.33 949.25 923.47 948.69C923.76 947.5 924.36 946.42 925.22 945.56C925.74 945.02 926.31 944.52 926.92 944.07C927.95 943.31 929.03 942.62 930.15 942C932.23 940.85 934.39 939.83 936.59 938.92C940.44 937.52 943.97 935.39 947 932.64C949.98 929.87 952.39 926.54 954.07 922.84C955.79 919.14 956.82 915.15 957.12 911.07L957.13 910.86C957.16 910.32 957.35 909.81 957.67 909.37C957.98 908.94 958.42 908.6 958.92 908.41C959.42 908.21 959.97 908.16 960.5 908.27C961.03 908.38 961.51 908.63 961.9 909.01C964.37 911.43 967.02 913.65 969.83 915.67C972.46 917.65 975.45 919.11 978.63 919.96C980.08 920.35 981.59 920.42 983.06 920.15C984.54 919.88 985.93 919.29 987.15 918.42C989.65 916.4 991.5 913.69 992.45 910.62L992.49 910.49C993.74 906.6 993.44 902.38 991.64 898.71C989.85 894.78 987.44 891.15 984.5 887.99C978.5 881.5 971.82 875.69 964.57 870.65C949.96 860.58 934.39 851.97 918.1 844.94C917.66 844.74 917.3 844.4 917.09 843.97C916.87 843.54 916.82 843.05 916.92 842.58L916.96 842.43C917.5 839.09 917.34 835.66 916.49 832.38C915.72 828.93 914.56 825.58 913.05 822.39C910.32 816.09 905.76 810.76 899.95 807.1C897.08 805.54 893.89 804.66 890.63 804.54C887.37 804.41 884.12 805.04 881.14 806.37C874.61 809.25 868.53 813.06 863.09 817.68C857.37 822.3 851.92 827.22 846.75 832.44C841.48 837.61 836.38 842.99 831.43 848.51C821.59 859.61 812.01 871.01 802.82 882.75C802.79 882.79 802.76 882.82 802.72 882.84C802.68 882.87 802.63 882.88 802.59 882.89C802.54 882.89 802.49 882.89 802.45 882.88C802.4 882.87 802.36 882.85 802.32 882.82C802.25 882.77 802.21 882.69 802.19 882.6C802.17 882.51 802.19 882.42 802.24 882.34Z" fill="#155BD5"/>
<path d="M873.96 827.94C874 834.55 874.84 841.13 876.46 847.54C877.31 850.57 878.65 853.44 880.43 856.03C882.12 858.46 884.66 860.17 887.55 860.82C890.53 861.54 893.64 861.51 896.61 860.72C899.68 860.01 902.6 858.73 905.2 856.94C910.61 853.18 915.29 848.46 919 843.02C916.37 849.36 912.18 854.93 906.82 859.21C904.06 861.51 900.82 863.16 897.33 864.04C893.85 864.92 890.21 865 886.69 864.29C883.01 863.39 879.8 861.15 877.7 858C875.78 855.01 874.45 851.68 873.77 848.2C872.55 841.49 872.61 834.62 873.96 827.94ZM926.54 891.1C933.33 891.35 939.93 893.38 945.68 897.01C948.58 898.76 951.26 900.84 953.68 903.21C956.1 905.55 958.21 908.19 959.96 911.07C957.42 908.87 954.97 906.69 952.38 904.71C949.82 902.7 947.14 900.86 944.36 899.18C941.59 897.49 938.71 895.97 935.75 894.64C932.76 893.27 929.68 892.09 926.54 891.1ZM851.74 955.19C853.32 956.78 855.14 958.11 857.13 959.14C859.06 960.27 861.02 961.32 863.01 962.35C866.98 964.39 871.01 966.34 875.06 968.26C883.13 972.18 891.31 975.93 899.21 980.56C890.34 978.49 881.72 975.45 873.51 971.48C869.38 969.52 865.4 967.26 861.59 964.73C857.58 962.39 854.21 959.12 851.74 955.19ZM914.72 906.59C916.11 907.35 917.33 908.4 918.3 909.67C918.86 910.35 919.26 911.13 919.48 911.98C919.69 912.83 919.72 913.71 919.56 914.57C919.05 916.27 917.99 917.76 916.54 918.79C915.24 919.8 913.81 920.63 912.29 921.27C911.59 921.56 910.92 921.91 910.27 922.29C909.66 922.59 909.07 922.94 908.5 923.32L906.96 924.67C906.49 925.17 906.07 925.71 905.68 926.28C904.05 928.54 903.08 931.21 902.86 934C902.46 936.74 902.87 939.55 904.05 942.06C905.23 944.57 907.13 946.68 909.5 948.12C910.09 948.52 910.73 948.81 911.42 948.99C912.09 949.21 912.75 949.51 913.45 949.7C914.89 949.98 916.35 950.15 917.82 950.23C919.34 950.27 920.85 950.21 922.36 950.07C923.86 949.8 925.39 949.58 926.94 949.38C925.51 949.95 924.04 950.49 922.54 951C921.01 951.42 919.46 951.75 917.89 951.98C916.27 952.11 914.65 952.12 913.03 952C912.21 951.86 911.4 951.67 910.61 951.44C909.78 951.28 908.98 951 908.24 950.6C905.08 949.17 902.53 946.68 901.02 943.57C899.56 940.48 898.97 937.04 899.31 933.64C899.66 930.24 900.93 926.99 902.98 924.26C903.5 923.58 904.08 922.94 904.7 922.34L906.73 920.75C908.17 919.92 909.68 919.23 911.24 918.7C913.97 918.07 916.35 916.42 917.89 914.08C918.12 913.44 918.2 912.76 918.13 912.08C918.07 911.41 917.85 910.75 917.5 910.17C916.77 908.83 915.83 907.63 914.72 906.59Z" fill="#155BD5"/>
<path d="M885.78 838.13C886.19 840 886.77 841.84 887.49 843.62C888.09 845.32 889.16 846.8 890.57 847.91C891.28 848.41 892.08 848.75 892.94 848.92C893.79 849.08 894.66 849.05 895.5 848.84C896.42 848.67 897.33 848.44 898.22 848.14C899.11 847.8 899.99 847.41 900.94 847.09C900.2 847.73 899.38 848.29 898.57 848.9C897.68 849.37 896.75 849.78 895.79 850.11C894.76 850.46 893.67 850.57 892.59 850.43C891.51 850.28 890.49 849.89 889.58 849.29C887.94 847.95 886.78 846.11 886.26 844.05C885.72 842.13 885.56 840.12 885.78 838.13ZM889.04 835.81C890.95 835.26 892.94 835 894.93 835.02C896.96 835.03 898.98 835.35 900.91 835.97C902.92 836.63 904.68 837.9 905.93 839.61C907.01 841.38 907.38 843.49 906.97 845.53C906.74 843.66 906.02 841.89 904.88 840.39C903.66 839.05 902.09 838.07 900.34 837.57C896.67 836.46 892.87 835.87 889.04 835.81ZM916.35 943.27C917.05 941.82 918.13 940.58 919.47 939.68C920.18 939.19 920.99 938.84 921.84 938.66C922.69 938.49 923.56 938.49 924.41 938.66C926.04 939.18 927.46 940.18 928.5 941.54C928.92 942.23 929.37 942.9 929.73 943.6C930 944.35 930.32 945.07 930.53 945.82C929.49 944.63 928.56 943.44 927.52 942.41C926.55 941.42 925.35 940.7 924.02 940.31C922.7 939.99 921.3 940.18 920.1 940.81C918.75 941.47 917.49 942.29 916.35 943.27ZM853.65 951.18C853.74 948.38 854.45 945.64 855.73 943.16C856.07 942.46 856.55 941.84 857.14 941.33C857.73 940.82 858.41 940.44 859.15 940.21C859.94 940.06 860.74 940.09 861.51 940.3C862.28 940.5 862.99 940.87 863.6 941.39C864.77 942.28 865.77 943.38 866.54 944.64C867.33 945.97 867.59 947.54 867.29 949.06C866.87 950.43 866.15 951.68 865.19 952.74C864.23 953.8 863.05 954.63 861.73 955.19C863.86 953.64 865.38 951.39 866 948.83C866.11 947.64 865.83 946.45 865.21 945.42C864.51 944.39 863.62 943.49 862.6 942.76C862.2 942.37 861.71 942.06 861.17 941.88C860.64 941.7 860.07 941.64 859.5 941.71C858.39 942.09 857.44 942.84 856.83 943.85C855.43 946.13 854.36 948.6 853.65 951.18ZM810.08 930.49C809.91 933.28 809.13 936 807.78 938.46C807.42 939.15 806.93 939.75 806.33 940.25C805.73 940.74 805.03 941.1 804.29 941.31C803.5 941.44 802.7 941.39 801.93 941.17C801.17 940.94 800.47 940.55 799.87 940.01C798.72 939.1 797.75 937.97 797.02 936.69C796.26 935.34 796.04 933.76 796.39 932.25C796.84 930.9 797.59 929.66 798.58 928.63C799.57 927.6 800.77 926.79 802.1 926.27C799.93 927.76 798.36 929.97 797.67 932.51C797.53 933.7 797.77 934.9 798.37 935.94C799.04 937 799.9 937.92 800.91 938.67C801.3 939.08 801.78 939.39 802.31 939.59C802.84 939.78 803.41 939.86 803.97 939.8C805.1 939.46 806.07 938.73 806.7 937.74C808.16 935.49 809.3 933.05 810.08 930.49ZM835.64 976.68C836.37 974.76 837.4 972.95 838.68 971.34C839.34 970.49 840.13 969.74 841.01 969.13C841.52 968.75 842.12 968.5 842.75 968.4C843.38 968.3 844.02 968.36 844.62 968.57C845.68 969.17 846.48 970.15 846.86 971.32C847.25 972.31 847.49 973.35 847.58 974.41C847.83 976.46 847.74 978.54 847.31 980.56C847.09 978.57 846.75 976.6 846.3 974.65C846.08 973.72 845.79 972.81 845.44 971.92C845.04 971.14 844.55 970.3 843.93 970.12C842.77 969.48 840.97 970.92 839.65 972.22C838.24 973.64 836.9 975.13 835.64 976.68Z" fill="#155BD5"/>
<path d="M789.33 882.56L774.9 898.45C774.9 898.45 775.01 918.76 764.72 919.62C764.72 919.62 759.51 924.34 763.22 925.3C766.54 926.12 778.51 923.16 783.69 923.76C783.69 923.76 808.22 918.91 812.4 921.55C813.66 922.4 814.72 923.52 815.5 924.82C816.28 926.12 816.77 927.58 816.94 929.09L818.94 928.87L896.33 933.48L929.9 882.56H789.33ZM889.04 918.19L780.44 916.37L794.62 893.55H903.44L889.04 918.19ZM700.33 919.63C704.51 916.58 709.25 914.36 714.27 913.1C719.38 911.79 724.66 911.33 729.92 911.75C730.39 911.79 730.83 912.01 731.13 912.37C731.44 912.73 731.59 913.2 731.56 913.67C731.52 914.14 731.3 914.58 730.94 914.89C730.59 915.19 730.12 915.35 729.65 915.32C729.58 915.31 729.5 915.3 729.43 915.29C724.55 914.32 719.55 914.18 714.62 914.85C709.6 915.51 704.74 917.14 700.33 919.63ZM729.67 956.52C739.72 956.71 749.77 957.05 759.82 958.01C762.31 958.23 764.91 958.64 767.31 958.92C769.74 959.18 772.18 959.23 774.62 959.06C779.44 958.73 784.17 957.6 788.61 955.7L788.73 955.65C789.17 955.46 789.66 955.45 790.1 955.62C790.54 955.79 790.9 956.13 791.09 956.57C791.28 957 791.29 957.49 791.12 957.93C790.95 958.38 790.61 958.73 790.17 958.92L790.07 958.96C785.15 960.76 779.96 961.7 774.72 961.74C772.13 961.76 769.55 961.56 767 961.13C764.43 960.67 762.09 960.16 759.59 959.78C749.71 958.24 739.69 957.3 729.67 956.52ZM737.42 984.23C740.82 983 744.27 981.86 747.75 980.8C751.27 979.69 754.85 978.81 758.49 978.17C758.96 978.09 759.44 978.21 759.82 978.49C760.21 978.76 760.47 979.18 760.54 979.65C760.62 980.12 760.5 980.6 760.23 980.99C759.95 981.37 759.53 981.63 759.06 981.71C758.96 981.72 758.87 981.73 758.77 981.73H758.74C755.18 981.77 751.64 982.04 748.12 982.55C744.55 983.01 740.98 983.58 737.42 984.23ZM750.87 894C752.7 895.89 754.85 897.45 757.22 898.6C759.62 899.71 762.14 900.54 764.73 901.09C763.36 901.41 761.94 901.48 760.55 901.31C759.14 901.12 757.76 900.72 756.47 900.12C755.2 899.47 754.04 898.61 753.04 897.59C752.04 896.58 751.29 895.35 750.87 894ZM805.38 957.14C804.44 957.15 803.53 956.78 802.85 956.11C802.18 955.44 801.8 954.54 801.79 953.59C801.79 952.64 802.16 951.73 802.83 951.06C803.5 950.39 804.4 950.01 805.35 950L850.59 949.58C851.06 949.56 851.53 949.64 851.97 949.82C852.41 949.99 852.81 950.25 853.15 950.58C853.48 950.91 853.75 951.3 853.93 951.74C854.11 952.17 854.2 952.64 854.2 953.11C854.2 953.58 854.11 954.05 853.94 954.48C853.76 954.92 853.5 955.31 853.17 955.65C852.84 955.98 852.45 956.25 852.02 956.43C851.59 956.62 851.13 956.71 850.66 956.72L805.42 957.14H805.38ZM929.7 955.99C928.75 955.99 927.84 955.61 927.17 954.94C926.5 954.27 926.13 953.37 926.13 952.42C926.12 951.47 926.5 950.56 927.17 949.89C927.84 949.22 928.75 948.85 929.69 948.84L1054.4 948.68H1054.41C1055.35 948.68 1056.26 949.06 1056.93 949.73C1057.6 950.39 1057.98 951.3 1057.98 952.25C1057.98 953.2 1057.61 954.1 1056.94 954.78C1056.27 955.45 1055.36 955.82 1054.41 955.82L929.7 955.99ZM1757.6 954.88C1756.65 954.89 1755.75 954.51 1755.08 953.84C1754.41 953.17 1754.03 952.26 1754.03 951.32C1754.03 950.37 1754.4 949.46 1755.07 948.79C1755.74 948.12 1756.65 947.74 1757.6 947.74L1872.22 947.6H1872.23C1873.17 947.6 1874.08 947.98 1874.75 948.65C1875.42 949.32 1875.8 950.23 1875.8 951.17C1875.8 952.12 1875.42 953.03 1874.76 953.7C1874.09 954.37 1873.18 954.74 1872.23 954.75L1757.61 954.88H1757.6ZM1104.76 953.04H1096.28C1096.05 953.04 1095.84 952.96 1095.67 952.8C1095.51 952.64 1095.42 952.42 1095.42 952.2C1095.42 952.09 1095.44 951.98 1095.48 951.87C1095.52 951.77 1095.58 951.68 1095.66 951.6C1095.74 951.52 1095.83 951.46 1095.93 951.41C1096.03 951.37 1096.14 951.35 1096.25 951.35H1104.76C1104.87 951.35 1104.98 951.37 1105.08 951.41C1105.19 951.45 1105.28 951.52 1105.36 951.6C1105.44 951.67 1105.5 951.77 1105.55 951.87C1105.59 951.97 1105.61 952.08 1105.61 952.2C1105.61 952.31 1105.59 952.42 1105.55 952.52C1105.5 952.62 1105.44 952.72 1105.36 952.8C1105.28 952.88 1105.19 952.94 1105.08 952.98C1104.98 953.02 1104.87 953.04 1104.76 953.04ZM3.7731 964.62C2.8261 964.62 1.9161 964.25 1.2431 963.58C0.570104 962.92 0.190091 962.01 0.185091 961.06C0.181091 960.12 0.553094 959.21 1.22009 958.53C1.88609 957.86 2.79308 957.48 3.74008 957.48L160.981 956.01C161.92 956.03 162.817 956.41 163.488 957.06C164.158 957.72 164.551 958.61 164.585 959.55C164.59 960.02 164.502 960.48 164.326 960.92C164.151 961.36 163.892 961.75 163.563 962.09C163.235 962.42 162.843 962.69 162.411 962.87C161.98 963.06 161.516 963.15 161.047 963.16L3.80609 964.62H3.7731ZM596.803 470.339C598.124 470.293 599.375 469.737 600.293 468.786C601.211 467.836 601.725 466.566 601.725 465.245C601.725 463.924 601.211 462.654 600.293 461.703C599.375 460.753 598.124 460.196 596.803 460.151C595.482 460.196 594.231 460.753 593.312 461.703C592.394 462.654 591.881 463.924 591.881 465.245C591.881 466.566 592.394 467.836 593.312 468.786C594.231 469.737 595.482 470.293 596.803 470.339ZM854.35 371.533L812.64 373.086C798.96 373.501 785.43 373.832 771.97 374.084C758.54 374.27 745.15 374.483 731.82 374.333C718.48 374.233 705.14 373.636 691.66 373.264L693.65 371.281C693.43 378.976 693.08 386.672 692.98 394.368C692.79 402.063 692.79 409.759 692.74 417.455C692.73 432.846 693.05 448.237 693.49 463.628L691.66 461.806L724.95 460.882C725.29 460.872 725.63 460.93 725.94 461.052C726.26 461.174 726.55 461.358 726.79 461.593L726.89 461.687L739.6 473.91H735.23L747.52 461.268C747.82 460.962 748.17 460.718 748.57 460.55C748.96 460.383 749.38 460.294 749.8 460.29L749.89 460.289C767.34 460.145 784.79 459.787 802.24 459.819C810.97 459.776 819.7 459.812 828.42 459.927L854.6 460.258L851.23 463.628C851.47 448.629 851.9 433.627 852.52 418.315L854.35 371.533ZM854.85 371.028L856.68 416.594C857.3 432.065 857.73 447.845 857.97 463.628C857.99 464.509 857.65 465.359 857.03 465.991C856.42 466.623 855.58 466.985 854.7 466.999H854.69L854.6 467L828.42 467.331C819.7 467.436 810.97 467.471 802.24 467.438C784.79 467.47 767.34 467.112 749.89 466.968L752.25 465.991L739.6 478.281L739.53 478.353C739.24 478.63 738.91 478.849 738.54 478.996C738.17 479.143 737.77 479.216 737.37 479.21C736.98 479.205 736.58 479.121 736.22 478.963C735.85 478.805 735.52 478.577 735.24 478.292L735.23 478.281L723.01 465.572L724.95 466.375L691.66 465.451L691.56 465.449C691.09 465.436 690.65 465.236 690.33 464.895C690 464.554 689.83 464.099 689.84 463.629V463.628C690.28 448.237 690.6 432.846 690.59 417.455C690.54 409.759 690.54 402.063 690.35 394.368C690.24 386.673 689.89 378.976 689.68 371.281C689.67 371.028 689.72 370.776 689.81 370.539C689.9 370.303 690.03 370.086 690.21 369.902C690.38 369.718 690.59 369.57 690.82 369.467C691.05 369.364 691.3 369.307 691.55 369.3H691.56L691.66 369.297C705.35 368.925 719.16 368.328 732.98 368.229C746.8 368.079 760.57 368.291 774.29 368.478C788 368.728 801.62 369.06 815.09 369.475L854.85 371.028ZM1333.53 200.708L1272.14 201.77L1211.27 202.537L1090.38 203.386L1030.24 203.174L970.13 202.414C930.02 201.799 889.71 201.505 849.42 201.606L850.57 200.456L850.78 246.629L851.31 292.804L849.42 290.908C884.93 290.425 920.44 289.967 955.95 289.721L1062.49 289.133C1098 288.859 1133.51 289.174 1169.02 289.167C1204.53 289.123 1240.04 289.589 1275.56 289.874H1275.61C1276.37 289.881 1277.1 290.19 1277.63 290.732L1289.99 303.31H1286.07L1298.67 290.983L1298.72 290.936C1298.95 290.707 1299.23 290.527 1299.54 290.405C1299.84 290.284 1300.17 290.223 1300.5 290.228L1333.78 290.711L1331.69 292.804C1331.93 277.649 1332.13 262.495 1332.55 247.139L1333.53 200.708ZM1334.03 200.203L1335.01 246.119C1335.43 261.546 1335.63 277.175 1335.87 292.804C1335.88 293.35 1335.67 293.877 1335.29 294.269C1334.91 294.661 1334.39 294.886 1333.84 294.895L1333.78 294.896L1300.49 295.38L1302.32 294.626L1289.99 307.231C1289.48 307.751 1288.78 308.047 1288.06 308.055C1287.33 308.063 1286.63 307.782 1286.11 307.274L1286.1 307.27L1286.06 307.231L1273.48 294.876L1275.56 295.734C1240.04 296.018 1204.53 296.484 1169.02 296.441C1133.51 296.433 1098 296.748 1062.49 296.474L955.95 295.886C920.44 295.64 884.93 295.183 849.42 294.699H849.37C849.12 294.696 848.88 294.644 848.65 294.548C848.43 294.451 848.22 294.31 848.05 294.134C847.88 293.958 847.74 293.75 847.65 293.522C847.56 293.293 847.52 293.049 847.52 292.804L848.05 246.629L848.26 200.456C848.26 200.151 848.39 199.858 848.6 199.642C848.82 199.427 849.11 199.305 849.42 199.304C889.85 199.406 930.26 199.113 970.88 198.497L1031.86 197.737L1092.81 197.524L1214.1 198.374L1274.33 199.14L1334.03 200.203ZM997.21 3.64C971.01 4.386 945.27 4.904 919.68 5.351C894.03 5.883 868.68 6.12097 843.35 6.31697C818.02 6.51497 792.86 6.35698 767.65 5.79298C742.43 5.36098 717.09 4.65799 691.66 4.53099L692.81 3.38799C692.8 11.084 692.69 18.779 692.77 26.474L692.91 49.562C692.93 64.953 693.31 80.344 693.53 95.736L691.66 93.867L724.95 93.243C725.26 93.237 725.57 93.293 725.86 93.407C726.15 93.521 726.42 93.692 726.65 93.909L726.71 93.974L739.38 106.24H735.46L747.77 93.617C748.03 93.343 748.35 93.125 748.7 92.974C749.06 92.824 749.43 92.744 749.82 92.74L749.89 92.739L811.78 92.202C832.41 92.038 853.04 91.887 873.67 91.919C914.93 91.9 956.2 92.503 997.46 93.052L994.77 95.736L995.87 50.219L997.21 3.64ZM997.71 3.135L999.04 48.904L1000.14 95.736C1000.16 96.431 999.9 97.104 999.42 97.607C998.94 98.11 998.28 98.401 997.58 98.418H997.56L997.46 98.419C956.2 98.969 914.93 99.572 873.67 99.553C853.04 99.586 832.41 99.434 811.78 99.271L749.89 98.732L752.01 97.855L739.38 110.164L739.32 110.219C738.81 110.725 738.11 111.004 737.38 110.995C736.66 110.986 735.97 110.69 735.46 110.171V110.164L723.19 97.499L724.95 98.228L691.66 97.605L691.6 97.604C691.36 97.6 691.12 97.549 690.9 97.453C690.68 97.357 690.48 97.219 690.31 97.045C690.14 96.871 690.01 96.667 689.92 96.442C689.83 96.217 689.79 95.977 689.79 95.736C690.02 80.344 690.4 64.953 690.41 49.562L690.55 26.475C690.64 18.779 690.53 11.084 690.52 3.38799C690.52 3.08499 690.64 2.794 690.86 2.579C691.07 2.365 691.36 2.24397 691.66 2.24397C717.2 2.11697 742.83 1.41399 768.57 0.982987C794.33 0.417987 820.14 0.259993 845.77 0.457993C871.41 0.653993 897.03 0.891973 922.34 1.42497C947.71 1.86997 972.93 2.39 997.71 3.135Z" fill="#155BD5"/>
</svg>
