<svg width="1873" height="960" viewBox="0 0 1873 960" fill="none" xmlns="http://www.w3.org/2000/svg">
<path d="M1616.81 821.55H1621.39C1623.04 804.511 1626.31 787.668 1631.16 771.25C1651.16 703.82 1642.39 695.1 1676.16 652.95C1709.93 610.8 1712.37 523.39 1712.37 523.39C1712.37 523.39 1728.6 424.12 1712.37 380.39C1696.14 336.66 1694.89 292.98 1655.55 246.78C1655.55 246.78 1648.06 308.59 1638.7 336.68C1629.34 364.77 1620.44 391.62 1627.38 459.05C1634.32 526.48 1638.64 532.1 1640.23 549.58C1641.82 567.06 1639.32 640.75 1643.07 652.92C1646.82 665.09 1621.22 749.37 1619.34 785.58C1618.78 796.46 1617.77 808.87 1616.86 821.52L1616.81 821.55Z" fill="#1D3B4C"/>
<path d="M1631.17 821.55C1637.67 806.55 1649.12 791.63 1669.17 782.68C1721.62 759.27 1757 759.79 1781.35 703.6C1805.7 647.41 1805.7 570.6 1814.12 554.7C1814.12 554.7 1791.65 550.95 1769.17 591.22C1746.69 631.49 1731.45 661.46 1718.47 684.87C1705.49 708.28 1686.76 701.73 1670.84 719.52C1657.5 734.43 1645.18 769.12 1640.49 786.73C1638.98 792.447 1636.75 797.949 1633.85 803.1C1631.19 807.79 1628.07 813.48 1626.2 817.54C1625.66 818.832 1625.25 820.171 1624.96 821.54L1631.17 821.55Z" fill="#155BD5"/>
<path d="M1483.19 555.23C1479.44 603.3 1510.03 599.56 1511.28 630.15C1512.53 660.74 1552.49 712.56 1571 749.4C1580.63 768.56 1584.18 797.85 1585.38 821.55H1600.25C1594.5 761.55 1570.16 719.8 1555.61 686.34C1536.88 643.26 1534.07 623.59 1549.99 589.88C1565.91 556.17 1542.5 469.07 1565.16 430.24C1587.82 391.41 1576.21 330.47 1571 307.06C1565.79 283.65 1571.53 267.73 1576.21 243.06C1580.89 218.39 1571 182.52 1571 182.52C1570.16 213.11 1546.87 254.94 1530 281.79C1513.13 308.64 1481.3 381.69 1485 414.79C1488.7 447.89 1486.87 450.38 1486.87 450.38C1475.01 494.71 1486.87 507.2 1483.13 555.27L1483.19 555.23Z" fill="#1D3B4C"/>
<path d="M1572.43 782.49C1574.34 788.22 1580.43 802.88 1586.08 821.55H1595.2C1591.05 797.78 1583.89 770.2 1571.8 754.39C1547.45 722.55 1498.8 708.81 1493.14 685.71C1487.48 662.61 1493.76 593.31 1458.14 554.6C1458.14 554.6 1463.14 597.7 1458.14 609.24C1453.14 620.78 1410.69 674.48 1435.67 719.43C1460.65 764.38 1516.83 758.76 1534.31 768.75C1551.79 778.74 1569.31 773.12 1572.4 782.49H1572.43Z" fill="#155BD5"/>
<path d="M1549.95 575.17C1549.33 621.37 1585.54 638.85 1584.95 664.45C1584.36 690.05 1592.45 717.52 1599.31 738.12C1603.66 751.12 1601.25 787.47 1600.48 821.55H1610.53C1613.06 796.55 1615.84 760.38 1614.92 744.36C1613.67 722.51 1623.66 705.03 1624.92 666.95C1626.18 628.87 1634.29 594.52 1617.43 546.45C1600.57 498.38 1603.66 440.94 1533.09 387.87C1533.09 387.87 1520.61 444.06 1529.97 474.65C1539.33 505.24 1550.58 528.97 1549.97 575.17H1549.95Z" fill="#155BD5"/>
<path d="M1549.95 575.17C1549.33 621.37 1585.54 638.85 1584.95 664.45C1584.36 690.05 1592.45 717.52 1599.31 738.12C1603.66 751.12 1601.25 787.47 1600.48 821.55H1604.65C1605.22 814.43 1605.76 809.96 1605.76 809.96L1607.85 723.8C1607.85 723.8 1603.68 656.37 1596.19 601.43C1588.7 546.49 1533.13 387.87 1533.13 387.87C1533.13 387.87 1520.65 444.06 1530.01 474.65C1539.37 505.24 1550.62 528.97 1550.01 575.17H1549.95Z" fill="#1D3B4C"/>
<path d="M1621.42 782.12H1524.72C1523.17 782.117 1521.64 782.466 1520.24 783.141C1518.84 783.815 1517.62 784.798 1516.65 786.014C1515.69 787.231 1515.02 788.65 1514.68 790.165C1514.35 791.68 1514.36 793.251 1514.72 794.76L1549.97 943.4C1550.5 945.651 1551.78 947.657 1553.59 949.089C1555.41 950.522 1557.66 951.298 1559.97 951.29H1676.13C1678.44 951.298 1680.69 950.522 1682.51 949.089C1684.32 947.657 1685.6 945.651 1686.13 943.4L1721.38 794.76C1721.74 793.251 1721.75 791.68 1721.42 790.165C1721.08 788.65 1720.41 787.231 1719.45 786.014C1718.48 784.798 1717.26 783.815 1715.86 783.141C1714.46 782.466 1712.93 782.117 1711.38 782.12H1621.42Z" fill="#959595"/>
<path d="M8.78 946.58H1863.78C1868.64 946.58 1872.57 949.39 1872.57 952.85C1872.57 956.32 1868.64 959.12 1863.78 959.12H8.78C3.93 959.12 0 956.32 0 952.85C0 949.39 3.93 946.58 8.78 946.58V946.58Z" fill="#193141"/>
<path d="M221.93 952.76H207.75L237.97 690.11H252.15L221.93 952.76Z" fill="#1D3B4C"/>
<path d="M381.98 952.76H396.16L365.94 690.11H351.76L381.98 952.76Z" fill="#1D3B4C"/>
<path d="M470.06 952.76H455.88L486.1 690.11H500.28L470.06 952.76Z" fill="#1D3B4C"/>
<path d="M630.11 952.76H644.29L614.07 690.11H599.89L630.11 952.76Z" fill="#1D3B4C"/>
<path d="M459.33 718.65H265.95C243.28 718.65 223.03 700.28 220.71 677.65L188.71 365.5C186.39 342.84 202.88 324.5 225.55 324.5H418.97C441.64 324.5 461.89 342.88 464.21 365.5L496.21 677.65C498.53 700.32 482.04 718.65 459.37 718.65H459.33Z" fill="#3C75E5"/>
<path d="M513.03 718.65H319.66C296.99 718.65 276.74 700.28 274.42 677.65L242.42 365.5C240.1 342.84 256.59 324.5 279.26 324.5H472.66C495.32 324.5 515.58 342.88 517.9 365.5L549.9 677.65C552.22 700.32 535.73 718.65 513.06 718.65H513.03Z" fill="#478AFF"/>
<path d="M538.94 733H264.84C243.6 733 224.66 715.83 222.45 694.59C220.27 673.35 235.73 656.13 256.97 656.13H531.07C552.31 656.13 571.29 673.35 573.46 694.59C575.66 715.83 560.18 733 538.94 733Z" fill="#3C75E5"/>
<path d="M607.37 733H333.27C312.03 733 293.05 715.79 290.87 694.55C288.66 673.35 304.16 656.13 325.4 656.13H599.5C620.74 656.13 639.72 673.35 641.89 694.59C644.07 715.83 628.61 733.04 607.37 733.04V733Z" fill="#114EB9"/>
<path d="M505.28 433.67L523.28 483.67C523.28 483.67 478.66 494.88 477.49 495.26C476.32 495.64 466.6 446.06 466.6 446.06L505.28 433.67Z" fill="#AE5A3B"/>
<path d="M560.34 847.44C560.34 847.44 527.34 886.96 527.16 890.44C526.98 893.92 528.47 931.44 532.39 934.85C536.31 938.26 547.83 940.73 544.12 944.59C541.33 947.52 519.8 946.89 505.54 946.11C501.37 945.88 496.15 912.65 494.54 907.77C492.14 900.68 486.32 884.7 488.54 879.77C489.6 877.36 494.67 872.41 501.83 867.77C509.35 862.91 538.13 822.86 538.13 822.86L560.42 847.47L560.34 847.44Z" fill="#AE5A3B"/>
<path d="M502.21 867.5C502.21 867.5 524.34 929.82 533.01 932.83C535.31 933.63 546.35 935.65 548.43 940.53C549.05 942 548.43 946.92 548.43 946.92H502.3C502.3 946.92 496.46 919.46 494.16 907.4C494.16 907.4 481.95 877.92 483.3 875.24C484.65 872.56 502.21 867.5 502.21 867.5V867.5Z" fill="#1D3B4C"/>
<path d="M757.5 865.8C757.5 865.8 784.42 903.69 782.05 915.68C780.78 922.1 775.13 930.5 778.37 936.54C781.61 942.58 785.37 944.09 785.37 944.09L869.37 945.44C873.94 945.52 870.92 942.58 867.23 939.87C861.23 935.44 856.32 932.51 837.04 923.21C835.79 922.6 831.21 919.69 829.56 918.69C825.37 916.14 821.17 912.12 817.56 908.1C811.56 901.4 785.02 846.82 785.02 846.82L757.6 865.82L757.5 865.8Z" fill="#AE5A3B"/>
<path d="M660.14 632C660.14 632 626.82 670 618.32 676.06C609.82 682.12 528.24 832.31 528.24 832.31L557.3 853.53C557.3 853.53 630.21 762.65 664.45 714C693.4 672.89 682.74 675.5 699.76 650.47C704.304 643.812 706.29 635.738 705.353 627.732C704.416 619.726 700.619 612.328 694.66 606.9C693.12 605.513 691.454 604.063 689.66 602.55C664.42 581.54 491.66 557.91 491.66 557.91L381.19 568.73C381.19 568.73 471.47 632.03 474.84 633.73C478.21 635.43 599.5 653.11 602.03 653.11C604.56 653.11 660.14 632 660.14 632Z" fill="#193141"/>
<path d="M369.97 569.7C369.97 569.7 350.97 626.55 379.44 653.09C407.91 679.63 576.76 676.67 632.35 676.67C632.35 676.67 655.09 739 657.62 749.11C660.15 759.22 770.49 889.78 770.49 889.78L800.81 870.4C800.81 870.4 682.04 639.61 672.81 629.5C663.58 619.39 531.27 579 498.42 569.7C465.57 560.4 369.97 569.7 369.97 569.7Z" fill="#1D3B4C"/>
<path d="M496.49 235.59C496.08 193.8 463.3 159.1 421.76 173.39C412.42 176.61 399.35 183.97 392.23 190.82C372.99 209.35 365.15 234.51 345.46 252.35C351.797 258.727 358.636 264.586 365.91 269.87L378.36 257.43L372.27 274.3C396.46 290.46 431.66 306 481.88 312.87C492.26 285.37 496.71 257.87 496.49 235.59V235.59Z" fill="#1D3B4C"/>
<path d="M496.11 384.89C475.41 322.09 452.25 324.76 452.25 324.76L470.16 456.76C482.95 453.26 499.59 445.48 512.37 441.87C508.13 422.02 501.21 400.31 496.11 384.87V384.89Z" fill="#4BBCBF"/>
<path d="M399.27 313.49C399.27 313.49 361.12 311.05 346.03 327.54C330.94 344.03 379.5 474.45 382.25 495.43C385 516.41 368.25 572.21 368.25 572.21C368.25 572.21 457.86 590.28 483.48 573.29C483.48 573.29 486.22 422.4 483.48 407.41C480.74 392.42 457.86 331.47 452.38 325.48C446.9 319.49 399.26 313.48 399.26 313.48L399.27 313.49Z" fill="#155BD5"/>
<path d="M410.38 539.29C401.16 534.03 378.9 529.59 378.9 529.59C348.74 601.44 358.73 663.59 395.55 672.47C432.37 681.35 467.94 685.07 595.46 680.07C629.58 601.44 666.1 591.91 666.1 591.91C606.28 561.08 410.38 539.29 410.38 539.29Z" fill="#155BD5"/>
<path d="M411.97 262.4C411.97 262.4 411.77 263.53 411.41 265.4C409.71 274.59 403.16 305.09 398.74 313.47C393.39 323.6 417.04 355.91 439.81 351.97C446.59 350.79 434.08 322.28 434.68 319.26C435.83 313.48 437.39 305.59 438.99 297.5C439.89 292.94 440.8 288.31 441.66 283.96L446.08 261.5L411.97 262.35V262.4Z" fill="#AE5A3B"/>
<path d="M411.41 265.44C411.77 263.52 411.97 262.44 411.97 262.44L446.08 261.59L441.66 284C440.81 288.32 439.9 292.92 439 297.46C433.74 296.68 428.23 294.12 422.72 289.28C417.075 284.329 412.822 277.99 410.38 270.89C410.8 268.73 411.15 266.89 411.38 265.44H411.41Z" fill="#8D4325"/>
<path d="M447.52 191.3C447.52 191.3 431.87 187.18 420.04 198.68C408.21 210.18 391.72 248.68 413.39 273.94C435.06 299.2 463.07 278.13 470.44 252.55C477.81 226.97 483.76 195.55 447.52 191.3Z" fill="#AE5A3B"/>
<path d="M477.83 253.22C474.05 258.56 468.62 261.04 465.72 258.76C462.82 256.48 463.53 250.3 467.31 244.96C471.09 239.62 476.52 237.14 479.42 239.42C482.32 241.7 481.62 247.88 477.83 253.22Z" fill="#AE5A3B"/>
<path d="M449.91 187.28C449.91 187.28 423.2 222.28 407.73 221.84C392.26 221.4 387.37 241.34 387.37 241.34C387.37 241.34 399.49 195.55 415.84 188.73C432.19 181.91 449.91 187.28 449.91 187.28V187.28Z" fill="#1D3B4C"/>
<path d="M640.25 393.36H517.59C515.939 393.461 514.354 394.049 513.036 395.049C511.717 396.049 510.724 397.417 510.18 398.98L458.46 562C457.46 565.1 459.19 567.62 462.29 567.62H584.96C586.611 567.519 588.195 566.931 589.512 565.931C590.829 564.931 591.82 563.563 592.36 562L644.09 399C645.09 395.9 643.36 393.38 640.25 393.38V393.36Z" fill="#1D3B4C"/>
<path d="M410.35 232C410.62 238.93 407.25 244.77 402.81 245C398.37 245.23 394.57 239.87 394.3 232.94C394.03 226.01 397.4 220.17 401.84 219.94C406.28 219.71 410.08 225.07 410.35 232Z" fill="#AE5A3B"/>
<path d="M506.75 512.54C505.95 511.8 506.09 511.31 506.09 511.31C507.36 509.94 507.53 504.51 505.83 503.18C504.13 501.85 494.94 500.34 494.14 499.74C493.34 499.14 491.96 497.87 490.64 497.64C489.32 497.41 480.04 492.57 478.16 492.23C476.28 491.89 469.81 494.39 465.97 494.85C462.13 495.31 456.04 498.78 454.3 499.61C453 500.23 427.78 496.17 421.3 495.21C414.23 494.21 408.8 492.92 408.8 492.92C408.8 492.92 367.8 482.21 324.62 474.26L336.28 439.26L295.8 430.04C290.8 450.04 280.07 480.76 278.69 490.32C275.99 509.11 340.52 514.21 397.69 517.79C403.98 518.19 409.91 518.53 415.33 518.79C422.68 519.46 434.89 521.59 440.52 522.53C443.526 523.217 446.49 524.072 449.4 525.09C451.952 526.143 454.571 527.024 457.24 527.73C458.501 528.365 459.702 529.112 460.83 529.96C461.75 530.58 474.75 532.43 476.83 532.81C478.91 533.19 483.73 532.44 483.73 532.44L492.46 533.3C498.87 533.94 497.46 527.21 497.46 527.21C500.46 527.49 502.12 526.5 502.76 524.82C503.4 523.14 502.99 521.11 503.13 520.82C503.27 520.53 504.23 520.42 504.23 520.42C506.15 520.67 507.72 518.56 508.05 517.17C508.246 515.498 507.775 513.817 506.74 512.49L506.75 512.54Z" fill="#AE5A3B"/>
<path d="M291.77 430.09C291.77 430.09 311.19 353.33 326.47 333.89C341.75 314.45 378.42 309.52 391.47 327.05C404.52 344.58 343.32 442.18 343.32 442.18L291.72 430.09H291.77Z" fill="#4BBCBF"/>
<path d="M560.66 445.68C559.39 450.54 561.57 455.32 565.53 456.36C569.49 457.4 573.74 454.3 575.02 449.44C576.3 444.58 574.1 439.81 570.14 438.77C566.18 437.73 561.93 440.77 560.66 445.68Z" fill="#F7F7F7"/>
<path d="M835.07 920.83C809.56 927.37 790.71 922.92 780.16 918.68C777.44 926.37 773.83 936.03 775.75 941.59C778.09 948.41 781.42 949.95 784.37 950.02C807.67 950.63 869.71 951.47 887.48 951.7C888.035 951.709 888.582 951.558 889.053 951.264C889.525 950.971 889.902 950.548 890.14 950.046C890.377 949.543 890.465 948.983 890.392 948.432C890.319 947.882 890.089 947.364 889.73 946.94C885.33 941.68 836.97 921.99 835.07 920.83V920.83Z" fill="#1D3B4C"/>
<path d="M444.38 266.93L425.05 260.07C425.05 260.07 422.89 267.57 431.3 270.84C441.56 274.84 444.38 266.94 444.38 266.94V266.93Z" fill="#F7F7F7"/>
<path d="M606.89 532.19C608.42 529.19 609.62 521.35 610.44 518.7C610.85 517.37 611.37 515.56 611.74 513.89C611.969 512.854 611.82 511.77 611.322 510.834C610.823 509.897 610.007 509.169 609.02 508.78C606.21 507.66 602.39 506.09 601.02 506.16C598.95 506.27 596.1 510.64 596.35 512.41C596.35 512.41 596.19 512.87 595.15 513.01C593.605 513.498 592.315 514.576 591.56 516.01C591.06 517.29 591.13 519.82 592.78 520.67C592.78 520.67 593.49 521.26 593.42 521.59C593.35 521.92 591.92 523.29 591.51 524.97C591.1 526.65 591.83 528.31 594.36 529.75C594.36 529.75 589.54 534.26 594.94 537.28L597.41 538.66C598.024 539.011 598.703 539.233 599.406 539.314C600.108 539.395 600.82 539.333 601.497 539.131C602.175 538.929 602.805 538.592 603.348 538.139C603.892 537.687 604.338 537.13 604.66 536.5C605.5 534.93 606.34 533.32 606.91 532.19H606.89Z" fill="#AE5A3B"/>
<path d="M746.54 97.51C658.64 97.63 587.4 141.61 587.41 195.75C587.41 222.82 605.24 247.3 634.05 265L595.05 312.55L673.45 282.72C697.129 290.067 721.798 293.727 746.59 293.57C834.49 293.45 905.73 249.47 905.71 195.33C905.69 141.19 834.43 97.4 746.54 97.51V97.51Z" fill="#478AFF"/>
<path d="M1557.72 952.76H1571.9L1541.68 690.11H1527.5L1557.72 952.76Z" fill="#1D3B4C"/>
<path d="M1397.66 952.76H1383.49L1413.71 690.11H1427.89L1397.66 952.76Z" fill="#1D3B4C"/>
<path d="M1309.59 952.76H1323.77L1293.55 690.11H1279.37L1309.59 952.76Z" fill="#1D3B4C"/>
<path d="M1149.53 952.76H1135.36L1165.58 690.11H1179.75L1149.53 952.76Z" fill="#1D3B4C"/>
<path d="M1320.32 718.65H1513.66C1536.32 718.65 1556.58 700.28 1558.9 677.65L1590.9 365.5C1593.22 342.84 1576.72 324.5 1554.06 324.5H1360.66C1337.99 324.5 1317.74 342.88 1315.42 365.5L1283.42 677.65C1281.1 700.32 1297.59 718.65 1320.26 718.65H1320.32Z" fill="#E1F2F3"/>
<path d="M1266.66 718.65H1460.04C1482.7 718.65 1502.96 700.28 1505.28 677.65L1537.28 365.5C1539.6 342.84 1523.11 324.5 1500.44 324.5H1306.98C1284.31 324.5 1264.06 342.88 1261.74 365.5L1229.74 677.65C1227.42 700.32 1243.91 718.65 1266.58 718.65H1266.66Z" fill="#F7F7F7"/>
<path d="M1240.66 733H1514.77C1536.01 733 1554.99 715.79 1557.16 694.55C1559.34 673.31 1543.88 656.09 1522.64 656.09H1248.54C1227.3 656.09 1208.32 673.31 1206.14 694.55C1204.01 715.83 1219.46 733 1240.66 733Z" fill="#E1F2F3"/>
<path d="M1172.27 733H1446.38C1467.62 733 1486.6 715.79 1488.77 694.55C1490.95 673.31 1475.49 656.09 1454.25 656.09H1180.15C1158.91 656.09 1139.93 673.31 1137.75 694.55C1135.58 715.83 1151.04 733 1172.27 733Z" fill="#F7F7F7"/>
<path d="M1119.86 417.38C1118.58 413.69 1136.52 410.78 1137.48 407.05C1138.44 403.32 1114.87 402.96 1114.04 399.68C1112.5 393.68 1139.89 398.5 1139.36 395.68C1138.83 392.86 1110.83 386.46 1113.88 381.68C1116.93 376.9 1142.22 391.35 1142.99 388.06C1143.76 384.77 1118.26 376.7 1118.74 369.5C1119 365.65 1160.59 388.84 1165.43 386.77C1170.27 384.7 1160.31 366.56 1164.16 363.89C1168.01 361.22 1178.93 400.71 1181.58 402.04C1184.23 403.37 1240.41 435.69 1260.42 440.87C1262.88 434.17 1280.48 398.66 1282.65 392.32C1293.86 400.32 1306.89 402.15 1318.47 409.48C1309.99 430.48 1280.94 482.27 1275.07 484.89C1257.22 492.89 1188.47 435.46 1174.74 425.62C1161.01 415.78 1153.11 418.93 1143.8 415.8C1134.49 412.67 1121.13 421.13 1119.86 417.44V417.38Z" fill="#EF9789"/>
<path d="M1294.35 249.89C1293.52 229.84 1296.47 210.03 1305.44 191.36C1313.16 175.3 1332.26 166.18 1349.68 166.16C1404.99 166.09 1412.02 239.16 1447.23 267.35C1457.99 275.96 1470.01 282.98 1480.23 292.27C1517.82 326.57 1500.89 390.06 1466.38 420.12C1442.38 440.99 1404.78 452.85 1375.26 436.53C1359.85 428.02 1348.15 413.87 1339.82 398.36C1327.99 376.36 1320.37 350.95 1311.95 327.5C1303 302.5 1295.5 276.5 1294.39 249.89H1294.35Z" fill="#1D3B4C"/>
<path d="M1315.04 434.47C1315.04 434.47 1356.34 392.11 1366.97 373.71C1377.6 355.31 1359.73 367.29 1341.48 362.45C1334.57 360.61 1336.32 320.11 1323.25 333.28C1301.82 354.88 1274.87 392.64 1274.87 392.64L1315.04 434.47Z" fill="#4BBCBF"/>
<path d="M1373.76 314.7C1373.76 314.7 1410.83 307.38 1427.76 321.51C1444.69 335.64 1424.14 461.3 1424.15 482.13C1424.16 502.96 1435.77 561.82 1435.77 561.82C1435.77 561.82 1323.41 581.48 1305.57 550.21C1305.57 550.21 1300.49 431.07 1301.25 416.09C1302.01 401.11 1318.66 339.84 1323.25 333.28C1327.84 326.72 1373.76 314.7 1373.76 314.7V314.7Z" fill="#155BD5"/>
<path d="M1374 257.35C1374 257.35 1374.19 258.46 1374.54 260.35C1376.22 269.35 1382.7 299.41 1387.07 307.66C1392.36 317.66 1368.98 349.44 1346.47 345.56C1339.77 344.4 1352.13 316.33 1351.54 313.36C1350.4 307.67 1348.86 299.9 1347.28 291.94C1346.39 287.45 1345.49 282.94 1344.64 278.62C1342.24 266.46 1340.27 256.51 1340.27 256.51L1374 257.35V257.35Z" fill="#F8A491"/>
<path d="M1374.54 260.35C1374.19 258.46 1374 257.35 1374 257.35L1340.27 256.51C1340.27 256.51 1342.27 266.46 1344.64 278.62C1345.49 282.87 1346.38 287.4 1347.27 291.87C1352.47 291.1 1357.91 288.58 1363.37 283.81C1368.94 278.942 1373.15 272.703 1375.57 265.71C1375.15 263.58 1374.8 261.71 1374.57 260.35H1374.54Z" fill="#F37458"/>
<path d="M1351.3 180.85C1351.3 180.85 1367.2 179.02 1377.16 191.85C1387.12 204.68 1397.86 244.48 1373.16 266.1C1348.46 287.72 1323.95 263.25 1320.33 237.3C1316.71 211.35 1315.33 179.88 1351.33 180.82L1351.3 180.85Z" fill="#F8A491"/>
<path d="M1312.96 236.95C1315.91 242.68 1320.87 245.86 1324.03 244.04C1327.19 242.22 1327.36 236.1 1324.41 230.37C1321.46 224.64 1316.5 221.47 1313.33 223.28C1310.16 225.09 1310 231.22 1312.96 236.95V236.95Z" fill="#F8A491"/>
<path d="M1349.52 176.6C1349.52 176.6 1370.76 214.42 1385.95 216.17C1401.14 217.92 1403.14 238 1403.14 238C1403.14 238 1397.66 191.71 1382.66 182.78C1367.66 173.85 1349.52 176.61 1349.52 176.61V176.6Z" fill="#1D3B4C"/>
<path d="M1381.97 225.67C1380.73 232.39 1383.21 238.55 1387.52 239.43C1391.83 240.31 1396.3 235.58 1397.52 228.86C1398.74 222.14 1396.27 215.99 1391.97 215.1C1387.67 214.21 1383.18 218.95 1381.97 225.66V225.67Z" fill="#F8A491"/>
<path d="M1239.05 848.56C1239.05 848.56 1273.15 889.45 1273.38 893.01C1273.61 896.57 1272.02 935.41 1267.96 938.96C1263.9 942.51 1251.96 945.04 1255.83 949.05C1258.72 952.05 1280.99 951.43 1295.75 950.61C1300.06 950.38 1305.47 916 1307.17 910.94C1309.65 903.6 1315.68 887.07 1313.43 881.94C1312.33 879.44 1307.08 874.32 1299.67 869.54C1291.89 864.54 1262.11 823.08 1262.11 823.08L1239.05 848.54V848.56Z" fill="#F8A491"/>
<path d="M1299.19 869.32C1299.19 869.32 1276.29 933.8 1267.33 936.91C1264.95 937.74 1253.53 939.83 1251.33 944.91C1250.68 946.43 1251.33 951.51 1251.33 951.51H1299.06C1299.06 951.51 1305.06 923.1 1307.49 910.62C1307.49 910.62 1320.12 880.12 1318.72 877.35C1317.32 874.58 1299.15 869.35 1299.15 869.35L1299.19 869.32Z" fill="#155BD5"/>
<path d="M1034.77 868.2C1034.77 868.2 1006.92 907.41 1009.37 919.81C1010.68 926.46 1016.52 935.15 1013.17 941.4C1009.82 947.65 1005.99 949.21 1005.99 949.21L919.11 950.61C914.38 950.69 917.5 947.61 921.32 944.85C927.57 940.26 932.61 937.24 952.56 927.6C953.86 926.98 958.56 923.97 960.3 922.93C964.63 920.29 968.98 916.13 972.73 911.93C978.97 905 1006.4 848.52 1006.4 848.52L1034.77 868.16V868.2Z" fill="#F8A491"/>
<path d="M960.31 922.92C983.31 928.8 1000.31 924.8 1009.78 920.98C1012.23 927.91 1015.47 936.61 1013.78 941.62C1011.67 947.76 1008.67 949.14 1006.02 949.21C985.02 949.76 929.14 950.51 913.14 950.72C912.643 950.72 912.156 950.579 911.736 950.312C911.316 950.045 910.982 949.663 910.772 949.213C910.562 948.762 910.485 948.261 910.55 947.768C910.615 947.275 910.82 946.811 911.14 946.43C915.14 941.7 958.66 923.97 960.37 922.92H960.31Z" fill="#155BD5"/>
<path d="M1135.5 626.31C1135.5 626.31 1169.99 665.67 1178.79 671.91C1187.59 678.15 1271.99 833.58 1271.99 833.58L1241.92 855.58C1241.92 855.58 1166.48 761.51 1131.05 711.2C1101.05 668.65 1112.13 671.35 1094.51 645.45C1089.8 638.559 1087.75 630.199 1088.72 621.91C1089.69 613.622 1093.63 605.965 1099.8 600.35C1101.39 598.92 1103.12 597.41 1105 595.85C1131.08 574.11 1309.82 549.65 1309.82 549.65L1424.14 560.85C1424.14 560.85 1330.74 626.35 1327.25 628.1C1323.76 629.85 1198.25 648.1 1195.64 648.1C1193.03 648.1 1135.5 626.31 1135.5 626.31V626.31Z" fill="#193141"/>
<path d="M1435.76 561.82C1435.76 561.82 1455.37 620.65 1425.95 648.1C1396.53 675.55 1221.79 672.51 1164.27 672.51C1164.27 672.51 1140.73 737 1138.12 747.46C1135.51 757.92 1021.33 893 1021.33 893L989.95 873C989.95 873 1112.84 634.16 1122.43 623.7C1132.02 613.24 1268.86 571.4 1302.85 561.82C1336.84 552.24 1435.76 561.82 1435.76 561.82V561.82Z" fill="#1D3B4C"/>
<path d="M1341.73 251.85L1365.05 250.64C1365.05 250.64 1364.97 259.52 1354.74 260.35C1342.25 261.35 1341.74 251.84 1341.74 251.84L1341.73 251.85Z" fill="#F7F7F7"/>
<path d="M1341.73 251.85L1365.05 250.64C1365.05 250.64 1364.97 259.52 1354.74 260.35C1342.25 261.35 1341.74 251.84 1341.74 251.84L1341.73 251.85Z" fill="#F7F7F7"/>
<path d="M1209.8 435.29C1208.52 431.6 1226.45 428.69 1227.42 424.96C1228.39 421.23 1204.81 420.86 1203.97 417.59C1202.44 411.59 1229.83 416.41 1229.3 413.59C1228.77 410.77 1200.77 404.37 1203.82 399.59C1206.87 394.81 1232.15 409.25 1232.93 405.97C1233.71 402.69 1208.2 394.55 1208.66 387.35C1208.92 383.5 1250.51 406.69 1255.35 404.61C1260.19 402.53 1250.22 384.41 1254.08 381.74C1257.94 379.07 1268.84 418.56 1271.49 419.89C1274.14 421.22 1330.33 453.54 1350.34 458.72C1352.8 452.02 1370.4 416.51 1372.57 410.17C1383.78 418.17 1396.81 420 1408.39 427.33C1399.91 448.33 1370.85 500.11 1364.99 502.74C1347.13 510.74 1278.39 453.31 1264.66 443.47C1250.93 433.63 1243.02 436.78 1233.72 433.65C1224.42 430.52 1211.05 438.98 1209.78 435.29H1209.8Z" fill="#F8A491"/>
<path d="M1413.78 433C1413.78 433 1438.11 379.07 1441.78 358.15C1445.45 337.23 1427.52 310.95 1408.71 312.64C1389.9 314.33 1361.71 407.44 1361.71 407.44L1413.71 433H1413.78Z" fill="#4BBCBF"/>
<path d="M1032.52 0C1137.52 0.14 1222.65 52.69 1222.63 117.37C1222.63 149.71 1201.33 178.96 1166.92 200.11L1213.51 256.92L1119.84 221.28C1093.67 229.6 1063.96 234.28 1032.45 234.28C927.45 234.14 842.32 181.59 842.34 116.91C842.36 52.23 927.5 -0.0900067 1032.52 0.0399933V0Z" fill="#155BD5"/>
</svg>
