<svg width="416" height="409" viewBox="0 0 416 409" fill="none" xmlns="http://www.w3.org/2000/svg">
<circle cx="208" cy="201" r="138" fill="#155BD5" fill-opacity="0.1"/>
<circle cx="208" cy="201" r="201" fill="#155BD5" fill-opacity="0.1"/>
<circle cx="208" cy="201" r="173" fill="#155BD5" fill-opacity="0.1"/>
<path d="M230.489 139.16C237.658 139.16 243.484 144.986 243.036 151.708L243.036 176.802H173.13L173.13 151.708C173.13 144.538 178.956 138.712 185.677 139.16L201.809 139.16L201.809 112.274L214.357 112.274L214.357 139.16L230.489 139.16ZM230.489 191.142H217.941V216.236L199.121 216.236L199.121 191.142H186.574V216.236L173.578 216.684V241.778C173.578 248.948 179.404 254.774 186.125 254.325L202.258 254.325L202.258 290.175L214.805 290.175L214.805 254.325L230.937 254.325C238.107 254.325 243.932 248.5 243.484 241.778L243.484 216.684L230.937 216.684L230.489 191.142Z" fill="#155BD5"/>
<path d="M208 142V92.7029C208 76.1344 221.431 62.7029 238 62.7029H379C395.569 62.7029 409 49.2715 409 32.7029V7" stroke="#155BD5" stroke-width="13" stroke-linecap="round"/>
<path d="M208 238L208 322.076C208 338.645 194.569 352.076 178 352.076L37 352.076C20.4315 352.076 6.99999 365.508 6.99999 382.076L6.99999 402" stroke="#155BD5" stroke-width="13" stroke-linecap="round"/>
<line x1="153.674" y1="165.699" x2="162.062" y2="175.042" stroke="#155BD5" stroke-width="3" stroke-linecap="round"/>
<line x1="147.701" y1="176.941" x2="159.991" y2="179.513" stroke="#155BD5" stroke-width="3" stroke-linecap="round"/>
<line x1="148.07" y1="187.785" x2="160.291" y2="184.901" stroke="#155BD5" stroke-width="3" stroke-linecap="round"/>
<line x1="256.148" y1="219.728" x2="253.138" y2="207.538" stroke="#155BD5" stroke-width="3" stroke-linecap="round"/>
<line x1="266.706" y1="212.613" x2="257.067" y2="204.565" stroke="#155BD5" stroke-width="3" stroke-linecap="round"/>
<line x1="271.477" y1="202.868" x2="259.336" y2="199.668" stroke="#155BD5" stroke-width="3" stroke-linecap="round"/>
</svg>
