<svg width="540" height="320" viewBox="0 0 540 320" fill="none" xmlns="http://www.w3.org/2000/svg">
<rect width="540" height="320" fill="#00BAC1"/>
<g clip-path="url(#clip0)">
<path d="M325.693 319.095C325.404 319.399 325.104 319.7 324.8 320H290.141C289.856 319.707 289.575 319.407 289.294 319.095C289.283 319.084 289.271 319.069 289.26 319.057C285.495 314.884 283.124 308.818 281.646 302.421C281.551 302.034 281.467 301.642 281.384 301.247C280.996 299.449 280.681 297.632 280.423 295.831C280.377 295.519 280.331 295.208 280.293 294.896C279.944 292.308 279.708 289.761 279.556 287.37C279.537 287.063 279.518 286.762 279.499 286.462C279.221 281.703 279.218 276.931 279.492 272.171C279.492 272.171 279.537 272.171 279.625 272.175C279.879 272.186 280.491 272.213 281.391 272.266C283.872 272.418 288.553 272.798 294.059 273.695C294.359 273.745 294.663 273.798 294.967 273.851C299.623 274.621 304.217 275.734 308.709 277.181C308.991 277.276 309.268 277.371 309.549 277.466L309.553 277.485L312.999 294.782L314.428 279.385C315.564 279.898 316.669 280.445 317.729 281.031C318.026 281.194 318.314 281.358 318.599 281.525C321.023 282.899 323.223 284.634 325.123 286.671C336.426 299.202 334.006 310.403 325.693 319.095Z" fill="#F2F2F2"/>
<path d="M311.209 297.162L311.81 297.828C318.755 305.604 322.9 312.821 324.177 319.385C324.197 319.481 324.211 319.576 324.231 319.671L323.787 319.755L323.359 319.831C322.055 312.674 317.203 305.276 311.147 298.492C310.954 298.271 310.758 298.048 310.556 297.83C307.967 294.981 305.183 292.247 302.369 289.692C302.153 289.492 301.93 289.292 301.708 289.092C297.975 285.738 294.22 282.704 290.872 280.146C290.636 279.964 290.396 279.785 290.16 279.609C284.474 275.303 280.063 272.449 279.079 271.823C278.961 271.745 278.894 271.704 278.878 271.694L279.111 271.322L279.111 271.316L279.348 270.941C279.363 270.951 279.588 271.089 279.996 271.355C281.526 272.342 285.64 275.058 290.758 278.92C290.988 279.095 291.227 279.274 291.463 279.456C294.183 281.529 297.158 283.904 300.162 286.504C300.917 287.156 301.654 287.806 302.372 288.456C302.598 288.653 302.82 288.853 303.036 289.053C306.079 291.815 308.803 294.518 311.209 297.162Z" fill="white"/>
<path d="M294.385 272.958C294.283 273.205 294.172 273.452 294.058 273.695C293.191 275.574 292.081 277.331 290.757 278.921C290.563 279.149 290.365 279.381 290.16 279.609C289.606 280.221 289.015 280.813 288.39 281.384C285.83 283.702 282.796 285.435 279.499 286.462C279.392 286.496 279.29 286.53 279.184 286.561C279.203 286.861 279.222 287.158 279.241 287.465C279.347 287.435 279.45 287.405 279.556 287.37C283.054 286.315 286.274 284.495 288.982 282.042C289.645 281.443 290.275 280.81 290.871 280.145C291.076 279.921 291.274 279.689 291.464 279.457C292.879 277.756 294.058 275.87 294.967 273.851C295.073 273.608 295.179 273.365 295.282 273.118C294.978 273.064 294.678 273.011 294.385 272.958Z" fill="white"/>
<path d="M308.865 276.508C308.819 276.732 308.766 276.956 308.709 277.181C307.679 281.453 305.485 285.357 302.372 288.457C302.155 288.674 301.935 288.887 301.707 289.092C301.642 289.157 301.57 289.225 301.502 289.286C298.669 291.844 295.267 293.688 291.577 294.663C287.888 295.639 284.019 295.719 280.293 294.896C280.206 294.881 280.115 294.858 280.027 294.839C280.073 295.151 280.115 295.466 280.164 295.778C280.251 295.797 280.335 295.816 280.423 295.831C284.243 296.622 288.196 296.501 291.962 295.478C295.727 294.455 299.198 292.559 302.094 289.943C302.186 289.86 302.281 289.78 302.368 289.693C302.596 289.48 302.816 289.267 303.037 289.054C306.223 285.864 308.476 281.864 309.553 277.485C309.61 277.257 309.663 277.028 309.712 276.8C309.431 276.702 309.15 276.603 308.865 276.508Z" fill="white"/>
<path d="M317.729 280.388C317.733 280.601 317.733 280.818 317.729 281.031C317.666 287.037 315.337 292.798 311.209 297.161C310.996 297.389 310.776 297.61 310.556 297.83C310.316 298.062 310.077 298.294 309.83 298.514C306.008 301.96 301.18 304.086 296.058 304.578C290.936 305.07 285.791 303.902 281.383 301.247C281.308 301.208 281.234 301.165 281.163 301.118C281.254 301.521 281.345 301.916 281.444 302.311C281.513 302.349 281.577 302.387 281.646 302.421C286.181 304.951 291.394 305.999 296.555 305.417C301.715 304.834 306.564 302.652 310.423 299.176C310.67 298.951 310.917 298.727 311.148 298.491C311.376 298.275 311.593 298.054 311.809 297.826C315.995 293.41 318.412 287.608 318.599 281.525C318.607 281.32 318.61 281.114 318.61 280.909C318.322 280.73 318.025 280.559 317.729 280.388Z" fill="white"/>
<path d="M240.917 114.932H174.129C173.573 114.932 173.04 114.711 172.647 114.318C172.254 113.924 172.033 113.391 172.032 112.835V62.1046C172.033 61.5485 172.254 61.0155 172.647 60.6223C173.04 60.2291 173.573 60.0079 174.129 60.0073H256.108C256.664 60.0079 257.197 60.2291 257.59 60.6223C257.983 61.0155 258.204 61.5485 258.205 62.1046V97.639C258.2 102.224 256.377 106.62 253.136 109.862C249.895 113.104 245.501 114.927 240.917 114.932Z" fill="white"/>
<path d="M240.918 115.122H174.129C173.523 115.122 172.942 114.881 172.513 114.452C172.085 114.023 171.843 113.442 171.843 112.835V62.1045C171.843 61.4981 172.085 60.9168 172.513 60.488C172.942 60.0592 173.523 59.8179 174.129 59.8172H256.109C256.715 59.8179 257.296 60.0591 257.725 60.4879C258.154 60.9167 258.395 61.4981 258.395 62.1045V97.6389C258.39 102.274 256.547 106.718 253.27 109.996C249.994 113.274 245.552 115.117 240.918 115.122V115.122ZM174.129 60.5774C173.724 60.5778 173.336 60.7389 173.05 61.0252C172.764 61.3115 172.603 61.6997 172.603 62.1045V112.835C172.603 113.24 172.764 113.628 173.05 113.915C173.336 114.201 173.724 114.362 174.129 114.362H240.918C245.35 114.357 249.599 112.594 252.733 109.459C255.867 106.323 257.63 102.073 257.635 97.6389V62.1045C257.635 61.6997 257.474 61.3115 257.188 61.0252C256.902 60.7389 256.514 60.5778 256.109 60.5774H174.129Z" fill="#CCCCCC"/>
<path d="M239.903 77.14H190.334C189.879 77.14 189.443 76.9592 189.121 76.6373C188.799 76.3154 188.618 75.8788 188.618 75.4236C188.618 74.9683 188.799 74.5317 189.121 74.2098C189.443 73.8879 189.879 73.7071 190.334 73.7071H239.903C240.358 73.7078 240.794 73.8889 241.115 74.2107C241.436 74.5326 241.616 74.9688 241.616 75.4236C241.616 75.8783 241.436 76.3145 241.115 76.6364C240.794 76.9582 240.358 77.1393 239.903 77.14V77.14Z" fill="#CCCCCC"/>
<path d="M239.903 88.9645H190.334C189.879 88.9645 189.443 88.7836 189.121 88.4617C188.799 88.1398 188.618 87.7032 188.618 87.248C188.618 86.7928 188.799 86.3562 189.121 86.0343C189.443 85.7124 189.879 85.5316 190.334 85.5316H239.903C240.358 85.5316 240.795 85.7124 241.116 86.0343C241.438 86.3562 241.619 86.7928 241.619 87.248C241.619 87.7032 241.438 88.1398 241.116 88.4617C240.795 88.7836 240.358 88.9645 239.903 88.9645Z" fill="#CCCCCC"/>
<path d="M239.903 101.127H190.334C189.879 101.127 189.443 100.946 189.121 100.624C188.799 100.302 188.618 99.8657 188.618 99.4105C188.618 98.9552 188.799 98.5187 189.121 98.1968C189.443 97.8749 189.879 97.694 190.334 97.694H239.903C240.358 97.694 240.795 97.8749 241.116 98.1968C241.438 98.5187 241.619 98.9552 241.619 99.4105C241.619 99.8657 241.438 100.302 241.116 100.624C240.795 100.946 240.358 101.127 239.903 101.127Z" fill="#CCCCCC"/>
<path d="M255.493 72.5002C261.152 72.5002 265.74 67.9111 265.74 62.2501C265.74 56.5891 261.152 52 255.493 52C249.834 52 245.247 56.5891 245.247 62.2501C245.247 67.9111 249.834 72.5002 255.493 72.5002Z" fill="#6C63FF"/>
<path d="M254.095 67.5848C253.918 67.5848 253.744 67.5436 253.586 67.4644C253.427 67.3852 253.29 67.2703 253.184 67.1287L250.388 63.4001C250.298 63.2803 250.233 63.144 250.196 62.9989C250.159 62.8539 250.15 62.703 250.172 62.5547C250.193 62.4065 250.243 62.2639 250.319 62.1351C250.395 62.0062 250.496 61.8937 250.616 61.8039C250.736 61.714 250.872 61.6487 251.017 61.6115C251.162 61.5744 251.313 61.5661 251.461 61.5873C251.609 61.6085 251.752 61.6587 251.881 61.735C252.009 61.8112 252.122 61.9122 252.212 62.0319L254.041 64.4711L258.738 57.423C258.905 57.1713 259.166 56.9967 259.463 56.9374C259.759 56.8781 260.067 56.939 260.318 57.1067C260.57 57.2745 260.745 57.5353 260.804 57.8318C260.863 58.1283 260.802 58.4363 260.635 58.6879L255.044 67.0771C254.943 67.2288 254.807 67.354 254.647 67.4423C254.488 67.5306 254.309 67.5794 254.127 67.5845C254.116 67.5847 254.106 67.5848 254.095 67.5848Z" fill="white"/>
<path d="M216.266 158.994H149.477C144.894 158.989 140.5 157.166 137.259 153.924C134.018 150.682 132.195 146.286 132.19 141.701V106.166C132.191 105.61 132.412 105.077 132.805 104.684C133.198 104.291 133.731 104.07 134.286 104.069H216.266C216.822 104.07 217.355 104.291 217.748 104.684C218.141 105.077 218.362 105.61 218.363 106.166V156.897C218.362 157.453 218.141 157.986 217.748 158.379C217.355 158.773 216.822 158.994 216.266 158.994V158.994Z" fill="white"/>
<path d="M216.266 159.184H149.477C144.844 159.179 140.401 157.336 137.125 154.058C133.848 150.78 132.005 146.336 132 141.701V106.166C132.001 105.56 132.242 104.979 132.67 104.55C133.099 104.121 133.68 103.88 134.287 103.879H216.266C216.872 103.88 217.454 104.121 217.882 104.55C218.311 104.979 218.552 105.56 218.553 106.166V156.897C218.552 157.504 218.311 158.085 217.882 158.514C217.454 158.943 216.872 159.184 216.266 159.184ZM134.287 104.639C133.882 104.64 133.494 104.801 133.208 105.087C132.921 105.373 132.76 105.761 132.76 106.166V141.701C132.765 146.135 134.528 150.385 137.662 153.521C140.796 156.656 145.045 158.419 149.477 158.424H216.266C216.671 158.424 217.059 158.263 217.345 157.977C217.631 157.69 217.792 157.302 217.793 156.897V106.166C217.792 105.761 217.631 105.373 217.345 105.087C217.059 104.801 216.671 104.64 216.266 104.639H134.287Z" fill="#CCCCCC"/>
<path d="M200.061 121.202H150.492C150.037 121.202 149.6 121.021 149.278 120.699C148.957 120.377 148.776 119.941 148.776 119.485C148.776 119.03 148.957 118.594 149.278 118.272C149.6 117.95 150.037 117.769 150.492 117.769H200.061C200.516 117.769 200.952 117.95 201.274 118.272C201.596 118.594 201.777 119.03 201.777 119.485C201.777 119.941 201.596 120.377 201.274 120.699C200.952 121.021 200.516 121.202 200.061 121.202Z" fill="#CCCCCC"/>
<path d="M200.061 133.026H150.492C150.037 133.026 149.6 132.845 149.278 132.524C148.957 132.202 148.776 131.765 148.776 131.31C148.776 130.855 148.957 130.418 149.278 130.096C149.6 129.774 150.037 129.593 150.492 129.593H200.061C200.516 129.593 200.952 129.774 201.274 130.096C201.596 130.418 201.777 130.855 201.777 131.31C201.777 131.765 201.596 132.202 201.274 132.524C200.952 132.845 200.516 133.026 200.061 133.026Z" fill="#CCCCCC"/>
<path d="M200.061 145.189H150.492C150.037 145.189 149.6 145.008 149.278 144.686C148.957 144.364 148.776 143.928 148.776 143.472C148.776 143.017 148.957 142.58 149.278 142.259C149.6 141.937 150.037 141.756 150.492 141.756H200.061C200.516 141.756 200.952 141.937 201.274 142.259C201.596 142.58 201.777 143.017 201.777 143.472C201.777 143.928 201.596 144.364 201.274 144.686C200.952 145.008 200.516 145.189 200.061 145.189Z" fill="#CCCCCC"/>
<path d="M216.359 116.969C222.018 116.969 226.605 112.38 226.605 106.719C226.605 101.058 222.018 96.469 216.359 96.469C210.7 96.469 206.112 101.058 206.112 106.719C206.112 112.38 210.7 116.969 216.359 116.969Z" fill="#6C63FF"/>
<path d="M214.961 112.054C214.784 112.054 214.609 112.013 214.451 111.933C214.293 111.854 214.155 111.739 214.049 111.598L211.254 107.869C211.164 107.749 211.099 107.613 211.062 107.468C211.024 107.323 211.016 107.172 211.037 107.024C211.059 106.876 211.109 106.733 211.185 106.604C211.261 106.475 211.362 106.363 211.482 106.273C211.602 106.183 211.738 106.118 211.883 106.081C212.028 106.043 212.179 106.035 212.327 106.056C212.475 106.077 212.618 106.128 212.746 106.204C212.875 106.28 212.988 106.381 213.077 106.501L214.906 108.94L219.603 101.892C219.771 101.64 220.032 101.466 220.328 101.406C220.625 101.347 220.933 101.408 221.184 101.576C221.436 101.743 221.61 102.004 221.67 102.301C221.729 102.597 221.668 102.905 221.5 103.157L215.909 111.546C215.808 111.698 215.672 111.823 215.513 111.911C215.353 112 215.175 112.048 214.993 112.053C214.982 112.054 214.972 112.054 214.961 112.054Z" fill="white"/>
<path d="M299.483 206.281H206.031C201.447 206.276 197.053 204.452 193.812 201.21C190.571 197.968 188.748 193.572 188.743 188.987V136.722C188.744 136.005 189.029 135.318 189.536 134.811C190.042 134.304 190.729 134.019 191.446 134.018H299.483C300.2 134.019 300.886 134.304 301.393 134.811C301.9 135.318 302.185 136.005 302.185 136.722V203.577C302.185 204.294 301.9 204.981 301.393 205.488C300.887 205.995 300.2 206.28 299.483 206.281V206.281Z" fill="white"/>
<path d="M299.483 206.471H206.031C201.397 206.466 196.955 204.622 193.678 201.344C190.402 198.067 188.558 193.623 188.553 188.987V136.722C188.554 135.955 188.859 135.219 189.401 134.677C189.944 134.134 190.679 133.829 191.446 133.828H299.483C300.25 133.829 300.985 134.134 301.527 134.677C302.07 135.219 302.375 135.955 302.375 136.722V203.577C302.375 204.345 302.07 205.08 301.527 205.622C300.985 206.165 300.25 206.47 299.483 206.471V206.471ZM191.446 134.588C190.88 134.589 190.338 134.814 189.938 135.214C189.539 135.614 189.314 136.156 189.313 136.722V188.987C189.318 193.421 191.081 197.672 194.215 200.807C197.349 203.942 201.598 205.706 206.031 205.711H299.483C300.049 205.71 300.591 205.485 300.99 205.085C301.39 204.685 301.615 204.143 301.616 203.577V136.722C301.615 136.156 301.39 135.614 300.99 135.214C300.591 134.814 300.049 134.589 299.483 134.588H191.446Z" fill="#CCCCCC"/>
<path d="M278.127 156.536H212.802C212.505 156.537 212.21 156.478 211.936 156.365C211.661 156.251 211.411 156.085 211.201 155.875C210.991 155.665 210.824 155.415 210.71 155.141C210.596 154.866 210.538 154.571 210.538 154.274C210.538 153.977 210.596 153.683 210.71 153.408C210.824 153.133 210.991 152.884 211.201 152.674C211.411 152.464 211.661 152.297 211.936 152.184C212.21 152.07 212.505 152.012 212.802 152.012H278.127C278.424 152.012 278.718 152.07 278.993 152.184C279.268 152.297 279.517 152.464 279.728 152.674C279.938 152.884 280.105 153.133 280.219 153.408C280.332 153.683 280.391 153.977 280.391 154.274C280.391 154.571 280.332 154.866 280.219 155.141C280.105 155.415 279.938 155.665 279.728 155.875C279.517 156.085 279.268 156.251 278.993 156.365C278.718 156.478 278.424 156.537 278.127 156.536Z" fill="#CCCCCC"/>
<path d="M278.127 172.119H212.802C212.505 172.12 212.21 172.061 211.936 171.948C211.661 171.834 211.411 171.668 211.201 171.458C210.991 171.248 210.824 170.998 210.71 170.724C210.596 170.449 210.538 170.154 210.538 169.857C210.538 169.56 210.596 169.265 210.71 168.991C210.824 168.716 210.991 168.467 211.201 168.257C211.411 168.047 211.661 167.88 211.936 167.766C212.21 167.653 212.505 167.595 212.802 167.595H278.127C278.727 167.595 279.302 167.833 279.726 168.258C280.15 168.682 280.388 169.257 280.388 169.857C280.388 170.457 280.15 171.032 279.726 171.457C279.302 171.881 278.727 172.119 278.127 172.119Z" fill="#CCCCCC"/>
<path d="M278.127 188.148H212.802C212.202 188.148 211.627 187.909 211.203 187.485C210.779 187.061 210.541 186.486 210.541 185.886C210.541 185.286 210.779 184.71 211.203 184.286C211.627 183.862 212.202 183.624 212.802 183.624H278.127C278.424 183.623 278.718 183.681 278.993 183.795C279.268 183.908 279.517 184.075 279.728 184.285C279.938 184.495 280.105 184.745 280.219 185.019C280.332 185.294 280.391 185.588 280.391 185.886C280.391 186.183 280.332 186.477 280.219 186.752C280.105 187.027 279.938 187.276 279.728 187.486C279.517 187.696 279.268 187.863 278.993 187.976C278.718 188.09 278.424 188.148 278.127 188.148Z" fill="#CCCCCC"/>
<path d="M299.822 151.085C306.986 151.085 312.793 145.276 312.793 138.11C312.793 130.944 306.986 125.135 299.822 125.135C292.659 125.135 286.852 130.944 286.852 138.11C286.852 145.276 292.659 151.085 299.822 151.085Z" fill="#6C63FF"/>
<path d="M298.053 144.863C297.829 144.863 297.608 144.811 297.408 144.711C297.208 144.61 297.033 144.465 296.899 144.286L293.36 139.566C293.247 139.414 293.164 139.241 293.117 139.058C293.07 138.874 293.059 138.683 293.086 138.496C293.113 138.308 293.177 138.127 293.273 137.964C293.37 137.801 293.497 137.659 293.649 137.545C293.801 137.431 293.973 137.349 294.157 137.302C294.34 137.255 294.531 137.244 294.719 137.271C294.906 137.298 295.087 137.361 295.25 137.458C295.413 137.554 295.555 137.682 295.669 137.834L297.984 140.921L303.93 131.999C304.142 131.681 304.472 131.461 304.847 131.386C305.222 131.311 305.612 131.388 305.93 131.601C306.248 131.813 306.469 132.143 306.544 132.518C306.619 132.893 306.543 133.282 306.331 133.601L299.254 144.22C299.126 144.412 298.954 144.571 298.752 144.683C298.55 144.794 298.324 144.856 298.093 144.863C298.08 144.863 298.066 144.863 298.053 144.863Z" fill="white"/>
<path d="M333.426 309.641L328.148 311.407L318.83 291.885L326.618 289.279L333.426 309.641Z" fill="#FFB6B6"/>
<path d="M336.482 314.308L319.466 318.86L319.394 318.645C318.803 316.875 318.935 316.121 319.768 314.451C320.175 313.629 320.742 312.896 321.434 312.294C322.126 311.692 322.931 311.233 323.802 310.944L323.803 310.944L326.122 307.545L332.71 307.964L334.195 307.467L336.482 314.308Z" fill="#2F2E41"/>
<path d="M346.464 314.605H340.899L338.252 293.134L346.465 293.134L346.464 314.605Z" fill="#FFB6B6"/>
<path d="M347.883 318.86L329.94 318.86V318.633C329.941 316.767 330.667 316.152 331.986 314.833C332.633 314.182 333.403 313.667 334.25 313.315C335.098 312.964 336.007 312.785 336.924 312.787H336.925L340.202 310.3L346.317 312.787L347.883 312.787L347.883 318.86Z" fill="#2F2E41"/>
<path d="M304.115 142.578C304.229 143.162 304.47 143.713 304.821 144.192C305.171 144.672 305.623 145.07 306.143 145.356C306.664 145.643 307.241 145.812 307.833 145.851C308.426 145.89 309.02 145.799 309.574 145.584L315.998 152.293L321.026 149.382L311.821 140.035C311.398 139.128 310.657 138.408 309.739 138.012C308.82 137.615 307.789 137.569 306.839 137.882C305.889 138.196 305.087 138.847 304.585 139.713C304.083 140.578 303.915 141.598 304.115 142.578V142.578Z" fill="#FFB6B6"/>
<path d="M345.689 176.313L348.585 173.315L331.837 157.799L314.982 142.744L310.313 149.343L327.977 165.836L345.689 176.313Z" fill="#E4E4E4"/>
<path d="M335.399 278.136C335.399 274.369 335.473 271.682 335.533 269.523C335.708 263.205 335.755 261.507 333.338 250.626L332.717 247.832L329.057 258.818C327.888 262.322 327.29 265.992 327.287 269.686L332.932 303.563H321.396L312.947 266.939L312.943 255.736C312.198 254.966 311.782 253.936 311.782 252.864C311.782 251.793 312.198 250.763 312.943 249.992L315.75 233.209L318.591 210.589H349.711C349.711 210.589 355.203 221.977 349.745 233.273L349.745 278.15L346.925 309.179H338.219L335.399 278.136Z" fill="#2F2E41"/>
<path d="M347.808 213.327L318.699 210.9L318.548 210.888L320.871 169.059C321.008 166.429 321.93 163.901 323.519 161.801C325.109 159.701 327.291 158.127 329.784 157.282V154.355C329.785 153.63 330.073 152.936 330.585 152.423C331.098 151.911 331.792 151.623 332.516 151.622H336.769C337.277 151.62 337.775 151.761 338.207 152.028C338.639 152.295 338.987 152.678 339.213 153.133L341.292 157.294L349.157 163.587C353.041 166.696 349.915 197.861 349.747 199.506L351.649 209.019C351.753 209.543 351.741 210.083 351.612 210.601C351.483 211.118 351.241 211.601 350.903 212.014C350.565 212.428 350.14 212.761 349.658 212.99C349.177 213.219 348.65 213.339 348.116 213.34C348.014 213.34 347.912 213.335 347.808 213.327Z" fill="#E4E4E4"/>
<path d="M316.982 224.371C317.443 223.995 317.815 223.523 318.073 222.988C318.331 222.452 318.468 221.867 318.476 221.273C318.483 220.678 318.36 220.09 318.115 219.548C317.87 219.006 317.51 218.525 317.059 218.138L319.947 209.308L315.012 206.244L311.108 218.77C310.508 219.571 310.223 220.564 310.306 221.561C310.389 222.558 310.834 223.491 311.558 224.181C312.282 224.871 313.235 225.272 314.234 225.307C315.234 225.342 316.212 225.009 316.982 224.371V224.371Z" fill="#FFB6B6"/>
<path d="M327.134 164.346L323.126 163.01L317.338 188.843L312.007 214.534L320.025 215.714L326.243 188.397L327.134 164.346Z" fill="#E4E4E4"/>
<path d="M331.51 148.948C336.79 148.948 341.07 144.667 341.07 139.385C341.07 134.103 336.79 129.821 331.51 129.821C326.23 129.821 321.95 134.103 321.95 139.385C321.95 144.667 326.23 148.948 331.51 148.948Z" fill="#FFB6B6"/>
<path d="M318.646 134.701C318.734 133.795 318.994 132.914 319.411 132.104C319.858 133.077 321.252 133.245 322.206 132.761C323.161 132.278 323.8 131.359 324.482 130.534C326.281 128.358 328.755 126.594 331.56 126.272C334.364 125.951 337.455 127.367 338.515 129.984C338.99 129.324 340.005 129.25 340.722 129.634C341.415 130.071 341.956 130.712 342.271 131.469C342.977 132.918 343.375 134.497 343.442 136.107C343.509 137.717 343.243 139.323 342.66 140.825C341.479 143.815 338.563 147.842 335.554 148.97C333.728 149.655 331.883 148.778 329.94 148.97C330.042 146.849 330.453 144.233 330.555 142.112C330.61 140.95 330.619 139.651 329.826 138.801C329.582 138.57 329.291 138.395 328.973 138.289C328.655 138.183 328.317 138.148 327.984 138.187C327.651 138.226 327.33 138.338 327.045 138.514C326.76 138.691 326.517 138.928 326.333 139.209C326.235 138.549 326.013 137.915 325.677 137.338C325.506 137.053 325.257 136.821 324.96 136.669C324.664 136.516 324.33 136.45 323.998 136.478C323.187 136.611 322.686 137.444 321.942 137.792C321.519 137.962 321.055 137.998 320.611 137.896C320.167 137.795 319.765 137.559 319.458 137.223C319.16 136.879 318.934 136.478 318.795 136.045C318.656 135.612 318.605 135.155 318.646 134.701V134.701Z" fill="#2F2E41"/>
<path opacity="0.1" d="M332.747 188.281L321.52 210.745H329.941L332.747 188.281Z" fill="black"/>
<path d="M408 319.548C408 319.607 407.989 319.666 407.966 319.721C407.943 319.776 407.91 319.826 407.868 319.868C407.826 319.91 407.776 319.943 407.721 319.966C407.666 319.989 407.607 320 407.548 320H193.149C193.029 320 192.914 319.952 192.83 319.868C192.745 319.783 192.697 319.668 192.697 319.548C192.697 319.428 192.745 319.313 192.83 319.228C192.914 319.143 193.029 319.095 193.149 319.095H407.548C407.607 319.095 407.666 319.107 407.721 319.129C407.776 319.152 407.826 319.185 407.868 319.227C407.91 319.27 407.943 319.319 407.966 319.374C407.989 319.429 408 319.488 408 319.548V319.548Z" fill="#CACACA"/>
</g>
<defs>
<clipPath id="clip0">
<rect width="276" height="268" fill="white" transform="translate(132 52)"/>
</clipPath>
</defs>
</svg>
