<svg width="540" height="320" viewBox="0 0 540 320" fill="none" xmlns="http://www.w3.org/2000/svg">
<rect width="540" height="320" fill="#155BD5"/>
<g clip-path="url(#clip0)">
<rect opacity="0.1" x="75" y="46" width="230" height="165" rx="5" fill="white"/>
<path d="M366.005 320H310.043C309.683 319.644 309.327 319.284 308.976 318.915C305.29 315.075 302.132 310.762 299.586 306.09C293.655 295.166 291.273 282.468 294.668 270.673C294.755 270.372 294.841 270.071 294.937 269.771C295.12 270.049 295.307 270.327 295.498 270.6C298.023 274.321 300.844 277.832 303.934 281.1C304.167 281.356 304.409 281.611 304.655 281.862C312.183 289.661 321.097 295.992 330.943 300.532C333.142 301.549 335.384 302.468 337.668 303.29C339.439 303.933 341.236 304.512 343.047 305.032C350.653 307.207 359.34 308.834 363.843 315.331C364.607 316.438 365.218 317.644 365.658 318.915C365.791 319.271 365.905 319.635 366.005 320Z" fill="#F0F0F0"/>
<path d="M351.278 318.915C351.626 319.257 351.954 319.619 352.259 320H351.155C350.811 319.615 350.442 319.252 350.051 318.915C348.829 317.848 347.354 317.11 345.767 316.772C344.739 316.569 343.692 316.483 342.646 316.517C340.575 316.562 338.485 316.95 336.441 317.182C335.926 317.242 335.41 317.287 334.899 317.315C332.233 317.511 329.555 317.134 327.047 316.207C323.917 315.021 321.107 313.079 318.57 310.922C316.937 309.536 315.373 308.068 313.88 306.518L313.305 305.916C304.062 296.038 297.627 283.87 294.668 270.673C294.609 270.422 294.554 270.167 294.499 269.912C294.39 269.388 295.22 269.315 295.329 269.834C295.384 270.09 295.439 270.345 295.498 270.6C296.696 275.95 298.485 281.151 300.832 286.106C300.946 286.362 301.064 286.612 301.192 286.859C304.508 293.719 308.87 300.024 314.122 305.547C314.172 305.606 314.227 305.661 314.286 305.72C315.513 307.002 316.789 308.236 318.114 309.423C320.605 311.652 323.329 313.695 326.404 315.049C328.942 316.156 331.704 316.657 334.47 316.512C334.744 316.503 335.022 316.485 335.3 316.462C335.519 316.444 335.738 316.426 335.962 316.403C338.052 316.179 340.16 315.787 342.272 315.701C343.228 315.656 344.187 315.696 345.137 315.819C347.468 316.152 349.625 317.24 351.278 318.915V318.915Z" fill="white"/>
<path d="M314.19 306.268C312.168 307.969 309.606 308.896 306.963 308.885C304.32 308.873 301.767 307.922 299.76 306.203C299.355 305.854 299.879 305.209 300.285 305.559C302.151 307.163 304.529 308.048 306.99 308.054C309.452 308.06 311.834 307.187 313.708 305.591C314.115 305.245 314.595 305.924 314.19 306.268V306.268Z" fill="white"/>
<path d="M334.445 316.767C334.956 311.391 333.42 306.021 330.144 301.726C329.819 301.301 330.497 300.82 330.821 301.244C334.222 305.72 335.809 311.311 335.265 316.904C335.213 317.437 334.393 317.297 334.445 316.767V316.767Z" fill="white"/>
<path d="M300.605 286.24C301.525 285.744 302.307 285.029 302.882 284.157C303.456 283.285 303.805 282.284 303.896 281.244C303.942 280.71 304.761 280.851 304.716 281.381C304.609 282.53 304.223 283.635 303.591 284.6C302.958 285.564 302.099 286.36 301.088 286.916C300.997 286.977 300.886 287 300.779 286.982C300.671 286.964 300.574 286.906 300.508 286.819C300.445 286.729 300.419 286.618 300.437 286.509C300.456 286.401 300.516 286.304 300.605 286.24V286.24Z" fill="white"/>
<path d="M381.303 319.658L381.052 320H344.384C344.197 319.64 344.01 319.28 343.827 318.915C343.422 318.122 343.028 317.322 342.646 316.517C342.518 316.252 342.386 315.983 342.272 315.705V315.701C340.4 311.698 338.861 307.549 337.668 303.295V303.29C337.021 300.96 336.492 298.598 336.085 296.214C335.044 290.05 334.981 283.76 335.898 277.576C335.903 277.544 335.907 277.512 335.912 277.48C337.76 265.188 343.508 253.622 353.317 246.245C353.322 246.24 353.322 246.24 353.326 246.24C353.577 246.049 353.824 245.871 354.075 245.684C354.056 246.017 354.038 246.34 354.024 246.673V246.691C353.795 251.18 353.93 255.679 354.43 260.146V260.15C354.462 260.497 354.504 260.843 354.544 261.19V261.195C355.863 271.946 359.168 282.359 364.29 291.906C364.29 291.906 364.29 291.907 364.29 291.908C364.29 291.908 364.291 291.909 364.291 291.909C364.291 291.909 364.292 291.91 364.293 291.91C364.293 291.91 364.294 291.91 364.294 291.91C366.332 295.707 368.658 299.343 371.252 302.784C374.833 307.544 379.095 312.413 380.847 317.912C380.956 318.245 381.052 318.577 381.139 318.915C381.198 319.161 381.253 319.412 381.303 319.658Z" fill="#D7D7D7"/>
<path d="M369.573 320H368.725C368.707 319.635 368.675 319.275 368.624 318.915C368.384 317.021 367.591 315.24 366.343 313.795C364.267 311.429 361.315 310.084 358.651 308.515C358.204 308.251 357.766 307.977 357.342 307.69C355.09 306.246 353.178 304.333 351.734 302.082C349.955 299.251 348.883 296.009 348.153 292.763C347.683 290.67 347.321 288.555 347.067 286.426C347.026 286.152 346.994 285.874 346.967 285.596C345.532 272.145 347.729 258.556 353.327 246.24C353.427 246.003 353.537 245.766 353.646 245.533C353.87 245.05 354.577 245.492 354.349 245.971C354.239 246.204 354.13 246.441 354.025 246.673C351.759 251.671 350.053 256.903 348.938 262.275C348.878 262.549 348.824 262.822 348.773 263.091C347.29 270.561 346.973 278.216 347.834 285.783C347.843 285.874 347.852 285.96 347.861 286.047C348.075 287.807 348.352 289.555 348.691 291.29C349.339 294.568 350.284 297.837 351.921 300.769C353.281 303.178 355.184 305.237 357.479 306.783C357.707 306.947 357.939 307.102 358.176 307.252C358.364 307.371 358.551 307.489 358.742 307.603C361.361 309.172 364.222 310.476 366.411 312.655C368.096 314.346 369.171 316.548 369.468 318.915C369.522 319.275 369.557 319.637 369.573 320V320Z" fill="white"/>
<path d="M347.46 286.41C344.821 286.552 342.217 285.751 340.113 284.151C338.01 282.551 336.544 280.257 335.978 277.676C335.865 277.154 336.672 276.954 336.785 277.477C337.308 279.881 338.674 282.019 340.635 283.504C342.597 284.99 345.025 285.726 347.483 285.58C348.017 285.548 347.991 286.379 347.46 286.41Z" fill="white"/>
<path d="M357.307 306.979C360.953 302.994 362.963 297.782 362.934 292.383C362.931 291.848 363.762 291.871 363.765 292.405C363.784 298.024 361.682 303.444 357.879 307.582C357.516 307.977 356.946 307.371 357.307 306.979V306.979Z" fill="white"/>
<path d="M348.68 262.245C349.712 262.403 350.768 262.302 351.752 261.951C352.736 261.601 353.618 261.011 354.317 260.236C354.675 259.838 355.244 260.443 354.889 260.839C354.112 261.692 353.138 262.342 352.051 262.732C350.965 263.122 349.8 263.24 348.657 263.076C348.548 263.069 348.446 263.022 348.371 262.942C348.296 262.863 348.253 262.758 348.253 262.649C348.256 262.539 348.303 262.435 348.383 262.36C348.463 262.284 348.57 262.243 348.68 262.245H348.68Z" fill="white"/>
<path d="M87.0474 60.0116C88.9427 60.0116 90.4791 58.442 90.4791 56.5058C90.4791 54.5696 88.9427 53 87.0474 53C85.1521 53 83.6157 54.5696 83.6157 56.5058C83.6157 58.442 85.1521 60.0116 87.0474 60.0116Z" fill="white"/>
<path d="M98.9024 60.0116C100.798 60.0116 102.334 58.442 102.334 56.5058C102.334 54.5696 100.798 53 98.9024 53C97.0071 53 95.4707 54.5696 95.4707 56.5058C95.4707 58.442 97.0071 60.0116 98.9024 60.0116Z" fill="white"/>
<path d="M110.757 60.0116C112.653 60.0116 114.189 58.442 114.189 56.5058C114.189 54.5696 112.653 53 110.757 53C108.862 53 107.326 54.5696 107.326 56.5058C107.326 58.442 108.862 60.0116 110.757 60.0116Z" fill="white"/>
<path d="M294.796 54.1443H286.373C286.206 54.1407 286.048 54.0719 285.931 53.9528C285.814 53.8336 285.749 53.6736 285.749 53.5069C285.749 53.3403 285.814 53.1802 285.931 53.0611C286.048 52.9419 286.206 52.8732 286.373 52.8695H294.796C294.963 52.8732 295.122 52.9419 295.238 53.0611C295.355 53.1802 295.42 53.3403 295.42 53.5069C295.42 53.6736 295.355 53.8336 295.238 53.9528C295.122 54.0719 294.963 54.1407 294.796 54.1443V54.1443Z" fill="white"/>
<path d="M294.796 56.5346H286.373C286.206 56.531 286.048 56.4622 285.931 56.3431C285.814 56.2239 285.749 56.0639 285.749 55.8972C285.749 55.7306 285.814 55.5705 285.931 55.4514C286.048 55.3323 286.206 55.2635 286.373 55.2598H294.796C294.963 55.2635 295.122 55.3323 295.238 55.4514C295.355 55.5705 295.42 55.7306 295.42 55.8972C295.42 56.0639 295.355 56.2239 295.238 56.3431C295.122 56.4622 294.963 56.531 294.796 56.5346V56.5346Z" fill="white"/>
<path d="M294.796 58.925H286.373C286.206 58.9213 286.048 58.8525 285.931 58.7334C285.814 58.6143 285.749 58.4542 285.749 58.2876C285.749 58.1209 285.814 57.9609 285.931 57.8417C286.048 57.7226 286.206 57.6538 286.373 57.6501H294.796C294.963 57.6538 295.122 57.7226 295.238 57.8417C295.355 57.9609 295.42 58.1209 295.42 58.2876C295.42 58.4542 295.355 58.6143 295.238 58.7334C295.122 58.8525 294.963 58.9213 294.796 58.925V58.925Z" fill="white"/>
<path d="M303.58 66.2219H75.4562C75.3352 66.2219 75.2192 66.1739 75.1336 66.0884C75.0481 66.0029 75 65.8869 75 65.766C75 65.6451 75.0481 65.5291 75.1336 65.4436C75.2192 65.3581 75.3352 65.3101 75.4562 65.3101H303.58C303.701 65.3101 303.817 65.3581 303.903 65.4436C303.988 65.5291 304.036 65.6451 304.036 65.766C304.036 65.8869 303.988 66.0029 303.903 66.0884C303.817 66.1739 303.701 66.2219 303.58 66.2219Z" fill="white"/>
<path d="M210.365 153.69H166.153C165.06 153.69 164.174 154.576 164.174 155.669C164.174 156.761 165.06 157.647 166.153 157.647H210.365C211.458 157.647 212.344 156.761 212.344 155.669C212.344 154.576 211.458 153.69 210.365 153.69Z" fill="white"/>
<path d="M219.768 161.603H156.751C155.657 161.603 154.771 162.489 154.771 163.582C154.771 164.674 155.657 165.56 156.751 165.56H219.768C220.861 165.56 221.748 164.674 221.748 163.582C221.748 162.489 220.861 161.603 219.768 161.603Z" fill="white"/>
<path d="M219.768 169.516H156.751C155.657 169.516 154.771 170.402 154.771 171.495C154.771 172.587 155.657 173.473 156.751 173.473H219.768C220.861 173.473 221.748 172.587 221.748 171.495C221.748 170.402 220.861 169.516 219.768 169.516Z" fill="white"/>
<path d="M211.734 91.2283H167.523C166.429 91.2283 165.543 92.114 165.543 93.2066V93.2066C165.543 94.2992 166.429 95.1849 167.523 95.1849H211.734C212.827 95.1849 213.713 94.2992 213.713 93.2066C213.713 92.114 212.827 91.2283 211.734 91.2283Z" fill="white"/>
<path d="M221.137 99.1414H158.119C157.026 99.1414 156.14 100.027 156.14 101.12V101.12C156.14 102.212 157.026 103.098 158.119 103.098H221.137C222.23 103.098 223.116 102.212 223.116 101.12C223.116 100.027 222.23 99.1414 221.137 99.1414Z" fill="white"/>
<path d="M221.137 107.054H158.119C157.026 107.054 156.14 107.94 156.14 109.033V109.033C156.14 110.125 157.026 111.011 158.119 111.011H221.137C222.23 111.011 223.116 110.125 223.116 109.033C223.116 107.94 222.23 107.054 221.137 107.054Z" fill="white"/>
<path d="M378.383 308.673H372.535L369.753 286.132L378.384 286.133L378.383 308.673Z" fill="#E6B9BF"/>
<path d="M381.529 319.769H377.379L376.639 315.854L374.742 319.769H363.736C363.209 319.769 362.695 319.601 362.27 319.288C361.845 318.976 361.531 318.536 361.374 318.033C361.217 317.529 361.225 316.989 361.397 316.491C361.569 315.992 361.896 315.562 362.331 315.262L371.119 309.197V305.239L380.363 305.79L381.529 319.769Z" fill="#2F2E41"/>
<path d="M432.685 302.858L427.508 305.574L414.559 286.91L422.201 282.9L432.685 302.858Z" fill="#E6B9BF"/>
<path d="M440.632 311.22L436.958 313.148L434.481 310.026L434.623 314.373L424.879 319.486C424.412 319.731 423.879 319.82 423.357 319.741C422.836 319.662 422.353 319.418 421.98 319.046C421.607 318.673 421.363 318.191 421.283 317.67C421.204 317.149 421.293 316.616 421.538 316.149L426.498 306.696L424.656 303.191L433.097 299.385L440.632 311.22Z" fill="#2F2E41"/>
<path d="M356.034 92.7497V111.464C360.362 110.308 364.819 109.696 369.299 109.643C372.437 109.612 375.572 109.873 378.662 110.423C380.204 110.692 381.764 111.039 383.344 111.464C386.657 104.505 387.702 98.0404 383.344 92.7497C383.344 91.2648 383.052 89.7944 382.483 88.4225C381.915 87.0506 381.082 85.8041 380.031 84.7541C378.98 83.7042 377.733 82.8713 376.36 82.3032C374.987 81.7351 373.516 81.4428 372.03 81.4431H367.348C365.862 81.4428 364.391 81.7351 363.018 82.3032C361.645 82.8713 360.398 83.7042 359.347 84.7541C358.296 85.8041 357.463 87.0506 356.894 88.4225C356.326 89.7944 356.033 91.2648 356.034 92.7497V92.7497Z" fill="#2F2E41"/>
<path d="M413.121 291.909L384.486 242.221C384.225 241.763 384.09 241.244 384.095 240.716C384.101 240.189 384.247 239.672 384.518 239.22L396.71 218.914C396.999 218.433 397.419 218.043 397.921 217.79C398.423 217.537 398.986 217.432 399.546 217.486C400.105 217.541 400.637 217.752 401.081 218.097C401.525 218.442 401.862 218.905 402.053 219.433L426.664 285.56C426.918 286.255 426.902 287.019 426.62 287.702C426.338 288.386 425.811 288.939 425.141 289.253L416.973 293.119C416.579 293.305 416.149 293.402 415.713 293.402C415.187 293.403 414.671 293.265 414.216 293.003C413.762 292.741 413.384 292.363 413.121 291.909V291.909Z" fill="#2F2E41"/>
<path d="M378.935 302.138L366.826 300.743C366.434 300.697 366.055 300.574 365.711 300.381C365.367 300.188 365.065 299.929 364.823 299.617C364.58 299.306 364.402 298.95 364.299 298.57C364.196 298.189 364.169 297.792 364.221 297.401L375.028 216.085C375.066 215.802 375.051 215.514 374.983 215.237L364.121 170.451C364.018 170.038 364.007 169.608 364.087 169.19C364.167 168.772 364.337 168.377 364.586 168.031C366.27 165.71 372.042 160.302 389.21 160.2H389.228C389.8 160.2 390.36 160.364 390.841 160.673C391.322 160.982 391.703 161.423 391.941 161.942L394.231 166.977C394.401 167.35 394.668 167.672 395.004 167.909C398.156 170.139 413.426 182.654 404.46 210.132C395.647 237.139 384.356 289.571 382.182 299.807C382.044 300.472 381.68 301.069 381.152 301.498C380.624 301.926 379.964 302.159 379.284 302.158C379.168 302.158 379.051 302.152 378.935 302.138V302.138Z" fill="#2F2E41"/>
<path d="M364.789 109.44C371.469 109.44 376.884 104.028 376.884 97.3533C376.884 90.6781 371.469 85.2668 364.789 85.2668C358.109 85.2668 352.694 90.6781 352.694 97.3533C352.694 104.028 358.109 109.44 364.789 109.44Z" fill="#E6B9BF"/>
<path d="M365.093 167.38L365.225 165.583C365.132 165.536 365.038 165.486 364.94 165.427C359.514 162.282 352.627 146.147 348.305 134.731C347.172 131.731 347.18 128.421 348.326 125.426C349.472 122.431 351.677 119.961 354.523 118.482L354.526 118.481C354.634 118.433 354.726 118.355 354.793 118.257L374.751 114.473C374.837 114.437 374.93 114.421 375.023 114.425L387.251 115.015C388.884 115.093 390.447 115.703 391.701 116.751C392.956 117.8 393.833 119.229 394.2 120.821L398.17 154.351C398.184 154.412 398.013 155.082 398.044 155.136C398.097 155.228 398.196 155.398 398.337 155.641C398.708 156.28 399.637 160.593 400.511 162.149C398.604 167.941 373.591 166.438 365.093 167.38Z" fill="#E4E4E4"/>
<path opacity="0.1" d="M384.537 135.367L389.219 152.912L380.636 166.168L384.537 152.912V135.367Z" fill="black"/>
<path d="M351.524 170.652L368.691 183.128L374.543 180.399L361.668 169.482L351.524 170.652Z" fill="#E6B9BF"/>
<path d="M357.376 155.056L365.569 171.041L344.111 174.16C344.111 174.16 346.452 128.544 347.622 125.425C348.261 123.954 349.083 122.57 350.07 121.306C350.893 120.201 352.031 119.37 353.334 118.922C354.638 118.474 356.047 118.431 357.376 118.797V118.797V155.056Z" fill="#E4E4E4"/>
<path d="M373.59 189.831C376.392 189.831 378.662 187.562 378.662 184.762C378.662 181.963 376.392 179.694 373.59 179.694C370.789 179.694 368.519 181.963 368.519 184.762C368.519 187.562 370.789 189.831 373.59 189.831Z" fill="#E6B9BF"/>
<path d="M419.586 185.64L315.452 174.834C314.662 174.752 313.863 174.827 313.101 175.053C312.34 175.28 311.63 175.654 311.013 176.154C310.396 176.655 309.884 177.272 309.505 177.97C309.127 178.669 308.89 179.435 308.808 180.225L306.207 205.252C306.125 206.042 306.199 206.84 306.426 207.602C306.653 208.363 307.027 209.072 307.528 209.689C308.029 210.305 308.647 210.817 309.346 211.195C310.044 211.573 310.811 211.81 311.602 211.892L313.13 212.051L321.006 212.868L415.735 222.698C416.525 222.78 417.324 222.706 418.086 222.48C418.848 222.253 419.557 221.879 420.174 221.378C420.791 220.878 421.304 220.261 421.682 219.562C422.06 218.864 422.297 218.098 422.379 217.308L424.98 192.28C425.062 191.491 424.988 190.692 424.761 189.931C424.534 189.17 424.16 188.461 423.659 187.844C423.158 187.227 422.541 186.715 421.842 186.337C421.143 185.959 420.376 185.722 419.586 185.64V185.64Z" fill="#CACACA"/>
<path d="M416.052 219.646L311.919 208.84C311.133 208.757 310.412 208.366 309.913 207.753C309.415 207.14 309.181 206.355 309.262 205.569L311.862 180.542C311.945 179.756 312.336 179.036 312.949 178.538C313.563 178.04 314.349 177.806 315.135 177.887L394.224 186.094C401.649 186.873 408.462 190.564 413.167 196.356C417.873 202.148 420.087 209.569 419.324 216.991C419.242 217.776 418.851 218.497 418.238 218.995C417.624 219.492 416.838 219.727 416.052 219.646V219.646Z" fill="white"/>
<path d="M388.73 191.057L344.755 186.494C343.668 186.381 342.695 187.17 342.582 188.257L342.582 188.257C342.469 189.344 343.259 190.316 344.346 190.429L388.321 194.992C389.408 195.105 390.382 194.316 390.494 193.229C390.607 192.142 389.817 191.17 388.73 191.057Z" fill="#6C63FF"/>
<path d="M397.265 199.898L334.584 193.394C333.497 193.281 332.524 194.07 332.411 195.157C332.298 196.244 333.088 197.216 334.175 197.329L396.856 203.834C397.943 203.946 398.916 203.157 399.029 202.07C399.142 200.984 398.352 200.011 397.265 199.898Z" fill="#E6E6E6"/>
<path d="M396.447 207.769L333.766 201.264C332.679 201.152 331.706 201.941 331.593 203.028C331.48 204.114 332.27 205.087 333.357 205.2L396.038 211.704C397.125 211.817 398.099 211.028 398.211 209.941C398.324 208.854 397.534 207.882 396.447 207.769Z" fill="#E6E6E6"/>
<path d="M384.342 167.143L371.467 178.059L377.32 180.789L394.486 168.312L384.342 167.143Z" fill="#E6B9BF"/>
<path d="M388.634 116.458C389.963 116.091 391.372 116.135 392.676 116.583C393.979 117.031 395.117 117.862 395.94 118.967C396.927 120.231 397.749 121.615 398.388 123.086C399.558 126.205 401.899 171.821 401.899 171.821L380.441 168.702L388.634 152.717L388.634 116.458Z" fill="#E4E4E4"/>
<path d="M372.42 187.492C375.221 187.492 377.492 185.222 377.492 182.423C377.492 179.624 375.221 177.355 372.42 177.355C369.619 177.355 367.348 179.624 367.348 182.423C367.348 185.222 369.619 187.492 372.42 187.492Z" fill="#E6B9BF"/>
<path d="M363.056 84.1722H377.102V90.8003H378.662V110.423C375.572 109.873 372.437 109.612 369.299 109.643C370.544 105.045 370.956 101.01 370.694 97.4283H358.572C358.077 96.2736 357.896 95.0084 358.049 93.7614C357.222 94.8237 356.702 96.0917 356.543 97.4283H349.791V97.4283C349.791 95.6875 350.134 93.9637 350.801 92.3554C351.467 90.7471 352.444 89.2858 353.676 88.0548C354.908 86.8239 356.37 85.8475 357.98 85.1813C359.589 84.5151 361.314 84.1722 363.056 84.1722V84.1722Z" fill="#2F2E41"/>
<path d="M503 319.457C503 319.529 502.986 319.599 502.959 319.665C502.932 319.731 502.892 319.791 502.841 319.842C502.791 319.892 502.731 319.932 502.665 319.959C502.599 319.986 502.528 320 502.457 320H207.139C206.995 320 206.857 319.943 206.755 319.841C206.653 319.739 206.596 319.601 206.596 319.457C206.596 319.314 206.653 319.176 206.755 319.074C206.857 318.972 206.995 318.915 207.139 318.915H502.457C502.528 318.915 502.599 318.929 502.665 318.956C502.731 318.983 502.791 319.023 502.841 319.073C502.892 319.124 502.932 319.184 502.959 319.25C502.986 319.315 503 319.386 503 319.457V319.457Z" fill="#CACACA"/>
<path d="M110.772 108.123C114.552 108.123 117.616 105.062 117.616 101.285C117.616 97.5075 114.552 94.4456 110.772 94.4456C106.993 94.4456 103.929 97.5075 103.929 101.285C103.929 105.062 106.993 108.123 110.772 108.123Z" fill="white"/>
<path d="M110.772 172.836C114.552 172.836 117.616 169.774 117.616 165.997C117.616 162.22 114.552 159.158 110.772 159.158C106.993 159.158 103.929 162.22 103.929 165.997C103.929 169.774 106.993 172.836 110.772 172.836Z" fill="white"/>
<path d="M288.249 196.088C292.028 196.088 295.092 193.026 295.092 189.249C295.092 185.472 292.028 182.41 288.249 182.41C284.469 182.41 281.405 185.472 281.405 189.249C281.405 193.026 284.469 196.088 288.249 196.088Z" fill="#F0F0F0"/>
</g>
<defs>
<clipPath id="clip0">
<rect width="428" height="273" fill="white" transform="translate(75 47)"/>
</clipPath>
</defs>
</svg>
