<svg width="55" height="55" viewBox="0 0 55 55" fill="none" xmlns="http://www.w3.org/2000/svg">
<g clip-path="url(#clip0)">
<path opacity="0.56" d="M20.625 4.58331C20.625 2.05104 22.6761 0 25.2084 0H27.5C42.6881 0 55.0002 12.312 55.0002 27.4999V50.4165C55.0002 52.9487 52.9492 54.9998 50.4169 54.9998H48.1251C32.9371 54.9998 20.625 42.6878 20.625 27.4999V4.58331Z" fill="#4A6CF7"/>
<path opacity="0.88" d="M22.9168 55.0001C35.5734 55.0001 45.8337 44.74 45.8337 32.0835C45.8337 19.4271 35.5734 9.16699 22.9168 9.16699C10.2602 9.16699 0 19.4271 0 32.0835C0 44.74 10.2602 55.0001 22.9168 55.0001Z" fill="#4A6CF7"/>
</g>
<defs>
<clipPath id="clip0">
<rect width="55" height="55" fill="white"/>
</clipPath>
</defs>
</svg>
